<?xml version="1.0" encoding="utf-8"?>
<!-- Generator: Adobe Illustrator 17.0.1, SVG Export Plug-In . SVG Version: 6.00 Build 0)  -->
<!DOCTYPE svg PUBLIC "-//W3C//DTD SVG 1.1//EN" "http://www.w3.org/Graphics/SVG/1.1/DTD/svg11.dtd">
<svg version="1.1" id="Группа_1" xmlns="http://www.w3.org/2000/svg" xmlns:xlink="http://www.w3.org/1999/xlink" x="0px"
	 y="0px" width="48.494px" height="48.494px" viewBox="2.759 0.007 48.494 48.494"
	 enable-background="new 2.759 0.007 48.494 48.494" xml:space="preserve">
<metadata><?xpacket begin="﻿" id="W5M0MpCehiHzreSzNTczkc9d"?>
<x:xmpmeta xmlns:x="adobe:ns:meta/" x:xmptk="Adobe XMP Core 5.5-c014 79.151739, 2013/04/03-12:12:15        ">
   <rdf:RDF xmlns:rdf="http://www.w3.org/1999/02/22-rdf-syntax-ns#">
      <rdf:Description rdf:about=""
            xmlns:xmp="http://ns.adobe.com/xap/1.0/"
            xmlns:xmpGImg="http://ns.adobe.com/xap/1.0/g/img/"
            xmlns:xmpTPg="http://ns.adobe.com/xap/1.0/t/pg/"
            xmlns:stDim="http://ns.adobe.com/xap/1.0/sType/Dimensions#"
            xmlns:xmpG="http://ns.adobe.com/xap/1.0/g/"
            xmlns:dc="http://purl.org/dc/elements/1.1/">
         <xmp:CreatorTool>Adobe Illustrator CC (Windows)</xmp:CreatorTool>
         <xmp:CreateDate>2017-07-02T04:44:56+03:00</xmp:CreateDate>
         <xmp:Thumbnails>
            <rdf:Alt>
               <rdf:li rdf:parseType="Resource">
                  <xmpGImg:width>216</xmpGImg:width>
                  <xmpGImg:height>256</xmpGImg:height>
                  <xmpGImg:format>JPEG</xmpGImg:format>
                  <xmpGImg:image>/9j/4AAQSkZJRgABAgEASABIAAD/7QAsUGhvdG9zaG9wIDMuMAA4QklNA+0AAAAAABAASAAAAAEA&#xA;AQBIAAAAAQAB/+4ADkFkb2JlAGTAAAAAAf/bAIQABgQEBAUEBgUFBgkGBQYJCwgGBggLDAoKCwoK&#xA;DBAMDAwMDAwQDA4PEA8ODBMTFBQTExwbGxscHx8fHx8fHx8fHwEHBwcNDA0YEBAYGhURFRofHx8f&#xA;Hx8fHx8fHx8fHx8fHx8fHx8fHx8fHx8fHx8fHx8fHx8fHx8fHx8fHx8fHx8f/8AAEQgBAADYAwER&#xA;AAIRAQMRAf/EAaIAAAAHAQEBAQEAAAAAAAAAAAQFAwIGAQAHCAkKCwEAAgIDAQEBAQEAAAAAAAAA&#xA;AQACAwQFBgcICQoLEAACAQMDAgQCBgcDBAIGAnMBAgMRBAAFIRIxQVEGE2EicYEUMpGhBxWxQiPB&#xA;UtHhMxZi8CRygvElQzRTkqKyY3PCNUQnk6OzNhdUZHTD0uIIJoMJChgZhJRFRqS0VtNVKBry4/PE&#xA;1OT0ZXWFlaW1xdXl9WZ2hpamtsbW5vY3R1dnd4eXp7fH1+f3OEhYaHiImKi4yNjo+Ck5SVlpeYmZ&#xA;qbnJ2en5KjpKWmp6ipqqusra6voRAAICAQIDBQUEBQYECAMDbQEAAhEDBCESMUEFURNhIgZxgZEy&#xA;obHwFMHR4SNCFVJicvEzJDRDghaSUyWiY7LCB3PSNeJEgxdUkwgJChgZJjZFGidkdFU38qOzwygp&#xA;0+PzhJSktMTU5PRldYWVpbXF1eX1RlZmdoaWprbG1ub2R1dnd4eXp7fH1+f3OEhYaHiImKi4yNjo&#xA;+DlJWWl5iZmpucnZ6fkqOkpaanqKmqq6ytrq+v/aAAwDAQACEQMRAD8A9U4q7FXYq7FXYq7FXYq7&#xA;FUNqGqadp0Hr31zHbRdmkYLUjsB1J9hkowMjQCsK1b839Gt+SabbyXrjpI37qP6Kguf+BGZcNFI8&#xA;zSLYlqH5rea7kkQPFZJ4RRhjT5yc/wAMyY6OA57raQXXmbzFdE/WNSuXB/Z9Vwv/AAINMvGKA5AI&#xA;S+SWSRuUjs7eLEk/jkwFW4VV4L++t6ehcSxU6cHZf1HImIPMKm1n5683WhBi1SZwO0xEw/5KBsql&#xA;p4Hotsk03849WiIXUbOK5Tu8RMT/AD35qfuGUT0MehTbM9G/MfytqZVPrBs5229K5ATf2epT8cxJ&#xA;6WcfNbZQCCAQag7gjMdLsVdirsVdirsVdirsVdirsVdirsVdirsVdiqjeXtpZWz3N3MkEEe7yOQA&#xA;PvwxiSaCvNPMv5uSMXt9Bj4J0+uzLVj7pGdh/svuzYYtF1ki3nd7f3t9cNcXk73E7dZJGLH5b9sz&#xA;oxAFBChkldirsVdirsVdirsVdirsVTzQPOev6GwFncF7YHe1lq8R+Q6r/sSMpyYIz5q9U8r/AJja&#xA;NrZS3mP1LUG2EEh+Fz/xW+wPyO+a3NpZQ35hNsszGS7FXYq7FXYq7FXYq7FXYq7FXYq7FUj80+bt&#xA;M8u2nqXB9S6kH+j2ikc39z/Kvvl2HCZnbkrxXzF5o1bXrr1r6X92p/c26bRxj2Hj7nfNtiwxgNmK&#xA;U5arsVdirsVdirgCSABUnYAYFTseSPNhtvrH6Ln9Olacfjp/qV5/hlX5iF1apIylSVYEMDQg9Qct&#xA;V2FXYq7FXYq7FWfeTfzOurApY60zXFlssdz9qWMf5Xd1/EfhmFn0glvHmm3rdvcQXEKTwSLLDIA0&#xA;ciEMrA9wRmsII2KV+BXYq7FXYq7FXYq7FXYq7FWOec/OVp5ds+0uozA/Vrf8Ob06KPx/VfgwGZ8l&#xA;eHajqN7qN5JeXkrTXEpq7t+oeAHYZuIxERQYofJK7FXYq7FXYq7FWcflJp1rdeYpbidQ7WcJkgU7&#xA;0csF5f7EZh62REaHVIeyZqkvHfzd061ttfguIFCPdw851GwLqxHP5kZtdFImNHogsFzMQ7FXYq7F&#xA;XYq7FWVeSPPN15fuRBcFptKlP72HqYyf24/4jvmNqNOJix9SXttrdW91bR3NvIJYJlDxyL0KncHN&#xA;QQQaKVXArsVdirsVdirsVdiqVeZfMNpoOlSX1x8TD4YIa0MkhHwqP4+2WYsRnKgrwPVdUvdVv5b6&#xA;8k9SeY1J7AdlUdgO2bqEBEUGKEyass0j8svM+p2i3SrFaxSANF9YZlZlPQhVVyPppmLPVwia5ppJ&#xA;dd8uatodyLfUYfTLgmKRTyRwO6sP1dcux5YzFhCW5YrsVdirsVTPy35gvNB1WPULYByoKSxNsHjb&#xA;qpP0VHvlWXGJxoq9NH5xeXvq3M2t0Lin9zRKV/1+XT6PozA/IyvmE28z8y+YrzX9Ue/uQE2CQwru&#xA;I4wSQoPfrUnM/FiEBQQleWq7FXYq7FUy0Ly9q2uXRt9Oh9RkAMjk8UQHoWY9MryZYwFlU71X8r/N&#xA;GnWjXXGG7SMcpFt2ZnUDqeLKhP0VymGrhI1yTTEsykM2/LjzqdIuxpl9J/uMuW+Bm6QyN+17K37X&#xA;3+OYeqwcQsc0h7NmqS7FXYq7FXYq7FWmZVUsxAUCpJ2AAxV4R5780vr+ss0bH6hbVjtF8RX4pD7v&#xA;T7qZudPh4I+bEsbzIVMPLsVtLr+mxXVPq73MSyg9CpcVB9j3yvKSImu5X0ZmiZMM/NiO2bymzy09&#xA;VJ4zbk9eRJBA/wBhXMvRk8aC8WzbIdirsVdirsVdirsVdirsVdirsVezflHFbr5XeSMD1XuH9Yjr&#xA;UBeIP+xzU60nj+CQzbMRL5280R20XmPU47WggW5lCBdgPjOwp2B6ZvMJPAL7mKWZar2P8rvNZ1LT&#xA;jpV2/K9slHpserwdB9KdD9GarV4eE8Q5FIZzmGl2KuxV2KuxVhH5qeYjp2jLp0DUudRqrkdVhH2/&#xA;+Crx+/MvR4uKVnogvGs2yHYq4Eg1GxGBWfaP+b2q2losF9aJfPGvFJ+Zic06c/hcMfuzCnook2DS&#xA;bY/5q846p5jmQ3IWG2hqYbaOvEE/tEn7Te+X4cAhyQkOXq7FXYq7FUTpumX2p3sdlZRGa4lNFQfi&#xA;SegA7nIzmIiyrOh+TWrfVuR1CAXNK+lxfhXw59f+FzD/AD0b5Jpg+q6Vf6VeyWV9EYriPqp3BB6M&#xA;pGxBzLhMSFhCEyauxV2KuxVPPK3m/VPLtw72vGW3lp61tJXi1OhBH2T75TmwCY3Vkmq/nBqlzaND&#xA;Y2aWUjjiZzIZWFe6DigB+dcx4aIA7m028/JJJJNSdyTmah2FUfoOrz6Pq9tqMNeUDgsv8yHZ1+lc&#xA;ryQEokK+iLS6gu7WG6t25wToskbDurCozRyBBoslXArsVdirsVeA+edb/THmW7uFblbxN6Ft4enH&#xA;tUf6xq305utPj4YAMUhy9XYq7FVe20+/uwTa20s4X7RiRnp8+IORMgOZVRdHRyjqVdTRlYUIPuDh&#xA;VrCrsVdiqpa21xdXEdtbxmWeZgkca7ksdgMBIAsq918k+T7by7YfFSTUZwDdTjf34J/kj8c02fOZ&#xA;nyZMjyhWO+c/KFp5isCtFj1CEE2txT6eDf5J/Drl+DOYHyV4VeWlzZ3UtrcxmK4hYpJG3UEZuIyB&#xA;FhipZJXYq7FW1RnYKgLMxoqgVJJ8MCq1zp9/ahWuraWBW+yZUZAflyAwCQPIqoZJXYq7FXr/AOUW&#xA;tG60abTJWrJYPWKv++pakD6GB+8Zq9bjqV96Qz3MJLsVdiqUeb9UOl+W9QvFPGRIisR7iST4EP0M&#xA;1ctww4pgK+es3jF2KuxVMPL+kyavrNppyVH1iQB2HVUG7t9Cg5XknwxJV9C2NjaWNrHaWkSw28Q4&#xA;pGo2A/iffNHKRJsskFrXljQ9ZjK6haJI9KLMPhlX5OtD9HTJ48socirzTzL+VGpWQa40hzfWw3MB&#xA;oJ1HsBs/0UPtmwxawHaWyKYG6OjsjqVdTRlYUII7EHMxDWFXrf5W+UBZ2o1u9j/0q5X/AERWG8cR&#xA;/b+b/q+eavV5rPCOSQ9BzCSt9WL1fS5r6pXmI6jlxBpWnWlcNKuwKwH80PKAv7M6zZp/ptqv+kqo&#xA;3khHf/WT9X0Zm6TPR4TyKC8hzaIbRGdgiAszEBVAqST0AGBWdeW/yp1S/C3GqubC2NCIqAzsPkdk&#xA;+nf2zDy6yI2jumnpmieVtC0VALC1VJKUadvilPzc7/QNs1+TNKfMpR95Z2t7bSWt1Es1vKOMkbio&#xA;IyEZEGwr578yaO2j65eacalYXPpMepjb4kP/AAJGbzFPiiCxS3LFdirKPy11T6h5stQTSO8rbSf8&#xA;9Psf8OFzG1UOKB8lD3TNOydirsVYB+cd8YtEs7MGhuZy7e6xLv8Ai4zN0MfUSgvIs2iHYq7FXo35&#xA;N6UJL691RxtAggiJ/mk3Yj5BR9+YGunsAkPVs1qXYq7FWOeafI2j6/GXdfq9+B8F5GPi+Tj9sfj7&#xA;5fh1Eoe5Xn2hflvqg81JZapD/oNv++lmWpjlRTsqt/lHqOoFczsmqHBceaKeyAAAACgGwAzVJQes&#xA;ataaTps+oXbcYYFrQdWJ2VV92O2ThAyNBXhr+c9ZbzL+n/Upchvhir8Ai/3zT+Wn9eubfwI8HCxe&#xA;4aHrFprGmQahan93MtSh6ow2ZG9wc1GSBiaLJHEAih3ByCvHPMX5can/AIpNppUFbK7rNFKdo4lJ&#xA;+NWb/JPQdaUza4tUOC5cwimf+VPImkaBGsgUXOoEfHduNx7Rr+yPx98ws2olP3JpkmY6uxV2KvLP&#xA;zk0oLc2GqIv96rW8x90+JPvBb7s2OhnsYoLzbNgh2KqlrcSW1zFcR7SQusiH3U1H6sBFilfSsEyT&#xA;wRzR7pKqup9mFRmgIosl+BXYq8n/ADmuC2qadb12jgaSn/GR6f8AMvNloR6SUF53meh2KuxV7h+V&#xA;9h9V8oW7kUe7eSdvpbgv/CoM0+rlcz5JDLMxkvJNb/MfWtO833/1WQTWEUvo/VJN0/dAIxUjdSWB&#xA;6Zs8eljLGL5otnfljzto3mBOMD+jegVks5COfuVP7Y+X00zDy4JQ58ksgyhXYq7FXjv5qeZzf6oN&#xA;Jt3raWB/e0Ozz9G/4D7Pzrm00eLhjxHmUFguZqGbfld5mOm6v+jJ3pZagwVa9Fn6If8AZfZP0Zh6&#xA;vFxRscwkPZs1SXYq7FUh8zec9G8vxUuX9W7YVjtI6Fz4Fv5V9z9FcuxYJT5clYDpX5la1qHm2wNw&#xA;4g06SYRG0j+xSWqAux3YgsD4e2Zs9LGMDXNFvXM1iWLfmZp/1zyhdkCr2pS4T/YtRv8AhGbMnSyr&#xA;IPNBeGZuEOxV2KvoTyfcG48raVIev1aNSfdF4f8AGuaPOKmfeyTjKldirxr833LeaYgeiWkaj/g5&#xA;D/HNrovo+KCwjMxDsVdir6N8v2v1XQtPtqUMVtErfMIK/jmhyG5E+bJGTyrDDJM32Y1Lt8lFciBa&#xA;vmmeZ5p5JnNXlYux92NTm/Api1DNLDKksLtHLGQySKSGBHQgjEi1er+RvzLW9Mem626pdn4YLw0V&#xA;ZD0Cv2De/Q/PrrdRpa3jyTb0PMFLiKgitK9xir5+83eWr7QdWeC5YyxTEyW90f8Adik7k/5Q/aGb&#xA;vDlE42GKSZcqceVfLl9r2qpa2xMaJR57ntGgPX/W/lGU5sohGyr6DRSqKpYsQAORpU07mlM0jJvF&#xA;WAeefzJj09pNN0dlkvhVZ7nqkR7qvZn/AAGZun0vFvLki3ks8808zzTyNLNISzyOSzMT3JObMCuS&#xA;Go5HjkWRDR0IZT4EGoxIV9K2lwtzaQ3C/ZmjWQfJgD/HNBIUaZKGs2ou9HvrUiont5Y/+CQjJYzU&#xA;gVfN+b5i7FXYq94/Lh+fkvTTSlFkX/gZnH8M02q/vCyDJMx1dirsVQ8unafMKTWsUg8HjVuvzGSE&#xA;iOqpZd+SPKV0D6ulwCvUxL6R++Phlg1Ex1Vj+oflB5fnBNlcT2jnoCRKg+hqN/w2XR1shz3RTO1U&#xA;KoVRQAUA9sw0pX5pm9Hy1qsg6i0mp8zGQPxyzCLmPer53zesXYq7FXqn5b+fmnMei6tLWbZbK5c/&#xA;bp/utyf2v5T36deut1Wmr1RSC9IzASlHmny5a6/pMllNRZR8dtNTdJANj8ux9stw5TCVq8GbR9RX&#xA;VTpRhb6+JfR9HvzrT7vfNzxjh4ujF7t5S8tW3l/SI7SOjXD0e7mHV5CP+Ir0GabNlM5WyTrKled/&#xA;mN5+az9TRtKkpdEcbu5U7xg/sIf5vE9vn0ztLpr9UuSCXk+bNDsVdir6F8nzet5W0l61/wBFiUn/&#xA;AFFC/wAM0ecVM+9km+VKwSx/KDy/CeV3PPdGv2ARElPkOTf8NmZLWyPLZFJ/aeR/KVoB6WlwNTvK&#xA;vrH/AJKF8plqJnqlNItN06EUhtYYx4JGq/qGVmZPVURkVdirsVaZlVSzEKqipJ2AAxVDwapps5pB&#xA;dwyk9kkRv1HJGBHMKicirsVdiqld2lveWstrcp6lvOpSVKkVVhQioocMZEGwrzLzJ+UUqBrjQZTK&#xA;u5NnMQG+SPsD8m+/Nhi1vSSKedXNrc2s729zE0M8Zo8TgqwPuDmeCCLCFLCrasysGUkMDUEbEEYF&#xA;e3fl35v/AE7ppt7pq6naACYnrInRZP4N7/PNRqcPAbHIpDLcxkpa3l3TG15dcMf+nLEYQ3b/AFv9&#xA;bj8NfDLPFPDw9FTLK1Yp+YPm4aDpnpWzD9JXYK2/+Qv7Uh+Xb3+WZOmw8Z35BBeHu7OxdyWZiSzE&#xA;1JJ6knNuhrCqpb29xczJBbxtNNIaJGgLMT4ADASBuVeieW/yjnlC3GuymBDuLOIguf8AXfcL8hX5&#xA;jMHLrQNopp6bY2VrY2kVpap6dvAoSJKk0A9zU5rpSJNlKvgV2KuxVDT6ppluaT3cMR6UeRF/WckI&#xA;E8gqJBDAMpqDuCOhGRV2KuxVp0V0ZGFVYEMPY4q+ar21e0vbi1f7dvI8TfNGKn9Wb+JsWxRFlrut&#xA;WJBs76eCn7KSMF+la0wSxxPMKybS/wA2PM1oVW79K/iHX1FCPT2ZKD71OY89HA8tk2zfRPzT8t6g&#xA;VjumbTpz2m3jr7SDb/ggMw8mknHlutsvjkjkRZI2DowqrqQQQe4IzFISuxVKPMXlXR9ft/TvYv3q&#xA;ikVym0ifI9x7HbLcWaUDsrxjzV5N1Ty9cUnHrWbmkN2g+FvZh+y3t92bXDnjMbc2KQ5eqYaBrVzo&#xA;2rW+oW+7RN8aVoHQ7Mh+YyvJjE40VfQtje299Zw3ls3OCdBJG3swrv75o5RINFkr4FUru6gtLWa6&#xA;uG4QQI0kjHsqipwxBJoK+evMeuXOt6vPqE9R6hpFH2SMbIo+Q6++bzFjEI0GKW5YqeeV/KGq+Ybn&#xA;hbL6dqhpPduPgX2H8zew/DKc2eMBvzV7N5b8paPoEHCzi5XDCkt09DI/09h7DNTlzSmd2SdZUq2S&#xA;SONGkkYIiirOxAAA7knEBWIa3+aflvTy0dqzajOO0O0dfeQ7f8CDmVj0k5c9kWwjVPzY8zXZK2np&#xA;2ER6emod6e7PUfcBmZDRwHPdbYze67rV8Sby+nnr+y8jFfoWtMyI44jkEKOm2b3uoWtmho1zKkQP&#xA;gXYLX8cMpUCVfSiqFUKBQAUA9s0DJ2KuxV2KvC/zK0w2Pm26YCkd2FuY/fmKP/w6tm40s7gPJiWL&#xA;5kq7FXYqnGgebdc0KQGxuD6NavayVaJv9j2+a0OU5MMZ81eteVPzD0jXSltJ/oeonb6u5+Fz/wAV&#xA;t3+XXNbm00ob8wm2VZjJUbyztby2ktbqJZreUcZI3FQRhjIg2FeL+efIVzoMrXdpym0l2AVzu0Rb&#xA;or+3g2bbT6gT2P1IpiOZSHqv5P68ZbW40WZqtb/v7av++2NHX6GIP05rdbjo8SQ9HzASwb83bu8h&#xA;8uQwwilvcTqly4PZQXVaeBK1+jMzRAGaC8czaoZZ5H8iXOvzC5uOUGlRtR5P2pCOqR/xbtmLqNQI&#xA;bDmkB7TY2NpY2sdraRLDbxDika9AP4n3zUykSbKVfArFfNf5haRoXK3jpeaiNvq6H4UP/Fjdvl1z&#xA;Jw6aU9+QRbyXX/Nuua7ITfXB9GtUtY6rEv8Ase/zapzZY8MYckJPlyuxV2Ksv/KzSje+aY52FYrF&#xA;Gnao25EcEHzq3L6MxdXOoV3pD23NQl2KuxV2KvP/AM39GNxpVtqka1ezfhMQP91y0AJ+Tgffmbop&#xA;1Ix70F5Hm0Q7FXYq7FXAkEEGhHQ4FeleR/zNeNo9N12TlGaLDfsd18BKe4/yvv8AHMDUaTrH5Jt6&#xA;irKyhlIZWFQRuCDmuSsubaC5gkt7iNZYJVKyRsKhgeoIwgkGwrw/z35Nl8vX/qQgvplwT9XkO/E9&#xA;fTY+I7eI+nNvp8/GPNiUu8paudJ8xWN7WkayBJvD03+F/uBrlmaHFAhX0LmjZJH520z9JeV9QtwK&#xA;yLEZYvHnF8YA+fGmXYJ8MwVeSeR/J03mHUKyVj023INzKNiT2jX/ACj+A+jNnqM/APNiHudrbW9r&#xA;bx21vGIoIVCRxrsAo2AzTkkmyyVCQASTQDqcCvLvPH5mu5k03QZOKCqz36nc9isR7D/K+7xzY6fS&#xA;dZfJFvNCSSSTUnck5nodhV2KuxV2KvaPyq0M2Hl43sq8Z9Rb1N+vpLtH9+7fTmp1mTilXckM0zES&#xA;7FXYq7FUPqFjBf2M9lcDlDcI0bj2YUqPcZKMiDYV87avpdzpepXGn3IpNbuUJ7EdVYezDcZvITEh&#xA;YYoTJq7FXYq7FXYq9A/Lnz61jJHo+qS1sXPG1nb/AHUx6KxP7B/D5dMHVae/VHmkF65msSg9Y0mz&#xA;1bTprC7XlDMtCe6nsy+4OThMxNhXz9rujXejapPp9yPjiPwuOjod1cexGbrHkE42GL3fylqB1Dy1&#xA;p12Tyd4FWRvF4/gf/hlOafNHhmQyTYgEEEVB6jKlQekaRY6TYRWNjH6cEXSu7MT1Zj3Jyc5mRsqj&#xA;MgryX8xvPxvHk0bSpCLRDxurlD/ekbFFI/Y8fH5ddnpdNXqlzQS89zOQ7FXYq7FXYqm/lTQJdd1u&#xA;3sFBERPO5cfsxL9o/T0HucqzZOCNq+g4oo4okiiUJHGoVEHQKooAM0hNsl2BXYq7FXYq7FXn/wCa&#xA;vlU3lmNatErc2i8bpQN2hG/L5p+r5Zm6PNR4T1QXkebRDsVdirsVdirsVeuflf5xN9bjRb563dut&#xA;bWRjvJEv7J/yk/V8s1erwUeIckh6BmElhn5neWBqmjnULdK32ngvt1eHq6/R9ofT45l6TLwyo8ig&#xA;rfykujN5VMRP+81xJGB4Bgsn63OOtFT+ChmuYiXYqwH80POJ0+2/Q1i9Ly5WtzIp3jiP7P8ArP8A&#xA;q+eZukwcR4jyQXkObRDsVdirsVdirgCSABUnoMCvcfy78qHQ9J9W5Smo3gDzg9UX9mP6K1Pv8s1G&#xA;pzcctuQSGV5jJdirsVdirsVdirmVWUqwBUihB3BBxV4l+YXkx9DvjeWiE6VcsfTp/upzuYz7fy/2&#xA;Zt9Nn4xR5oLEMykOxV2KuxV2Kq9je3NjeQ3ls5jngcPGw7EZGUQRRV9CeX9at9a0i31GDYTL+8T+&#xA;SQbOv0HNJkxmEqLJMSARQ7g5WrGfKOi/oXUNasYwRavNHc2o7COVSOI/1ShX6MyM2TjET1Vk2Y6p&#xA;fr+s2+jaRc6jPusK1RO7OdlUfM5PHAykAFfPV/fXN/ezXl0/O4ncvI3ufD2HQZvIxERQYqGSV2Ku&#xA;xV2KuxV6R+WPkkyyR69qMdIUPKwhYfaYf7tI8B+z9+YGr1FekfFIeqZrUuxV2KuxV2KuxV2KuxVQ&#xA;vrG0vrSW0u4lmt5l4yRt0IwxkQbCvEfOvkm78vXXqR8ptMlP7iem6n+SSnRvfvm3wagTHmxYxmSr&#xA;sVdirsVdir0L8odeNvqU2jyt+6uwZYB2EqD4h/skH4Zg63HY4u5IetZrEuoK174q7FXk/wCb2vGa&#xA;/g0WJv3VqBNcAd5XHwg/6qGv05stFjocXegvO8z0OxV2KuxV2Ks98g/l5LqTR6pqqGPT1IaG3YUa&#xA;em4Jr0T9eYWp1PD6Y80gPXlVVUKoAUCgA2AAzVpbxV2KuxV2KuxV2KuxV2KuxVSurW2u7eS3uY1m&#xA;glHGSNxVSPcHCCQbCvJfOH5YXmnl73Rla6svtPbfaliHt/Ov4/rzZ4NWJbS5opgWZqHYq7FXYqid&#xA;NvprDULa9h/vLaRZV9+JrT6cjKPECFfR9rcRXNtDcxGsU6LJGfFXHIfgc0JFGmSpgVTuJ4re3lnl&#xA;PGKFGkkbwVRUn7sIFmlfOOqahNqOpXN9N/eXMjSEeHI1A+gbZvYR4QAxQuTV2KuxVfBbz3EyQwRt&#xA;LNIeKRoCzE+AAwEgc1eo+TfytSAx3+vKskoo0Vh1VT2MpGzH/J6eNc12fV3tH5pp6QAAAAKAdBmA&#xA;l2KuxV2KuxV2KuxV2KuxV2KuxV2KuxVi/mb8vND1wtOF+p37bm5iAox/4sTYN89j75kYtTKG3MIp&#xA;5fr35f8AmTRyzvbm6tV/4+bcF1p/lL9pfpFPfNjj1MJeRRTG8yFdirsVe5/lnqH1zyjagmr2rPbu&#xA;f9Q1X/hGXNPq41M+aQynMZLGfzI1A2XlC94mj3HG3X/nofi/4QNmRpY3MILwnNyh2KtqjOwVAWZj&#xA;RVAqST4YFZh5f/K/X9TKy3i/o61O5aUfvSP8mPY/8FTMXJq4x5blNPUfLvlHRNBipZQ1uCKSXUlG&#xA;lb6ew9hmuy5pT5pTrKldirsVdirsVdirsVdirsVdirsVdirsVdirsVdiqTav5O8t6sS95YxmZus8&#xA;dY5KnuWSlfpy2GeceRViWofk1YuS2n6hJD3Ec6CQfLkvCn3HMqOuPUIpIbr8ofM8RPoy21wvbi7K&#xA;30hlA/HLhrYea0zL8tdB1vRLO9tdThESvIksBDo4JK8X+ySRTivXMTVZIzIIUMyzFSw/8ytC1rW9&#xA;Ps7TTIRKEmMsxLogXihVftEV+0emZWlyRgSSgsLtfyg8zSlTPNbW6n7QLs7AfJVof+CzLOth0taZ&#xA;Dp35N6XEQ2oX0tyQa8IlEK/I19Qn6KZRLXS6BaZjpPlrQtIA/R9lHA/T1acpCD4yNV/xzFnllLmU&#xA;pllauxV2KuxV2KuxV2KuxV2KuxV2KuxV2KuxV2KuxV2KuxV2KuxV2KuxV2KuxV2KuxV2KuxV2Kux&#xA;V2KuxV2KuxV2KuxV2KuxV2KuxV2KuxV2KuxV2KuxV2KuxV2KuxV2KuxV2KuxV2KuxV2KuxV2KuxV&#xA;2KuxV2KuxV2KuxV2KuxV2KuxV2KuxV2KuxV2KuxV2KuxV2KuxV2KuxV2KuxV2KuxV2KuxV2KuxV2&#xA;KuxV2KuxV2KuxV2KuxV2KuxV2KuxV2KuxV2KuxV2KuxV2KuxV2KuxV2KuxV2KuxV2KuxV2KuxV2K&#xA;uxV2KuxV2KuxV2KuxV2KuxV2KuxV2KuxV2KuxV2KuxV2KuxV2KuxV2KuxV2KuxV2KuxV2KuxV2Ku&#xA;xV2KuxV2KuxV2KuxV2KuxV2KuxV2KuxV2KuxV2KuxV2KuxV2KuxV2KuxV2KuxV2KuxV2KuxV2Kux&#xA;V2KuxV2KuxV2KuxV2KuxV2KuxV2KuxV2KuxV2KuxV2KuxV2KuxV2KuxV2KuxV2KuxV2KuxV2KuxV&#xA;2KuxV2KuxV2KuxV2KuxV2KuxV2KuxV2Kv//Z</xmpGImg:image>
               </rdf:li>
            </rdf:Alt>
         </xmp:Thumbnails>
         <xmpTPg:MaxPageSize rdf:parseType="Resource">
            <stDim:w>48.494003</stDim:w>
            <stDim:h>48.494001</stDim:h>
            <stDim:unit>Pixels</stDim:unit>
         </xmpTPg:MaxPageSize>
         <xmpTPg:NPages>1</xmpTPg:NPages>
         <xmpTPg:HasVisibleTransparency>False</xmpTPg:HasVisibleTransparency>
         <xmpTPg:HasVisibleOverprint>False</xmpTPg:HasVisibleOverprint>
         <xmpTPg:PlateNames>
            <rdf:Seq>
               <rdf:li>Cyan</rdf:li>
               <rdf:li>Magenta</rdf:li>
            </rdf:Seq>
         </xmpTPg:PlateNames>
         <xmpTPg:SwatchGroups>
            <rdf:Seq>
               <rdf:li rdf:parseType="Resource">
                  <xmpG:groupName>Группа образцов по умолчанию</xmpG:groupName>
                  <xmpG:groupType>0</xmpG:groupType>
               </rdf:li>
            </rdf:Seq>
         </xmpTPg:SwatchGroups>
         <dc:format>image/svg+xml</dc:format>
      </rdf:Description>
   </rdf:RDF>
</x:xmpmeta>
                                                                                                    
                                                                                                    
                                                                                                    
                                                                                                    
                                                                                                    
                                                                                                    
                                                                                                    
                                                                                                    
                                                                                                    
                                                                                                    
                                                                                                    
                                                                                                    
                                                                                                    
                                                                                                    
                                                                                                    
                                                                                                    
                                                                                                    
                                                                                                    
                                                                                                    
                                                                                                    
                           
<?xpacket end="w"?>
	</metadata>
<path fill="#8781BD" d="M27.005,0.007c13.391-0.001,24.247,10.855,24.248,24.246S40.398,48.5,27.007,48.501
	S2.76,37.646,2.759,24.255c0,0,0-0.001,0-0.001C2.759,10.863,13.614,0.008,27.005,0.007z"/>
<path fill="#FFFFFF" d="M46.456,44.926c-1.944,1.818-4.15,3.335-6.543,4.5c1.759,2.598,2.751,5.639,2.86,8.775
	c0.035,1.031-0.769,1.896-1.8,1.936c-0.188,0.007-0.382,0.01-0.592,0.01c-2.464-0.001-4.898-0.55-7.124-1.607
	c-1.207,2.186-2.716,4.19-4.483,5.954c-0.73,0.731-1.914,0.731-2.645,0.001c0,0-0.001-0.001-0.001-0.001
	c-1.767-1.764-3.276-3.769-4.484-5.954c-2.226,1.058-4.659,1.607-7.123,1.607c-0.21,0-0.4,0-0.592-0.01
	c-1.031-0.039-1.837-0.905-1.8-1.936c0.108-3.136,1.099-6.177,2.859-8.774C6.113,45.108,0.345,36.245-0.011,26.381
	c-0.037-1.033,0.771-1.9,1.805-1.937c0,0,0,0,0,0c2.824-0.102,5.646,0.245,8.361,1.03c0.187-2.82,0.823-5.591,1.885-8.21
	c0.386-0.958,1.477-1.422,2.435-1.035c0,0,0.001,0,0.001,0c2.492,1.003,4.816,2.379,6.894,4.081
	c1.248-2.379,2.851-4.554,4.753-6.452c0.729-0.731,1.912-0.732,2.643-0.003c0.001,0.001,0.002,0.002,0.003,0.003
	c1.902,1.898,3.504,4.073,4.752,6.452c2.078-1.701,4.402-3.077,6.893-4.08c0.958-0.387,2.049,0.076,2.436,1.034c0,0,0,0.001,0,0.001
	c1.062,2.619,1.699,5.39,1.886,8.21c2.715-0.785,5.537-1.132,8.361-1.03c1.033,0.036,1.841,0.903,1.805,1.937c0,0,0,0,0,0
	C54.675,33.443,51.634,40.12,46.456,44.926z M38.802,56.307c-0.387-1.985-1.235-3.852-2.476-5.449
	c-1.844,0.58-3.746,0.956-5.672,1.121C32.745,54.375,35.646,55.915,38.802,56.307z M27.446,60.407
	c1.003-1.187,1.881-2.475,2.621-3.842c-0.966-0.763-1.845-1.63-2.621-2.586c-0.776,0.956-1.655,1.823-2.621,2.586
	C25.565,57.932,26.443,59.22,27.446,60.407L27.446,60.407z M24.239,51.981c-1.926-0.165-3.829-0.541-5.673-1.121
	c-1.241,1.597-2.089,3.464-2.475,5.449C19.247,55.917,22.147,54.376,24.239,51.981z M3.88,28.202
	c1.35,11.042,10.436,19.519,21.545,20.1C24.075,37.26,14.989,28.783,3.88,28.202z M20.68,24.729
	c-1.704-1.708-3.669-3.132-5.822-4.219c-0.637,2.054-0.977,4.189-1.011,6.34c6.139,2.845,10.975,7.906,13.539,14.168v-0.09
	c-0.007-6.075-2.419-11.9-6.71-16.2L20.68,24.729z M27.45,17.947c-1.299,1.537-2.387,3.241-3.236,5.066
	c1.227,1.351,2.312,2.825,3.235,4.4c0.924-1.574,2.009-3.049,3.237-4.4c-0.85-1.826-1.94-3.53-3.24-5.067L27.45,17.947z
	 M40.04,20.51c-4.713,2.386-8.451,6.335-10.576,11.171c0.461,1.244,0.829,2.52,1.1,3.819c2.698-3.731,6.307-6.708,10.483-8.648
	c-0.033-2.151-0.374-4.287-1.011-6.342H40.04z M36.573,34.321c-3.955,3.67-6.474,8.628-7.107,13.986
	c11.111-0.582,20.198-9.062,21.545-20.106C45.624,28.46,40.505,30.63,36.573,34.321z M41.116,13.181
	c-1.034,0.001-1.874-0.837-1.875-1.871c-0.001-1.034,0.837-1.874,1.871-1.875s1.874,0.837,1.875,1.871
	c0,0.498-0.197,0.975-0.549,1.327C42.086,12.982,41.612,13.179,41.116,13.181z M27.446,9.437c-1.034,0.001-1.874-0.837-1.875-1.871
	c-0.001-1.034,0.837-1.874,1.871-1.875s1.874,0.837,1.875,1.871c0,0.497-0.197,0.974-0.548,1.326
	c-0.351,0.351-0.827,0.55-1.323,0.553L27.446,9.437z M13.775,13.181c-1.033,0-1.871-0.838-1.871-1.871
	c0-1.033,0.838-1.871,1.871-1.871s1.871,0.838,1.871,1.871c0,0.496-0.197,0.972-0.548,1.323
	C14.746,12.982,14.271,13.179,13.775,13.181z"/>
</svg>
