<svg id="Группа_1" data-name="Группа 1" xmlns="http://www.w3.org/2000/svg" width="50.438" height="50.125" viewBox="0 0 50.438 50.125">
  <metadata><?xpacket begin="﻿" id="W5M0MpCehiHzreSzNTczkc9d"?>
<x:xmpmeta xmlns:x="adobe:ns:meta/" x:xmptk="Adobe XMP Core 5.6-c138 79.159824, 2016/09/14-01:09:01        ">
   <rdf:RDF xmlns:rdf="http://www.w3.org/1999/02/22-rdf-syntax-ns#">
      <rdf:Description rdf:about=""/>
   </rdf:RDF>
</x:xmpmeta>
                                                                                                    
                                                                                                    
                                                                                                    
                                                                                                    
                                                                                                    
                                                                                                    
                                                                                                    
                                                                                                    
                                                                                                    
                                                                                                    
                                                                                                    
                                                                                                    
                                                                                                    
                                                                                                    
                                                                                                    
                                                                                                    
                                                                                                    
                                                                                                    
                                                                                                    
                                                                                                    
                           
<?xpacket end="w"?></metadata>
<defs>
    <style>
      .cls-1 {
        fill: #c79453;
      }

      .cls-1, .cls-2 {
        fill-rule: evenodd;
      }

      .cls-2 {
        fill: #fff;
      }
    </style>
  </defs>
  <path class="cls-1" d="M206.974,17.226a24.247,24.247,0,1,1-24.246,24.247A24.247,24.247,0,0,1,206.974,17.226Z" transform="translate(-180.781 -15.594)"/>
  <path class="cls-2" d="M225.055,39.287a7.923,7.923,0,0,0-13.732-1.623l-9.609-3.981-7.03-16.972a1.85,1.85,0,0,0-3.418,1.416l5.614,13.554-13.552-5.614a1.85,1.85,0,1,0-1.416,3.418l16.971,7.03,3.981,9.612a7.922,7.922,0,1,0,12.061,3.6,7.874,7.874,0,0,0,2.8.517h0A7.925,7.925,0,0,0,225.055,39.287Zm-15.149,1.794a7.854,7.854,0,0,0,.417,4.039,7.953,7.953,0,0,0-2.805-.511,7.86,7.86,0,0,0-1.237.1l-2.565-6.191Zm-0.774,15.356a4.211,4.211,0,0,1-5.514-2.287A4.223,4.223,0,1,1,209.132,56.437Zm12.5-12.5a4.22,4.22,0,1,1,0-3.231A4.216,4.216,0,0,1,221.636,43.934Z" transform="translate(-180.781 -15.594)"/>
</svg>
