<svg id="Группа_1" data-name="Группа 1" xmlns="http://www.w3.org/2000/svg" width="50.5" height="48.5" viewBox="0 0 50.5 48.5"><defs><style>.cls-1,.cls-2{fill:#2fd6e4;fill-rule:evenodd}.cls-2{fill:#fff}</style></defs><path class="cls-1" d="M181.974 129.226a24.247 24.247 0 1 1-24.246 24.246 24.246 24.246 0 0 1 24.246-24.246z" transform="translate(-157.125 -129.219)"/><path class="cls-2" d="M193.373 156.343a1.808 1.808 0 0 1-1.716-1.237l-1.276-3.831-3.841 9.608a1.808 1.808 0 0 1-3.3.137l-.884-1.77-1.457 4.372a1.808 1.808 0 0 1-3.431 0l-3.959-11.883-1.121 3.367a1.808 1.808 0 0 1-1.716 1.237h-13.533v-3.62h12.233l2.424-7.279a1.808 1.808 0 0 1 3.432 0l3.959 11.883 1.121-3.366a1.809 1.809 0 0 1 3.334-.237l1.036 2.073 4.178-10.453a1.808 1.808 0 0 1 3.4.1l2.425 7.279h12.942v3.62h-14.25z" transform="translate(-157.125 -129.219)"/></svg>