<svg xmlns="http://www.w3.org/2000/svg" width="48.494" height="48.494" viewBox="0.29 0.007 48.494 48.494"><path fill="#F0524F" d="M24.536.007C37.927.006 48.783 10.862 48.784 24.253S37.929 48.5 24.538 48.501.291 37.646.29 24.255v-.001C.29 10.863 11.145.008 24.536.007z"/><path fill="#FFF" d="M42.698 34.515a6.248 6.248 0 1 1 .001-12.495 6.248 6.248 0 0 1-.001 12.495zm0-9.033a2.785 2.785 0 1 0 .002 5.57 2.785 2.785 0 0 0-.002-5.57zm-10.757-.89a6.75 6.75 0 1 1 6.749-6.751v.001a6.757 6.757 0 0 1-6.749 6.75zm0-10.037a3.288 3.288 0 1 0 3.287 3.289v-.001a3.292 3.292 0 0 0-3.287-3.289v.001zm6.55 25.189c0 7.743-6.277 14.02-14.02 14.02-7.743 0-14.02-6.277-14.02-14.02s6.277-14.02 14.02-14.02c7.739.009 14.01 6.28 14.02 14.02zm-14.02-10.563c-5.831-.001-10.558 4.726-10.559 10.557s4.726 10.558 10.557 10.559 10.558-4.726 10.559-10.557v-.002c-.007-5.828-4.729-10.55-10.557-10.557zm-7.469-4.594a6.75 6.75 0 1 1 6.75-6.75 6.757 6.757 0 0 1-6.75 6.755v-.005zm0-10.037a3.288 3.288 0 1 0 3.287 3.289v-.001a3.291 3.291 0 0 0-3.287-3.284v-.004zm-4.511 13.713a6.248 6.248 0 1 1-12.496 0 6.248 6.248 0 0 1 6.248-6.248h.001a6.254 6.254 0 0 1 6.247 6.253v-.005zm-6.247-2.782a2.785 2.785 0 1 0 2.784 2.786 2.79 2.79 0 0 0-2.784-2.786z"/></svg>