<svg xmlns="http://www.w3.org/2000/svg" width="48.494" height="48.494" viewBox="35.572 1.382 48.494 48.494"><path fill="#FC7900" d="M59.818 1.382c13.391-.001 24.247 10.855 24.248 24.246S73.211 49.875 59.82 49.876 35.573 39.021 35.572 25.63v-.001c0-13.391 10.855-24.246 24.246-24.247z"/><path fill="#FFF" d="M75.816 25.985c.027-.222.038-.446.033-.67-.149-6.8-4.826-7.516-10.241-8.342-1.3-.2-2.781-.425-4.331-.742a50.998 50.998 0 0 1-27.62-15.7 1.666 1.666 0 0 0-1.222-.533h-5.591c-.665 0-1.266.396-1.529 1.006a9.3 9.3 0 0 1-17.253 0 1.668 1.668 0 0 0-1.53-1.006H2.759c-.907 0-1.647.725-1.666 1.632-.05 2.43-.308 4.971-.556 7.429-.652 6.452-1.271 12.567 1.692 16.658a6.77 6.77 0 0 0-1.7 4.592v1.74c0 3.477 2.443 6.306 5.447 6.306h44.678c11.675 0 20.308-2.436 23.684-6.682a6.89 6.89 0 0 0 1.478-5.688zM3.852 9.393c.2-1.99.408-4.033.512-6.064h1.123c3.188 6.186 10.787 8.616 16.972 5.428a12.601 12.601 0 0 0 5.428-5.428h3.825a60.797 60.797 0 0 0 1.691 1.713L32.158 6.62a1.666 1.666 0 0 0 2.616 2.064l1.09-1.381a56.803 56.803 0 0 0 1.95 1.617l-1.145 1.451a1.666 1.666 0 0 0 2.616 2.064l1.2-1.527c.695.485 1.399.951 2.114 1.4l-1.022 1.3a1.666 1.666 0 0 0 2.616 2.064l1.308-1.658c.755.411 1.522.804 2.3 1.178l-.875 1.108a1.666 1.666 0 0 0 2.615 2.065l1.4-1.778a53.876 53.876 0 0 0 4.689 1.654 8.718 8.718 0 0 1-10.316 3.026 1.624 1.624 0 0 0-.222-.126A88.79 88.79 0 0 1 28.76 11.116a3.997 3.997 0 0 0-.738-.337 1.609 1.609 0 0 0-1.375.363 4.888 4.888 0 0 0-.47.646c-1.469 3.36-5.526 5.7-9.881 5.7a9.562 9.562 0 0 1-9.114-5.734 1.664 1.664 0 0 0-1.529-1.006H3.711c.049-.449.096-.9.141-1.355zm46.8 25.629H5.972c-1.147 0-2.115-1.362-2.115-2.974v-1.74a3.556 3.556 0 0 1 .785-2.286c2.14 1.412 5.028 2.1 8.75 2.1h57.863c-3.069 3.081-10.663 4.9-20.605 4.9h.002zm21.833-9.28a1.408 1.408 0 0 1-.368.678c-.217.233-.52.367-.838.373H13.392c-3.484 0-5.964-.667-7.549-2.034-.039-.038-.387-.362-.509-.5-1.983-2.193-2.183-5.918-1.9-10.18h1.18a12.832 12.832 0 0 0 11.689 6.74 14.434 14.434 0 0 0 11.951-5.923 90.89 90.89 0 0 0 15.151 9.129c.098.072.204.133.316.182a12.05 12.05 0 0 0 15.285-5.065c.533.125 1.067.242 1.6.352 1.632.334 3.154.566 4.5.772 5.687.869 7.33 1.29 7.414 5.122a3.217 3.217 0 0 1-.037.354h.002z"/></svg>