<svg xmlns="http://www.w3.org/2000/svg" width="48.494" height="48.494" viewBox="2.759 0.007 48.494 48.494"><path fill="#8781BD" d="M27.005.007C40.396.006 51.252 10.862 51.253 24.253S40.398 48.5 27.007 48.501 2.76 37.646 2.759 24.255v-.001C2.759 10.863 13.614.008 27.005.007z"/><path fill="#FFF" d="M46.456 44.926a26.674 26.674 0 0 1-6.543 4.5 16.686 16.686 0 0 1 2.86 8.775 1.873 1.873 0 0 1-1.8 1.936 16.626 16.626 0 0 1-7.716-1.597 26.537 26.537 0 0 1-4.483 5.954 1.87 1.87 0 0 1-2.645.001l-.001-.001a26.594 26.594 0 0 1-4.484-5.954 16.593 16.593 0 0 1-7.123 1.607c-.21 0-.4 0-.592-.01a1.871 1.871 0 0 1-1.8-1.936 16.66 16.66 0 0 1 2.859-8.774A26.7 26.7 0 0 1-.011 26.381a1.872 1.872 0 0 1 1.805-1.937 26.638 26.638 0 0 1 8.361 1.03c.187-2.82.823-5.591 1.885-8.21a1.87 1.87 0 0 1 2.435-1.035h.001a26.486 26.486 0 0 1 6.894 4.081 26.52 26.52 0 0 1 4.753-6.452 1.869 1.869 0 0 1 2.643-.003l.003.003a26.516 26.516 0 0 1 4.752 6.452 26.522 26.522 0 0 1 6.893-4.08 1.872 1.872 0 0 1 2.436 1.034v.001a26.515 26.515 0 0 1 1.886 8.21 26.638 26.638 0 0 1 8.361-1.03 1.872 1.872 0 0 1 1.805 1.937 26.46 26.46 0 0 1-8.446 18.544zm-7.654 11.381a12.906 12.906 0 0 0-2.476-5.449 26.42 26.42 0 0 1-5.672 1.121 12.928 12.928 0 0 0 8.148 4.328zm-11.356 4.1a22.684 22.684 0 0 0 2.621-3.842 16.737 16.737 0 0 1-2.621-2.586 16.737 16.737 0 0 1-2.621 2.586 22.684 22.684 0 0 0 2.621 3.842zm-3.207-8.426a26.429 26.429 0 0 1-5.673-1.121 12.892 12.892 0 0 0-2.475 5.449 12.935 12.935 0 0 0 8.148-4.328zM3.88 28.202c1.35 11.042 10.436 19.519 21.545 20.1-1.35-11.042-10.436-19.519-21.545-20.1zm16.8-3.473a22.63 22.63 0 0 0-5.822-4.219 22.61 22.61 0 0 0-1.011 6.34 26.813 26.813 0 0 1 13.539 14.168v-.09a22.97 22.97 0 0 0-6.71-16.2l.004.001zm6.77-6.782a22.646 22.646 0 0 0-3.236 5.066 26.399 26.399 0 0 1 3.235 4.4 26.451 26.451 0 0 1 3.237-4.4 22.645 22.645 0 0 0-3.24-5.067l.004.001zm12.59 2.563a22.803 22.803 0 0 0-10.576 11.171c.461 1.244.829 2.52 1.1 3.819a26.946 26.946 0 0 1 10.483-8.648 22.594 22.594 0 0 0-1.011-6.342h.004zm-3.467 13.811a22.715 22.715 0 0 0-7.107 13.986c11.111-.582 20.198-9.062 21.545-20.106a22.688 22.688 0 0 0-14.438 6.12zm4.543-21.14a1.874 1.874 0 1 1-.003-3.747 1.874 1.874 0 0 1 .003 3.747zm-13.67-3.744a1.874 1.874 0 1 1 1.323-.549c-.351.351-.827.55-1.323.553v-.004zm-13.671 3.744a1.871 1.871 0 1 1 0-3.743 1.871 1.871 0 0 1 0 3.743z"/></svg>