<svg xmlns="http://www.w3.org/2000/svg" width="48.494" height="48.494" viewBox="0.009 0.007 48.494 48.494"><path fill="#93C63E" d="M24.255.007C37.646.006 48.502 10.862 48.503 24.253S37.648 48.5 24.257 48.501.01 37.646.009 24.255v-.001C.009 10.863 10.864.008 24.255.007z"/><path fill="#FFF" d="M39.945 50.262a48.558 48.558 0 0 1-30.906 0c-4.656-1.824-7.22-4.448-7.22-7.389s2.564-5.565 7.22-7.39a48.555 48.555 0 0 1 30.905 0c4.657 1.824 7.221 4.449 7.221 7.39s-2.564 5.565-7.22 7.389zm-1.237-11.625a45.261 45.261 0 0 0-28.432 0c-3.127 1.225-5.069 2.848-5.069 4.236s1.942 3.01 5.069 4.235a45.261 45.261 0 0 0 28.432 0c3.126-1.225 5.069-2.848 5.069-4.235s-1.943-3.011-5.069-4.236zm.819-4.873a1.695 1.695 0 0 1-1.753-2.9c1.36-.822 2.139-1.736 2.139-2.506 0-2.179-6.007-5.343-15.422-5.343S9.07 26.179 9.07 28.358c0 .77.78 1.684 2.14 2.506a1.695 1.695 0 0 1-1.754 2.9c-3.119-1.886-3.774-3.98-3.774-5.4 0-2.612 2.153-4.935 6.063-6.542a38.217 38.217 0 0 1 25.494 0c3.91 1.607 6.063 3.931 6.063 6.542 0 1.417-.655 3.517-3.775 5.4zm-5.27-14.227a1.695 1.695 0 0 1-1.975-2.753l.051-.035c.55-.28.949-.788 1.09-1.389 0-.452-.559-1.241-2.135-1.978a18.476 18.476 0 0 0-13.592 0c-1.576.737-2.135 1.526-2.135 1.978.141.601.54 1.109 1.09 1.389a1.693 1.693 0 1 1-1.892 2.81l-.034-.024a5.05 5.05 0 0 1-2.553-4.177c0-2.021 1.452-3.814 4.089-5.046a21.786 21.786 0 0 1 16.462 0c2.637 1.233 4.089 3.024 4.089 5.046a5.043 5.043 0 0 1-2.555 4.179z"/></svg>