<svg xmlns="http://www.w3.org/2000/svg" width="48.87" height="47.34" viewBox="0 0 48.87 47.34">
  <metadata><?xpacket begin="﻿" id="W5M0MpCehiHzreSzNTczkc9d"?>
<x:xmpmeta xmlns:x="adobe:ns:meta/" x:xmptk="Adobe XMP Core 5.6-c138 79.159824, 2016/09/14-01:09:01        ">
   <rdf:RDF xmlns:rdf="http://www.w3.org/1999/02/22-rdf-syntax-ns#">
      <rdf:Description rdf:about=""/>
   </rdf:RDF>
</x:xmpmeta>
                                                                                                    
                                                                                                    
                                                                                                    
                                                                                                    
                                                                                                    
                                                                                                    
                                                                                                    
                                                                                                    
                                                                                                    
                                                                                                    
                                                                                                    
                                                                                                    
                                                                                                    
                                                                                                    
                                                                                                    
                                                                                                    
                                                                                                    
                                                                                                    
                                                                                                    
                                                                                                    
                           
<?xpacket end="w"?></metadata>
<defs>
    <style>
      .cls-1 {
        fill: #c79453;
        fill-rule: evenodd;
      }
    </style>
  </defs>
  <path class="cls-1" d="M1060.9,2252.75a3.389,3.389,0,0,1-1.64-.42,19.645,19.645,0,0,1-16.68,16.45v9.99h3.86a1,1,0,0,1,0,2H1033.3a1,1,0,0,1,0-2h3.87v-9.99a19.656,19.656,0,0,1-16.69-16.45,3.332,3.332,0,0,1-1.64.42,3.405,3.405,0,1,1,3.26-4.4h1.88a15.926,15.926,0,0,1,31.79,0h1.88A3.4,3.4,0,1,1,1060.9,2252.75Zm-42.06-4.81a1.41,1.41,0,1,0,1.42,1.41A1.415,1.415,0,0,0,1018.84,2247.94Zm20.32,30.83h1.43v-9.81c-0.24.01-.48,0.01-0.72,0.01s-0.47,0-.71-0.01v9.81Zm0.71-43.36a13.935,13.935,0,1,0,13.93,13.94A13.949,13.949,0,0,0,1039.87,2235.41Zm15.9,14.93a15.926,15.926,0,0,1-31.79,0h-1.7a17.622,17.622,0,0,0,35.19,0h-1.7Zm5.13-2.4a1.41,1.41,0,1,0,1.41,1.41A1.408,1.408,0,0,0,1060.9,2247.94Zm-21.03-8.76a10.177,10.177,0,0,0-10.16,10.17,1,1,0,0,1-1.99,0,12.165,12.165,0,0,1,12.15-12.16A1,1,0,1,1,1039.87,2239.18Z" transform="translate(-1015.44 -2233.41)"/>
</svg>
