<svg xmlns="http://www.w3.org/2000/svg" width="35.16" height="53.03" viewBox="0 0 35.16 53.03">
  <metadata><?xpacket begin="﻿" id="W5M0MpCehiHzreSzNTczkc9d"?>
<x:xmpmeta xmlns:x="adobe:ns:meta/" x:xmptk="Adobe XMP Core 5.6-c138 79.159824, 2016/09/14-01:09:01        ">
   <rdf:RDF xmlns:rdf="http://www.w3.org/1999/02/22-rdf-syntax-ns#">
      <rdf:Description rdf:about=""/>
   </rdf:RDF>
</x:xmpmeta>
                                                                                                    
                                                                                                    
                                                                                                    
                                                                                                    
                                                                                                    
                                                                                                    
                                                                                                    
                                                                                                    
                                                                                                    
                                                                                                    
                                                                                                    
                                                                                                    
                                                                                                    
                                                                                                    
                                                                                                    
                                                                                                    
                                                                                                    
                                                                                                    
                                                                                                    
                                                                                                    
                           
<?xpacket end="w"?></metadata>
<defs>
    <style>
      .cls-1 {
        fill: #c79453;
        fill-rule: evenodd;
      }
    </style>
  </defs>
  <path class="cls-1" d="M1047.76,2081.18h-8.24a2.042,2.042,0,0,1-2.04-2.04v-4.26a3.965,3.965,0,0,0-3.97-3.96h0a3.961,3.961,0,0,0-3.97,3.96v4.26a2.049,2.049,0,0,1-2.04,2.04,2.042,2.042,0,0,1-2.04-2.04v-2.41a2.766,2.766,0,0,0,1.93-2.58l0.25-4.11a5,5,0,0,0,1.86-3.75v-32.51a3.709,3.709,0,0,0-3.71-3.71h-1.28a0.96,0.96,0,0,0-.96.96v25.26l-4.63-24.75a0.958,0.958,0,0,0-1.15-.77l-1.25.27a3.655,3.655,0,0,0-2.34,1.6,3.7,3.7,0,0,0-.53,2.78s5.98,31.76,5.98,31.77a4.937,4.937,0,0,0,1.72,2.82l0.24,4.13a2.778,2.778,0,0,0,1.94,2.59v2.41a3.971,3.971,0,0,0,3.97,3.96h0a3.961,3.961,0,0,0,3.97-3.96v-4.26a2.049,2.049,0,0,1,2.04-2.04,2.042,2.042,0,0,1,2.04,2.04v4.26a3.971,3.971,0,0,0,3.97,3.96h8.24A0.96,0.96,0,0,0,1047.76,2081.18Zm-21.97-49.19a1.8,1.8,0,0,1,1.79,1.79v28.45a5.037,5.037,0,0,0-2.1-.96v-29.28h0.31Zm-4.27,34.81s-5.98-31.76-5.98-31.77a1.723,1.723,0,0,1,.25-1.34,1.794,1.794,0,0,1,1.42-.83l5.52,29.54a0.985,0.985,0,0,0,.41.62,0.97,0.97,0,0,0,.74.15,2.73,2.73,0,0,1,.64-0.07A3.06,3.06,0,1,1,1021.52,2066.8Zm2.99,8.16h-0.04a0.9,0.9,0,0,1-.95-0.81c0-.03-0.18-3.15-0.18-3.15a4.578,4.578,0,0,0,1.17.15,5.009,5.009,0,0,0,1.14-.14s-0.18,3.11-.18,3.13A0.913,0.913,0,0,1,1024.51,2074.96Z" transform="translate(-1013.56 -2030.06)"/>
</svg>
