<svg xmlns="http://www.w3.org/2000/svg" width="33.125" height="47.59" viewBox="0 0 33.125 47.59">
  <metadata><?xpacket begin="﻿" id="W5M0MpCehiHzreSzNTczkc9d"?>
<x:xmpmeta xmlns:x="adobe:ns:meta/" x:xmptk="Adobe XMP Core 5.6-c138 79.159824, 2016/09/14-01:09:01        ">
   <rdf:RDF xmlns:rdf="http://www.w3.org/1999/02/22-rdf-syntax-ns#">
      <rdf:Description rdf:about=""/>
   </rdf:RDF>
</x:xmpmeta>
                                                                                                    
                                                                                                    
                                                                                                    
                                                                                                    
                                                                                                    
                                                                                                    
                                                                                                    
                                                                                                    
                                                                                                    
                                                                                                    
                                                                                                    
                                                                                                    
                                                                                                    
                                                                                                    
                                                                                                    
                                                                                                    
                                                                                                    
                                                                                                    
                                                                                                    
                                                                                                    
                           
<?xpacket end="w"?></metadata>
<defs>
    <style>
      .cls-1 {
        fill: #c79453;
        fill-rule: evenodd;
      }
    </style>
  </defs>
  <path class="cls-1" d="M633.389,2075.55h-8a3.649,3.649,0,0,1-3.64-3.64v-16.42a1.049,1.049,0,0,1,1.048-1.05h1.279v-1.81a1.049,1.049,0,0,1,1.048-1.05h8.528a1.049,1.049,0,0,1,1.047,1.05v1.81h1.28a1.049,1.049,0,0,1,1.047,1.05v16.42A3.648,3.648,0,0,1,633.389,2075.55Zm-0.783-21.88h-6.433v0.77h6.433v-0.77Zm2.327,18.24v-15.37H623.846v15.37a1.544,1.544,0,0,0,1.545,1.54h8a1.543,1.543,0,0,0,1.544-1.54h0Zm-19.386,3.64h-8a3.649,3.649,0,0,1-3.64-3.64v-13.95a1.047,1.047,0,0,1,1.048-1.04h1.279V2041.5a1.049,1.049,0,0,1,1.048-1.05h0.136v-6.54a1.03,1.03,0,0,1,.145-0.53c0.03-.06.754-1.28,1.657-2.53,1.459-2.02,2.49-2.88,3.447-2.88,0.761,0,2.127.35,2.729,2.7a9.838,9.838,0,0,1,.277,2.17v7.61h0.137a1.049,1.049,0,0,1,1.047,1.05v15.42h1.279a1.047,1.047,0,0,1,1.048,1.04v13.95A3.649,3.649,0,0,1,615.547,2075.55Zm-1.966-42.71c0-1.06-.342-2.65-0.851-2.77-0.575.28-2.019,2.14-3.214,4.12v6.26h4.065v-7.61Zm1.184,9.7h-6.433v14.38h6.433v-14.38Zm2.327,29.37v-12.9H606.005v12.9a1.544,1.544,0,0,0,1.545,1.54h8a1.544,1.544,0,0,0,1.545-1.54h0Z" transform="translate(-603.906 -2027.97)"/>
</svg>
