<svg xmlns="http://www.w3.org/2000/svg" width="41.563" height="45.75" viewBox="0 0 41.563 45.75">
  <metadata><?xpacket begin="﻿" id="W5M0MpCehiHzreSzNTczkc9d"?>
<x:xmpmeta xmlns:x="adobe:ns:meta/" x:xmptk="Adobe XMP Core 5.6-c138 79.159824, 2016/09/14-01:09:01        ">
   <rdf:RDF xmlns:rdf="http://www.w3.org/1999/02/22-rdf-syntax-ns#">
      <rdf:Description rdf:about=""/>
   </rdf:RDF>
</x:xmpmeta>
                                                                                                    
                                                                                                    
                                                                                                    
                                                                                                    
                                                                                                    
                                                                                                    
                                                                                                    
                                                                                                    
                                                                                                    
                                                                                                    
                                                                                                    
                                                                                                    
                                                                                                    
                                                                                                    
                                                                                                    
                                                                                                    
                                                                                                    
                                                                                                    
                                                                                                    
                                                                                                    
                           
<?xpacket end="w"?></metadata>
<defs>
    <style>
      .cls-1 {
        fill: #c79453;
        fill-rule: evenodd;
      }
    </style>
  </defs>
  <path class="cls-1" d="M641.186,2245.75a10.189,10.189,0,0,1-2.9,7.04,18.278,18.278,0,0,0-3.3,6.03c-0.592,1.87-1.252,4.49-2.277,9.06-0.626,2.78-1.862,3.93-2.8,4.4v2.14a0.934,0.934,0,0,1-.934.93h-0.861v1.92a1.622,1.622,0,0,0,1.617,1.62h9.585a0.93,0.93,0,1,1,0,1.86h-9.585a3.485,3.485,0,0,1-3.485-3.48v-1.92h-0.861a0.935,0.935,0,0,1-.934-0.93v-2.53a42.971,42.971,0,0,1-1.855-4.87c-0.9-2.83,1.062-5.79,2.361-7.74,0.264-.4.493-0.74,0.659-1.03a2.229,2.229,0,0,0-.391-2.28,105.192,105.192,0,0,1-15.661-4.03l-5.93,1.76a0.8,0.8,0,0,1-.266.04c-2.46,0-3.747-4.03-3.747-8.01s1.287-8,3.747-8a0.8,0.8,0,0,1,.266.04l5.93,1.76c12.776-4.23,19.565-4.52,19.85-4.53h0.034c6.472,0,11.738,4.82,11.738,10.73v0.02Zm-37.9-6.14c-0.6.19-1.794,2.27-1.794,6.12s1.194,5.94,1.794,6.13l5.363-1.59v-9.07Zm23.037,33.87h1.722v-0.87h-1.722v0.87Zm-1.519-10.23a4.644,4.644,0,0,0-.424,3.21,44.226,44.226,0,0,0,1.61,4.29H628.7c0.113-.01,1.489-0.2,2.182-3.28,1.037-4.62,1.709-7.29,2.319-9.22a19.313,19.313,0,0,1,1.114-2.75,11.607,11.607,0,0,1-4.871.97c-0.011,0-.771-0.03-1.979-0.18a4.009,4.009,0,0,1,.212,1.16h0.213a2.921,2.921,0,0,1,0,5.8H624.8Zm2.355-3.93c-0.183.3-1.1,1.68-1.34,2.07h2.078a0.952,0.952,0,0,0,.706-1.04,0.94,0.94,0,0,0-.706-1.03h-0.738Zm2.313-22.45c-0.349.01-6.969,0.38-18.955,4.31v9.11c12.017,3.94,18.6,4.3,18.954,4.31,5.433-.01,9.851-3.98,9.851-8.87v-0.01C639.312,2240.84,634.9,2236.88,629.468,2236.87Zm6.287,11.63a0.93,0.93,0,0,1-1.32-.03l-3.966-4.18a0.935,0.935,0,0,1,1.355-1.29l3.966,4.18A0.934,0.934,0,0,1,635.755,2248.5Zm-3.739,0a0.93,0.93,0,0,1-1.32-.03l-3.966-4.18a0.935,0.935,0,0,1,1.355-1.29l3.966,4.18A0.934,0.934,0,0,1,632.016,2248.5Zm-3.739,0a0.93,0.93,0,0,1-1.32-.03l-3.966-4.18a0.935,0.935,0,0,1,1.355-1.29l3.966,4.18A0.934,0.934,0,0,1,628.277,2248.5Z" transform="translate(-599.625 -2235)"/>
</svg>
