<svg xmlns="http://www.w3.org/2000/svg" width="87.969" height="66.813" viewBox="0 0 87.969 66.813">
  <metadata><?xpacket begin="﻿" id="W5M0MpCehiHzreSzNTczkc9d"?>
<x:xmpmeta xmlns:x="adobe:ns:meta/" x:xmptk="Adobe XMP Core 5.6-c138 79.159824, 2016/09/14-01:09:01        ">
   <rdf:RDF xmlns:rdf="http://www.w3.org/1999/02/22-rdf-syntax-ns#">
      <rdf:Description rdf:about=""/>
   </rdf:RDF>
</x:xmpmeta>
                                                                                                    
                                                                                                    
                                                                                                    
                                                                                                    
                                                                                                    
                                                                                                    
                                                                                                    
                                                                                                    
                                                                                                    
                                                                                                    
                                                                                                    
                                                                                                    
                                                                                                    
                                                                                                    
                                                                                                    
                                                                                                    
                                                                                                    
                                                                                                    
                                                                                                    
                                                                                                    
                           
<?xpacket end="w"?></metadata>
<defs>
    <style>
      .cls-1 {
        fill: #c79453;
        fill-rule: evenodd;
      }
    </style>
  </defs>
  <path class="cls-1" d="M316.919,808.305a2.009,2.009,0,0,1-1.13-.35c-4.059-2.825-16.575-5.851-28.737-5.851a60.952,60.952,0,0,0-11.77,1.059c-10.2,2.021-35.016,17.683-35.265,17.841a1.956,1.956,0,0,1-1.043.3,1.894,1.894,0,0,1-.309-0.025,8.8,8.8,0,0,1-6.066-3.546c-2.414-3.407-1.646-7.84-1.612-8.027a1.948,1.948,0,0,1,.729-1.2c9.813-7.553,24.429-14.709,37.234-18.228A49.941,49.941,0,0,1,318.305,805,1.948,1.948,0,0,1,316.919,808.305Zm-10.563-8.355a43.464,43.464,0,0,0-36.374-5.911,113.338,113.338,0,0,0-35.23,17.057,7.16,7.16,0,0,0,1.038,4.4,4.689,4.689,0,0,0,2.807,1.794c4.166-2.6,25.878-15.962,35.927-17.953a64.874,64.874,0,0,1,12.528-1.134,86.667,86.667,0,0,1,20.319,2.426Q306.877,800.292,306.356,799.95Zm-69.142,42.987a0.172,0.172,0,0,1,.007-0.021,0.039,0.039,0,0,1,0-.006c3.193-9.5,9.087-19.4,28.531-20.827a45.471,45.471,0,0,1,10.243.389,9.612,9.612,0,0,0,.58-2.975,1.948,1.948,0,0,1,3.893.166,14.065,14.065,0,0,1-.6,3.58,43.66,43.66,0,0,1,6.1,1.984,10.46,10.46,0,0,0,.729-3.555,1.948,1.948,0,1,1,3.893.165,14.28,14.28,0,0,1-1.075,5.028,39.385,39.385,0,0,1,4.765,2.909,11.734,11.734,0,0,0,.977-4.457,1.948,1.948,0,0,1,3.893.166,15.265,15.265,0,0,1-1.525,6.334,4.1,4.1,0,0,0,2.359.3c1.659-.358,3.411-2.272,5.679-6.209a1.948,1.948,0,0,1,3.6,1.33c-0.093.5-2.371,12.313-9.263,15.61a9.118,9.118,0,0,1-7.321.211c-2.142,3.534-8.619,10.67-26.429,12.105-1.214.1-2.427,0.147-3.605,0.147h0c-17.148,0-24.83-10.17-25.148-10.6a1.949,1.949,0,0,1-.278-1.774h0Zm28.826-16.969c-11.84.871-17.919,5.071-21.51,10.456a38.378,38.378,0,0,1,18.681-7.022h0.011c0.5-.042,1.008-0.075,1.52-0.1,2.029-.2,5.924-0.9,8.695-3.237A42.026,42.026,0,0,0,266.04,825.968Zm21.337,4.177c-0.237.254-.484,0.5-0.747,0.733a12.809,12.809,0,0,1-3.659,2.249q1.284,0.583,2.571,1.256a10.877,10.877,0,0,0,6.228-1.611A36.091,36.091,0,0,0,287.377,830.145Zm5.4,8.7c2.1,1.106,3.912,1.268,5.538.49a9.637,9.637,0,0,0,3.756-3.814,7.026,7.026,0,0,1-1.274.4,8.394,8.394,0,0,1-5.586-.932c-0.092.084-.182,0.17-0.278,0.252a12.022,12.022,0,0,1-4.1,2.268Q291.809,838.159,292.779,838.848Zm-16.6,10.666a27.429,27.429,0,0,0,9.887-4.827,14.6,14.6,0,0,0,3.208-3.53,48.621,48.621,0,0,0-13.331-6.519A12.937,12.937,0,0,1,276.182,849.514Zm7.29-21.088a39.825,39.825,0,0,0-5.4-1.608,13.288,13.288,0,0,1-3.7,3.378c0.455,0.1.911,0.216,1.367,0.336C276.518,830.558,280.554,830.577,283.472,828.426Zm-18.03,22.9a9.078,9.078,0,1,0-9.078-9.078A9.089,9.089,0,0,0,265.442,851.324Zm-9.779-.573a12.915,12.915,0,0,1-1.285-15.266,41.28,41.28,0,0,0-12.621,8.179A26.969,26.969,0,0,0,255.663,850.751Zm9.78-14.809a6.3,6.3,0,1,1-6.3,6.3A6.311,6.311,0,0,1,265.443,835.942Zm0,8.712a2.408,2.408,0,1,0-2.408-2.408A2.41,2.41,0,0,0,265.443,844.654Z" transform="translate(-230.875 -788.5)"/>
</svg>
