<svg xmlns="http://www.w3.org/2000/svg" width="42.562" height="42.59" viewBox="0 0 42.562 42.59">
  <metadata><?xpacket begin="﻿" id="W5M0MpCehiHzreSzNTczkc9d"?>
<x:xmpmeta xmlns:x="adobe:ns:meta/" x:xmptk="Adobe XMP Core 5.6-c138 79.159824, 2016/09/14-01:09:01        ">
   <rdf:RDF xmlns:rdf="http://www.w3.org/1999/02/22-rdf-syntax-ns#">
      <rdf:Description rdf:about=""/>
   </rdf:RDF>
</x:xmpmeta>
                                                                                                    
                                                                                                    
                                                                                                    
                                                                                                    
                                                                                                    
                                                                                                    
                                                                                                    
                                                                                                    
                                                                                                    
                                                                                                    
                                                                                                    
                                                                                                    
                                                                                                    
                                                                                                    
                                                                                                    
                                                                                                    
                                                                                                    
                                                                                                    
                                                                                                    
                                                                                                    
                           
<?xpacket end="w"?></metadata>
<defs>
    <style>
      .cls-1 {
        fill: #dfdfdf;
        fill-rule: evenodd;
      }
    </style>
  </defs>
  <path class="cls-1" d="M638.629,3341.97c-0.031.04-.056,0.09-0.091,0.13l-10.064,11.66a1.862,1.862,0,0,1-1.4.64,2.008,2.008,0,0,1-.637-0.11,1.835,1.835,0,0,1-1.2-1.72v-5.54a1.764,1.764,0,0,1-.2.28l-9.076,10.52a1.862,1.862,0,0,1-1.4.64,2.009,2.009,0,0,1-.638-0.11,1.836,1.836,0,0,1-1.2-1.72v-4.96a14.2,14.2,0,0,1,.922-28.28,15.724,15.724,0,0,1,29.149,8.04A15.452,15.452,0,0,1,638.629,3341.97Zm-26.7-14.63a10.582,10.582,0,1,0,9.251,18.53,15.582,15.582,0,0,1-9.821-14.43A15.393,15.393,0,0,1,611.929,3327.34Zm15.146-7.82a11.925,11.925,0,1,0,12.032,11.92A11.991,11.991,0,0,0,627.075,3319.52Zm3.028,17.37h-6.055a1.825,1.825,0,1,1,0-3.65H630.1A1.825,1.825,0,1,1,630.1,3336.89Zm0-6.23h-6.055a1.83,1.83,0,1,1,0-3.66H630.1A1.83,1.83,0,1,1,630.1,3330.66Z" transform="translate(-600.219 -3315.88)"/>
</svg>
