<svg xmlns="http://www.w3.org/2000/svg" width="35.157" height="42.63" viewBox="0 0 35.157 42.63">
  <metadata><?xpacket begin="﻿" id="W5M0MpCehiHzreSzNTczkc9d"?>
<x:xmpmeta xmlns:x="adobe:ns:meta/" x:xmptk="Adobe XMP Core 5.6-c138 79.159824, 2016/09/14-01:09:01        ">
   <rdf:RDF xmlns:rdf="http://www.w3.org/1999/02/22-rdf-syntax-ns#">
      <rdf:Description rdf:about=""/>
   </rdf:RDF>
</x:xmpmeta>
                                                                                                    
                                                                                                    
                                                                                                    
                                                                                                    
                                                                                                    
                                                                                                    
                                                                                                    
                                                                                                    
                                                                                                    
                                                                                                    
                                                                                                    
                                                                                                    
                                                                                                    
                                                                                                    
                                                                                                    
                                                                                                    
                                                                                                    
                                                                                                    
                                                                                                    
                                                                                                    
                           
<?xpacket end="w"?></metadata>
<defs>
    <style>
      .cls-1 {
        fill: #2fd6e4;
        fill-rule: evenodd;
      }
    </style>
  </defs>
  <path class="cls-1" d="M175.364,3894.42H143.123a1.457,1.457,0,0,1-1.459-1.46V3888a1.457,1.457,0,0,1,1.459-1.46h17.36a1.457,1.457,0,0,1,1.459,1.46v3.5h7.969v-10.66a7.078,7.078,0,0,0-1.874-5.25,8.488,8.488,0,0,0-5.419-2.05h-0.937l-3.65,3.66a1.452,1.452,0,0,1-2.063,0l-0.132-.13-1.7,1.7a1.477,1.477,0,0,1-2.063,0l-4.688-4.7a1.455,1.455,0,0,1,0-2.06l1.7-1.7-0.133-.13a1.467,1.467,0,0,1,0-2.07l14.029-14.04a1.452,1.452,0,0,1,2.063,0l7.015,7.02a1.467,1.467,0,0,1,0,2.07l-4.131,4.13a14.341,14.341,0,0,1,3.3,1.68c2.551,1.76,5.591,5.2,5.591,11.58v12.41A1.457,1.457,0,0,1,175.364,3894.42Zm-16.34-4.96H144.582v2.04h14.442v-2.04Zm-8.54-16.42,2.624,2.63,0.665-.67-2.624-2.63Zm18.481-10.92-4.951-4.95-11.966,11.98L157,3874.1Zm4.94,18.43c0-4.1-1.457-7.19-4.33-9.17a11.42,11.42,0,0,0-4-1.73l-1.139,1.14a10.54,10.54,0,0,1,5.624,2.7,9.854,9.854,0,0,1,2.77,7.35v10.66h1.076v-10.95Zm0.01-21.3a1.477,1.477,0,0,1-2.063,0l-4.96-4.97a1.458,1.458,0,1,1,2.063-2.06l4.96,4.96A1.467,1.467,0,0,1,173.915,3859.25Z" transform="translate(-141.656 -3851.81)"/>
</svg>
