<svg xmlns="http://www.w3.org/2000/svg" width="42.35" height="42.13" viewBox="0 0 42.35 42.13">
  <metadata><?xpacket begin="﻿" id="W5M0MpCehiHzreSzNTczkc9d"?>
<x:xmpmeta xmlns:x="adobe:ns:meta/" x:xmptk="Adobe XMP Core 5.6-c138 79.159824, 2016/09/14-01:09:01        ">
   <rdf:RDF xmlns:rdf="http://www.w3.org/1999/02/22-rdf-syntax-ns#">
      <rdf:Description rdf:about=""/>
   </rdf:RDF>
</x:xmpmeta>
                                                                                                    
                                                                                                    
                                                                                                    
                                                                                                    
                                                                                                    
                                                                                                    
                                                                                                    
                                                                                                    
                                                                                                    
                                                                                                    
                                                                                                    
                                                                                                    
                                                                                                    
                                                                                                    
                                                                                                    
                                                                                                    
                                                                                                    
                                                                                                    
                                                                                                    
                                                                                                    
                           
<?xpacket end="w"?></metadata>
<defs>
    <style>
      .cls-1 {
        fill: #fc7900;
        fill-rule: evenodd;
      }
    </style>
  </defs>
  <path class="cls-1" d="M1057.44,2266.12h-17.2a4.622,4.622,0,0,1-4.62-4.62v-9.3a2.957,2.957,0,0,0,2.09-2.79l0.51-10.12a2.939,2.939,0,0,0-1.45-2.75,4.123,4.123,0,0,0-4.08,0,2.929,2.929,0,0,0-1.46,2.75l0.52,10.12h0a2.945,2.945,0,0,0,1.99,2.76v9.33a6.513,6.513,0,0,0,6.5,6.5h17.2a4.12,4.12,0,0,1,0,8.24h-21.86a10.089,10.089,0,0,1-10.08-10.08V2252.2a2.951,2.951,0,0,0,2.07-2.79l0.52-10.12a2.939,2.939,0,0,0-1.45-2.75,4.142,4.142,0,0,0-4.09,0,2.939,2.939,0,0,0-1.45,2.75l0.52,10.12h0a2.967,2.967,0,0,0,2,2.77v13.98a11.98,11.98,0,0,0,11.96,11.96h21.86A6,6,0,0,0,1057.44,2266.12Zm-24.34-26.93a1.07,1.07,0,0,1,.55-1.04,2.275,2.275,0,0,1,2.15,0,1.07,1.07,0,0,1,.55,1.04v0.02h-3.24Zm1.63,11.27a1.085,1.085,0,0,1-1.11-1.15h0l-0.42-8.22h3.05l-0.42,8.22A1.078,1.078,0,0,1,1034.73,2250.46Zm-11.76-11.27a1.07,1.07,0,0,1,.55-1.04,2.275,2.275,0,0,1,2.15,0,1.07,1.07,0,0,1,.55,1.04v0.02h-3.25v-0.02Zm1.63,11.27a1.085,1.085,0,0,1-1.11-1.15h0l-0.42-8.22h3.05l-0.42,8.22A1.078,1.078,0,0,1,1024.6,2250.46Z" transform="translate(-1021.09 -2236)"/>
</svg>
