<svg xmlns="http://www.w3.org/2000/svg" width="45.875" height="40.44" viewBox="0 0 45.875 40.44">
  <metadata><?xpacket begin="﻿" id="W5M0MpCehiHzreSzNTczkc9d"?>
<x:xmpmeta xmlns:x="adobe:ns:meta/" x:xmptk="Adobe XMP Core 5.6-c138 79.159824, 2016/09/14-01:09:01        ">
   <rdf:RDF xmlns:rdf="http://www.w3.org/1999/02/22-rdf-syntax-ns#">
      <rdf:Description rdf:about=""/>
   </rdf:RDF>
</x:xmpmeta>
                                                                                                    
                                                                                                    
                                                                                                    
                                                                                                    
                                                                                                    
                                                                                                    
                                                                                                    
                                                                                                    
                                                                                                    
                                                                                                    
                                                                                                    
                                                                                                    
                                                                                                    
                                                                                                    
                                                                                                    
                                                                                                    
                                                                                                    
                                                                                                    
                                                                                                    
                                                                                                    
                           
<?xpacket end="w"?></metadata>
<defs>
    <style>
      .cls-1 {
        fill: #fc7900;
        fill-rule: evenodd;
      }
    </style>
  </defs>
  <path class="cls-1" d="M611.145,2048.43a1.02,1.02,0,0,1-1.017,1.02h-4.2a1.02,1.02,0,0,1,0-2.04h4.2A1.02,1.02,0,0,1,611.145,2048.43Zm21.7,1.02h4.2a1.02,1.02,0,0,0,0-2.04h-4.2A1.02,1.02,0,0,0,632.849,2049.45Zm-21,4.14h-7.64a1.024,1.024,0,0,1-.719-0.3l-1.662-1.66a1.02,1.02,0,0,1-.3-0.72v-13.12a1.02,1.02,0,0,1,.3-0.72l1.662-1.66a1.024,1.024,0,0,1,.72-0.3h7.639a1.02,1.02,0,0,1,.719.3l1.662,1.66a1.016,1.016,0,0,1,.3.72v2.8h13.927v-2.8a1.02,1.02,0,0,1,.3-0.72l1.663-1.66a1.02,1.02,0,0,1,.719-0.3h7.639a1.02,1.02,0,0,1,.719.3l1.663,1.66a1.02,1.02,0,0,1,.3.72v13.12a1.02,1.02,0,0,1-.3.72l-1.663,1.66a1.02,1.02,0,0,1-.719.3h-7.639a1.02,1.02,0,0,1-.719-0.3l-1.663-1.66a1.02,1.02,0,0,1-.3-0.72v-2.8H614.525v2.8a1.016,1.016,0,0,1-.3.72l-1.662,1.66A1.02,1.02,0,0,1,611.846,2053.59Zm18.64-3.1,1.066,1.06h6.8l1.066-1.06v-12.28l-1.066-1.07h-6.8l-1.066,1.07v12.28Zm-15.961-4.42h1.769v-1.13a1.017,1.017,0,1,1,2.034,0v1.13h1.547v-1.13a1.017,1.017,0,1,1,2.034,0v1.13h1.546v-1.13a1.017,1.017,0,1,1,2.034,0v1.13h2.963v-3.45H614.525v3.45Zm-3.1,5.48,1.066-1.06v-12.28l-1.066-1.07h-6.8l-1.067,1.07v12.28l1.067,1.06h6.8Zm35.992,8.17v13.12a1.02,1.02,0,0,1-.3.72l-1.662,1.66a1.024,1.024,0,0,1-.719.3H637.1a1.02,1.02,0,0,1-.719-0.3l-1.662-1.66a1.016,1.016,0,0,1-.3-0.72v-2.81H620.492v2.81a1.02,1.02,0,0,1-.3.72l-1.662,1.66a1.024,1.024,0,0,1-.72.3h-7.639a1.024,1.024,0,0,1-.72-0.3l-1.662-1.66a1.02,1.02,0,0,1-.3-0.72v-13.12a1.02,1.02,0,0,1,.3-0.72l1.662-1.67a1.015,1.015,0,0,1,.72-0.29h7.639a1.015,1.015,0,0,1,.72.29L620.2,2059a1.02,1.02,0,0,1,.3.72v2.8h13.927v-2.8a1.016,1.016,0,0,1,.3-0.72l1.662-1.67a1.011,1.011,0,0,1,.719-0.29h7.639a1.015,1.015,0,0,1,.72.29l1.662,1.67A1.02,1.02,0,0,1,647.417,2059.72Zm-28.959.42-1.066-1.07h-6.8l-1.066,1.07v12.28l1.066,1.06h6.8l1.066-1.06v-12.28Zm15.961,4.41H620.492V2068h1.769v-1.13a1.017,1.017,0,1,1,2.034,0V2068h1.547v-1.13a1.017,1.017,0,1,1,2.034,0V2068h1.546v-1.13a1.017,1.017,0,1,1,2.034,0V2068h2.963v-3.45Zm10.964-4.41-1.067-1.07h-6.8l-1.066,1.07v12.28l1.066,1.06h6.8l1.067-1.06v-12.28Zm-2.363,9.2h-4.2a1.02,1.02,0,0,0,0,2.04h4.2A1.02,1.02,0,0,0,643.02,2069.34Zm-26.924,0h-4.2a1.02,1.02,0,0,0,0,2.04h4.2A1.02,1.02,0,0,0,616.1,2069.34Z" transform="translate(-601.531 -2035.09)"/>
</svg>
