<svg xmlns="http://www.w3.org/2000/svg" width="60.437" height="80.687" viewBox="0 0 60.437 80.687">
  <metadata><?xpacket begin="﻿" id="W5M0MpCehiHzreSzNTczkc9d"?>
<x:xmpmeta xmlns:x="adobe:ns:meta/" x:xmptk="Adobe XMP Core 5.6-c138 79.159824, 2016/09/14-01:09:01        ">
   <rdf:RDF xmlns:rdf="http://www.w3.org/1999/02/22-rdf-syntax-ns#">
      <rdf:Description rdf:about=""/>
   </rdf:RDF>
</x:xmpmeta>
                                                                                                    
                                                                                                    
                                                                                                    
                                                                                                    
                                                                                                    
                                                                                                    
                                                                                                    
                                                                                                    
                                                                                                    
                                                                                                    
                                                                                                    
                                                                                                    
                                                                                                    
                                                                                                    
                                                                                                    
                                                                                                    
                                                                                                    
                                                                                                    
                                                                                                    
                                                                                                    
                           
<?xpacket end="w"?></metadata>
<defs>
    <style>
      .cls-1 {
        fill: #fc7900;
        fill-rule: evenodd;
      }
    </style>
  </defs>
  <path class="cls-1" d="M301.637,578.165H280.126V571.6h8.9a3.727,3.727,0,0,0,3.637-2.941h1.617a1.74,1.74,0,0,0,0-3.48h-1.617a3.725,3.725,0,0,0-3.637-2.939H284.39v-0.876a4.915,4.915,0,0,0-4.91-4.91h-1.337v-3.3H278.7a1.741,1.741,0,0,0,0-3.481h-0.561v-2.925H278.7a1.741,1.741,0,0,0,0-3.481h-0.561V506.951h4.507A7.762,7.762,0,0,1,290.4,514.7v7.836a3.726,3.726,0,0,0-2.94,3.637v11.582a3.725,3.725,0,0,0,2.94,3.637v1.617a1.74,1.74,0,1,0,3.48,0V541.4a3.726,3.726,0,0,0,2.941-3.637V526.177a3.727,3.727,0,0,0-2.941-3.637V514.7a11.246,11.246,0,0,0-11.233-11.233h-1.573a1.741,1.741,0,0,0-1.562-2.508H266.8a1.741,1.741,0,0,0-1.562,2.508h-1.573A11.247,11.247,0,0,0,252.429,514.7v7.836a3.726,3.726,0,0,0-2.94,3.637v11.582a3.725,3.725,0,0,0,2.94,3.637v1.618a1.74,1.74,0,1,0,3.48,0V541.4a3.724,3.724,0,0,0,2.94-3.637V526.177a3.724,3.724,0,0,0-2.939-3.636V514.7a7.762,7.762,0,0,1,7.753-7.753h4.507v36.311h-0.561a1.741,1.741,0,0,0,0,3.481h0.561v2.925h-0.561a1.741,1.741,0,0,0,0,3.481h0.561v3.3h-1.337a4.916,4.916,0,0,0-4.91,4.91v0.876h-4.635a3.724,3.724,0,0,0-3.637,2.939h-1.617a1.74,1.74,0,1,0,0,3.48h1.617a3.726,3.726,0,0,0,3.637,2.941h8.9v6.566H244.676a1.74,1.74,0,1,0,0,3.48h56.961A1.74,1.74,0,0,0,301.637,578.165Zm-10.693-51.988a0.245,0.245,0,0,1,.238-0.239H293.1a0.246,0.246,0,0,1,.24.239v11.582a0.246,0.246,0,0,1-.24.239h-1.922a0.244,0.244,0,0,1-.238-0.239V526.177Zm-35.575,11.582a0.244,0.244,0,0,1-.238.239h-1.923a0.244,0.244,0,0,1-.238-0.239V526.177a0.244,0.244,0,0,1,.238-0.238h1.923a0.244,0.244,0,0,1,.238.238v11.582Zm16.281-30.808h3.013v36.311H271.65V506.951Zm0,39.792h3.013v2.926H271.65v-2.926Zm0,6.406h3.013v3.3H271.65v-3.3Zm-6.247,8.214a1.431,1.431,0,0,1,1.43-1.429h12.648a1.431,1.431,0,0,1,1.429,1.429v0.876h-3.467a3.724,3.724,0,0,0-3.637,2.939h-1.3a3.724,3.724,0,0,0-3.637-2.939H265.4v-0.876Zm3.706,6.517a0.246,0.246,0,0,1-.239.239H257.288a0.246,0.246,0,0,1-.239-0.239v-1.922a0.245,0.245,0,0,1,.239-0.239H268.87a0.245,0.245,0,0,1,.239.239v1.922Zm7.537,10.285h-6.979v-6.652a3.732,3.732,0,0,0,2.84-2.854h1.3a3.732,3.732,0,0,0,2.84,2.854v6.652Zm0.8-10.046a0.246,0.246,0,0,1-.239-0.239v-1.922a0.245,0.245,0,0,1,.239-0.239h11.582a0.245,0.245,0,0,1,.239.239v1.922a0.246,0.246,0,0,1-.239.239H277.443Z" transform="translate(-242.938 -500.969)"/>
</svg>
