<svg xmlns="http://www.w3.org/2000/svg" width="45.719" height="46.59" viewBox="0 0 45.719 46.59">
  <metadata><?xpacket begin="﻿" id="W5M0MpCehiHzreSzNTczkc9d"?>
<x:xmpmeta xmlns:x="adobe:ns:meta/" x:xmptk="Adobe XMP Core 5.6-c138 79.159824, 2016/09/14-01:09:01        ">
   <rdf:RDF xmlns:rdf="http://www.w3.org/1999/02/22-rdf-syntax-ns#">
      <rdf:Description rdf:about=""/>
   </rdf:RDF>
</x:xmpmeta>
                                                                                                    
                                                                                                    
                                                                                                    
                                                                                                    
                                                                                                    
                                                                                                    
                                                                                                    
                                                                                                    
                                                                                                    
                                                                                                    
                                                                                                    
                                                                                                    
                                                                                                    
                                                                                                    
                                                                                                    
                                                                                                    
                                                                                                    
                                                                                                    
                                                                                                    
                                                                                                    
                           
<?xpacket end="w"?></metadata>
<defs>
    <style>
      .cls-1 {
        fill: #fc7900;
        fill-rule: evenodd;
      }
    </style>
  </defs>
  <path class="cls-1" d="M620.279,2265.44a6.165,6.165,0,0,1,9.929,0,1,1,0,0,1-1.612,1.19,4.156,4.156,0,0,0-6.705,0,1.009,1.009,0,0,1-.807.4A1,1,0,0,1,620.279,2265.44Zm-4.053,9.93h-2.535v-36.23h22.517v20.85a1,1,0,0,0,2,0v-20.85h4.741v2.54a1,1,0,0,0,2,0v-0.33a1,1,0,0,0,1.542-.84v-1.37h0.3a1,1,0,1,0,0-2h-0.3v-1.37a1,1,0,0,0-1.542-.84v-0.32a1,1,0,0,0-2,0v2.53H638.21v-4.46a1,1,0,0,0-2,0v4.46H613.691v-4.46a1,1,0,0,0-2,0v4.46h-4.74v-2.53a1,1,0,0,0-2,0v0.32a1,1,0,0,0-1.541.84v1.37h-0.3a1,1,0,1,0,0,2h0.3v1.37a1,1,0,0,0,1.541.84v0.33a1,1,0,0,0,2,0v-2.54h4.74v36.23h-2.535a1.005,1.005,0,0,0,0,2.01h7.072A1.005,1.005,0,0,0,616.226,2275.37Zm29.822-4.23a2.423,2.423,0,0,0,.065-0.56v-1.42a2.455,2.455,0,0,0-2.293-2.45,2.519,2.519,0,0,0,.047-0.48v-1.42a2.461,2.461,0,0,0-2.461-2.46h-5.969a1,1,0,1,0,0,2h5.969a0.465,0.465,0,0,1,.458.46v1.42a0.464,0.464,0,0,1-.458.46l-4.459.01a1,1,0,1,0,0,2h6.705a0.465,0.465,0,0,1,.459.46v1.42a0.465,0.465,0,0,1-.459.46h-7.021a1,1,0,1,0,0,2h8.706a0.465,0.465,0,0,1,.459.46v1.42a0.463,0.463,0,0,1-.459.45h-11.1a1.005,1.005,0,0,0,0,2.01h11.1a2.467,2.467,0,0,0,2.461-2.46v-1.42A2.473,2.473,0,0,0,646.048,2271.14Zm-17.64-2.05a3.164,3.164,0,1,1-3.164-3.16A3.161,3.161,0,0,1,628.408,2269.09Zm-2,0a1.161,1.161,0,1,0-1.161,1.16A1.162,1.162,0,0,0,626.405,2269.09Zm8.033,0a9.194,9.194,0,1,1-9.194-9.19A9.21,9.21,0,0,1,634.438,2269.09Zm-2,0a7.192,7.192,0,1,0-7.192,7.19A7.2,7.2,0,0,0,632.436,2269.09Zm-2.44,2.25a1.006,1.006,0,0,0-1.4.22,4.169,4.169,0,0,1-6.7,0,1,1,0,1,0-1.612,1.18,6.164,6.164,0,0,0,9.928,0A1,1,0,0,0,630,2271.34Z" transform="translate(-602.094 -2231.69)"/>
</svg>
