<svg xmlns="http://www.w3.org/2000/svg" width="56.594" height="69.562" viewBox="0 0 56.594 69.562">
  <metadata><?xpacket begin="﻿" id="W5M0MpCehiHzreSzNTczkc9d"?>
<x:xmpmeta xmlns:x="adobe:ns:meta/" x:xmptk="Adobe XMP Core 5.6-c138 79.159824, 2016/09/14-01:09:01        ">
   <rdf:RDF xmlns:rdf="http://www.w3.org/1999/02/22-rdf-syntax-ns#">
      <rdf:Description rdf:about=""/>
   </rdf:RDF>
</x:xmpmeta>
                                                                                                    
                                                                                                    
                                                                                                    
                                                                                                    
                                                                                                    
                                                                                                    
                                                                                                    
                                                                                                    
                                                                                                    
                                                                                                    
                                                                                                    
                                                                                                    
                                                                                                    
                                                                                                    
                                                                                                    
                                                                                                    
                                                                                                    
                                                                                                    
                                                                                                    
                                                                                                    
                           
<?xpacket end="w"?></metadata>
<defs>
    <style>
      .cls-1 {
        fill: #fc7900;
        fill-rule: evenodd;
      }
    </style>
  </defs>
  <path class="cls-1" d="M299.783,672.771H299.46V657.689a14.025,14.025,0,0,0-14.01-14.01H263.867a14.025,14.025,0,0,0-14.009,14.01V660.3h-0.342a4.794,4.794,0,0,0-4.789,4.789v26.753a4.794,4.794,0,0,0,4.789,4.789h0.342v2.615a14.025,14.025,0,0,0,14.009,14.01H285.45a14.026,14.026,0,0,0,14.01-14.01V684.166h0.323a1.542,1.542,0,0,0,1.542-1.542v-8.311A1.542,1.542,0,0,0,299.783,672.771ZM285.45,646.763a10.939,10.939,0,0,1,10.926,10.926v15.082H285.5V657.689a13.58,13.58,0,0,0-3.039-8.536,14.632,14.632,0,0,0-2.414-2.39h5.4Zm-32.508,10.926a10.938,10.938,0,0,1,10.925-10.926h5.27a13.944,13.944,0,0,0-5.319,10.926V660.3H252.942v-2.614Zm-3.426,35.862a1.707,1.707,0,0,1-1.7-1.705V665.092a1.707,1.707,0,0,1,1.7-1.705h18.442a1.707,1.707,0,0,1,1.7,1.705v26.753a1.706,1.706,0,0,1-1.7,1.7H249.516Zm14.351,16.624a10.938,10.938,0,0,1-10.925-10.926v-2.614h10.876v2.614a13.073,13.073,0,0,0,3.141,8.353,15.907,15.907,0,0,0,2.695,2.573h-5.787Zm10.826-.707c-3.944-1.489-7.79-5.376-7.79-10.219v-2.614h1.055a4.794,4.794,0,0,0,4.789-4.789V682.3a1.543,1.543,0,0,0,1.709-1.533v-4.595a1.542,1.542,0,0,0-1.542-1.542c-0.056,0-.112,0-0.167.009v-9.546a4.794,4.794,0,0,0-4.789-4.789H266.9v-2.614a10.92,10.92,0,0,1,7.718-10.387,11.237,11.237,0,0,1,7.794,10.387v15.082h-0.7a1.542,1.542,0,0,0-1.542,1.542v8.312a1.542,1.542,0,0,0,1.542,1.542h0.7v15.082C282.415,704.112,278.61,707.988,274.693,709.468Zm21.682-10.219a10.938,10.938,0,0,1-10.925,10.926h-5.73a15.672,15.672,0,0,0,2.661-2.556,13.143,13.143,0,0,0,3.118-8.37V684.167h10.876v15.082h0Zm1.866-18.166H283.254v-5.228h14.987v5.228Zm-35.271-9.5a5.32,5.32,0,0,0-4.233.361,5.314,5.314,0,0,0-7.564,6.375c0.56,1.657,2.954,3.823,5.57,6.082,0.395,0.342.737,0.637,0.949,0.833a1.545,1.545,0,0,0,2.09,0c0.212-.2.553-0.49,0.948-0.831,2.616-2.261,5.011-4.427,5.571-6.084A5.313,5.313,0,0,0,262.97,671.58Zm0.41,5.748c-0.336.991-3.549,3.772-4.643,4.717-1.092-.943-4.307-3.726-4.642-4.717a2.229,2.229,0,0,1,3.608-2.367,1.542,1.542,0,0,0,2.067,0A2.23,2.23,0,0,1,263.38,677.328Z" transform="translate(-244.719 -643.688)"/>
</svg>
