<svg xmlns="http://www.w3.org/2000/svg" width="74.281" height="74.282" viewBox="0 0 74.281 74.282">
  <metadata><?xpacket begin="﻿" id="W5M0MpCehiHzreSzNTczkc9d"?>
<x:xmpmeta xmlns:x="adobe:ns:meta/" x:xmptk="Adobe XMP Core 5.6-c138 79.159824, 2016/09/14-01:09:01        ">
   <rdf:RDF xmlns:rdf="http://www.w3.org/1999/02/22-rdf-syntax-ns#">
      <rdf:Description rdf:about=""/>
   </rdf:RDF>
</x:xmpmeta>
                                                                                                    
                                                                                                    
                                                                                                    
                                                                                                    
                                                                                                    
                                                                                                    
                                                                                                    
                                                                                                    
                                                                                                    
                                                                                                    
                                                                                                    
                                                                                                    
                                                                                                    
                                                                                                    
                                                                                                    
                                                                                                    
                                                                                                    
                                                                                                    
                                                                                                    
                                                                                                    
                           
<?xpacket end="w"?></metadata>
<defs>
    <style>
      .cls-1 {
        fill: #fc7900;
        fill-rule: evenodd;
      }
    </style>
  </defs>
  <path class="cls-1" d="M289.322,841.144L299.2,826.26a1.646,1.646,0,0,1,2.744,1.82l-9.874,14.884A1.646,1.646,0,0,1,289.322,841.144Zm21.859-35.584v44.149h1.165a1.646,1.646,0,0,1,1.646,1.646v5.8a1.646,1.646,0,0,1-1.646,1.646H241.36a1.646,1.646,0,0,1-1.646-1.646v-5.8a1.646,1.646,0,0,1,1.646-1.646h1.165V805.556l-1.16,0h0a1.646,1.646,0,0,1-1.646-1.646V795.04a1.646,1.646,0,0,1,1.641-1.646l18.739-.055v-7.172a1.646,1.646,0,0,1,1.646-1.646h30.225a1.645,1.645,0,0,1,1.646,1.646v7.227h18.735a1.646,1.646,0,0,1,1.646,1.646v8.874a1.646,1.646,0,0,1-1.646,1.646h-1.165Zm-19.216,3.563h-5.68v7.595h21.6V805.56H293.611v1.916A1.647,1.647,0,0,1,291.965,809.123Zm-5.68,10.887v29.7h21.6v-29.7h-21.6Zm-22.9-14.18h26.932V787.813H263.387V805.83Zm19.606,10.888v-7.595h-12.28v7.595h12.28Zm-12.28,3.292v29.7h12.28v-29.7h-12.28Zm-10.619-12.534v-1.971l-14.277.042v11.171h21.6v-7.595H261.74A1.647,1.647,0,0,1,260.094,807.476ZM245.817,820.01v29.7h21.6v-29.7h-21.6Zm-2.811-17.747,17.088-.05v-5.581l-17.088.05v5.581ZM310.7,853H243.006v2.5H310.7V853Zm0-56.314H293.611v5.581H310.7v-5.581Zm-61.178,40.4a1.645,1.645,0,0,0,2.282-.461l4.639-6.993a1.646,1.646,0,0,0-2.743-1.821l-4.64,6.993A1.647,1.647,0,0,0,249.521,837.091Zm52.294-4.5-4.639,6.993a1.646,1.646,0,1,0,2.743,1.82l4.639-6.993A1.646,1.646,0,1,0,301.815,832.594Zm-15.506-33.672v-4.2a1.645,1.645,0,0,0-1.646-1.646l-0.108,0a1.646,1.646,0,0,0-3.267.289v1.808h-8.87v-1.809a1.647,1.647,0,0,0-3.268-.288c-0.035,0-.071,0-0.108,0a1.646,1.646,0,0,0-1.646,1.647v4.2a1.646,1.646,0,0,0,1.646,1.646c0.037,0,.073,0,0.108,0a1.647,1.647,0,0,0,3.268-.289v-1.807h8.87v1.808a1.646,1.646,0,0,0,3.267.289l0.108,0A1.646,1.646,0,0,0,286.309,798.922Zm-34.169,44.5a1.647,1.647,0,0,0,2.282-.462L264.3,828.08a1.646,1.646,0,1,0-2.743-1.82l-9.874,14.883A1.646,1.646,0,0,0,252.14,843.425Zm22.491-2.372a1.647,1.647,0,0,0,1.646-1.647v-5.8a1.647,1.647,0,0,0-3.293,0v5.8A1.647,1.647,0,0,0,274.631,841.053Z" transform="translate(-239.719 -784.531)"/>
</svg>
