<svg xmlns="http://www.w3.org/2000/svg" width="43.94" height="42.62" viewBox="0 0 43.94 42.62">
  <metadata><?xpacket begin="﻿" id="W5M0MpCehiHzreSzNTczkc9d"?>
<x:xmpmeta xmlns:x="adobe:ns:meta/" x:xmptk="Adobe XMP Core 5.6-c138 79.159824, 2016/09/14-01:09:01        ">
   <rdf:RDF xmlns:rdf="http://www.w3.org/1999/02/22-rdf-syntax-ns#">
      <rdf:Description rdf:about=""/>
   </rdf:RDF>
</x:xmpmeta>
                                                                                                    
                                                                                                    
                                                                                                    
                                                                                                    
                                                                                                    
                                                                                                    
                                                                                                    
                                                                                                    
                                                                                                    
                                                                                                    
                                                                                                    
                                                                                                    
                                                                                                    
                                                                                                    
                                                                                                    
                                                                                                    
                                                                                                    
                                                                                                    
                                                                                                    
                                                                                                    
                           
<?xpacket end="w"?></metadata>
<defs>
    <style>
      .cls-1 {
        fill: #fc7900;
        fill-rule: evenodd;
      }
    </style>
  </defs>
  <path class="cls-1" d="M1053.12,2065.35a6.03,6.03,0,1,0-6.02-6.03A6.037,6.037,0,0,0,1053.12,2065.35Zm0-10.11a4.08,4.08,0,1,1-4.08,4.08A4.093,4.093,0,0,1,1053.12,2055.24Zm10.58,17.3h-3.22v-0.09a0.971,0.971,0,0,0-.97-0.97h-2.15l-0.95-1.06a11.576,11.576,0,1,0-7.71-21.8c-1.07.41-2.28,0.84-3.57,1.3l1.82-7.18h3.15a0.975,0.975,0,0,0,0-1.95h-7.81a0.975,0.975,0,0,0,0,1.95h2.65l-2.01,7.93c-0.79.27-1.6,0.55-2.43,0.83-5.63,1.91-12.01,4.08-15.83,6.01v-10.25l2.14-4.32,2.3,0.73a0.976,0.976,0,0,0,.59-1.86l-4.33-1.36-1.83-7.82a0.976,0.976,0,0,0-1.9.45l1.96,8.33a0.914,0.914,0,0,0,.67.73l0.67,0.21-2.12,4.25a1.043,1.043,0,0,0-.1.43v11.91a7.074,7.074,0,0,0,2.6,11.5l-0.93,1.04h-2.15a0.971,0.971,0,0,0-.97.97,0.784,0.784,0,0,0,.02.22,0.956,0.956,0,0,0-.5.85,0.971,0.971,0,0,0,.97.97h41.94A0.975,0.975,0,0,0,1063.7,2072.54Zm-41-8.71a5.117,5.117,0,0,1,1.6-3.72,0.284,0.284,0,0,0,.1-0.09,5.034,5.034,0,0,1,1.11-.75c3.69-1.88,10.03-4.03,15.62-5.93,3.06-1.04,5.95-2.02,8.28-2.9a0.038,0.038,0,0,0,.02-0.02,9.632,9.632,0,1,1,3.69,18.53h-25.3A5.13,5.13,0,0,1,1022.7,2063.83Zm31.64,7.65a0.98,0.98,0,0,0-.98.97c0,0.03.01,0.06,0.01,0.09h-24.99v-0.09a0.971,0.971,0,0,0-.97-0.97H1027l0.53-.59c0.1,0,.19.01,0.29,0.01h25.3c0.36,0,.71-0.02,1.06-0.05l0.57,0.63h-0.41Z" transform="translate(-1020.75 -2031.88)"/>
</svg>
