<svg xmlns="http://www.w3.org/2000/svg" width="42.657" height="40.12" viewBox="0 0 42.657 40.12">
  <metadata><?xpacket begin="﻿" id="W5M0MpCehiHzreSzNTczkc9d"?>
<x:xmpmeta xmlns:x="adobe:ns:meta/" x:xmptk="Adobe XMP Core 5.6-c138 79.159824, 2016/09/14-01:09:01        ">
   <rdf:RDF xmlns:rdf="http://www.w3.org/1999/02/22-rdf-syntax-ns#">
      <rdf:Description rdf:about=""/>
   </rdf:RDF>
</x:xmpmeta>
                                                                                                    
                                                                                                    
                                                                                                    
                                                                                                    
                                                                                                    
                                                                                                    
                                                                                                    
                                                                                                    
                                                                                                    
                                                                                                    
                                                                                                    
                                                                                                    
                                                                                                    
                                                                                                    
                                                                                                    
                                                                                                    
                                                                                                    
                                                                                                    
                                                                                                    
                                                                                                    
                           
<?xpacket end="w"?></metadata>
<defs>
    <style>
      .cls-1 {
        fill: #2fd6e4;
        fill-rule: evenodd;
      }
    </style>
  </defs>
  <path class="cls-1" d="M174.3,3673.79H144.155a6.257,6.257,0,0,1-6.253-6.25v-22.52a1.44,1.44,0,0,1,1.446-1.44h1.04v-8.49a1.448,1.448,0,0,1,1.446-1.45h34.792a1.449,1.449,0,0,1,1.446,1.45v13.45h1.039a1.449,1.449,0,0,1,1.446,1.45v17.55A6.256,6.256,0,0,1,174.3,3673.79Zm0.876-37.26h-31.9v7.05h8.5a1.446,1.446,0,0,1,1.293.8l2.086,4.16H175.18v-12.01Zm2.485,14.91H154.259a1.447,1.447,0,0,1-1.293-.8l-2.086-4.17H140.794v21.07a3.366,3.366,0,0,0,3.361,3.36H174.3a3.366,3.366,0,0,0,3.361-3.36v-16.1ZM163.3,3662.28h-2.62v2.62a1.446,1.446,0,1,1-2.892,0v-2.62h-2.621a1.445,1.445,0,1,1,0-2.89h2.621v-2.62a1.446,1.446,0,0,1,2.892,0v2.62h2.62A1.445,1.445,0,1,1,163.3,3662.28Zm-9.037-21.21h-4.97a1.015,1.015,0,0,1,0-2.03h4.97A1.015,1.015,0,0,1,154.259,3641.07Zm4.971-2.03h12.425a1.015,1.015,0,0,1,0,2.03H159.23A1.015,1.015,0,0,1,159.23,3639.04Zm0,4.97h12.425a1.01,1.01,0,1,1,0,2.02H159.23A1.01,1.01,0,1,1,159.23,3644.01Z" transform="translate(-137.906 -3633.66)"/>
</svg>
