<svg xmlns="http://www.w3.org/2000/svg" width="74.657" height="64.656" viewBox="0 0 74.657 64.656">
  <metadata><?xpacket begin="﻿" id="W5M0MpCehiHzreSzNTczkc9d"?>
<x:xmpmeta xmlns:x="adobe:ns:meta/" x:xmptk="Adobe XMP Core 5.6-c138 79.159824, 2016/09/14-01:09:01        ">
   <rdf:RDF xmlns:rdf="http://www.w3.org/1999/02/22-rdf-syntax-ns#">
      <rdf:Description rdf:about=""/>
   </rdf:RDF>
</x:xmpmeta>
                                                                                                    
                                                                                                    
                                                                                                    
                                                                                                    
                                                                                                    
                                                                                                    
                                                                                                    
                                                                                                    
                                                                                                    
                                                                                                    
                                                                                                    
                                                                                                    
                                                                                                    
                                                                                                    
                                                                                                    
                                                                                                    
                                                                                                    
                                                                                                    
                                                                                                    
                                                                                                    
                           
<?xpacket end="w"?></metadata>
<defs>
    <style>
      .cls-1 {
        fill: #2fd6e4;
        fill-rule: evenodd;
      }
    </style>
  </defs>
  <path class="cls-1" d="M291.631,789.618a19.936,19.936,0,0,0-17.4,10.234,19.92,19.92,0,0,0-37.327,9.7,35.287,35.287,0,0,0,5.827,18.939,60.6,60.6,0,0,0,12.478,13.876,90.049,90.049,0,0,0,17.962,11.683,2.525,2.525,0,0,0,2.161-.02,94.615,94.615,0,0,0,17.933-11.958,62.508,62.508,0,0,0,12.461-13.894,34.6,34.6,0,0,0,5.831-18.626A19.952,19.952,0,0,0,291.631,789.618Zm-34.8,5.047a14.9,14.9,0,0,1,14.88,14.889,2.522,2.522,0,1,0,5.044,0,14.88,14.88,0,1,1,29.76,0,27.081,27.081,0,0,1-2.219,10.536H291.873l-3.382-10.151a2.521,2.521,0,0,0-4.734-.139l-5.828,14.577-1.444-2.892a2.522,2.522,0,0,0-4.649.33l-1.564,4.695-5.52-16.571a2.521,2.521,0,0,0-4.785,0l-3.382,10.151h-12.5a27.946,27.946,0,0,1-2.134-10.536A14.9,14.9,0,0,1,256.827,794.665ZM274.2,848.934a88.309,88.309,0,0,1-15.843-10.506,55.182,55.182,0,0,1-11.741-13.29H258.4a2.523,2.523,0,0,0,2.393-1.726l1.563-4.694,5.521,16.571a2.521,2.521,0,0,0,4.785,0l2.031-6.1,1.233,2.468a2.522,2.522,0,0,0,4.6-.191l5.356-13.4,1.779,5.341a2.521,2.521,0,0,0,2.392,1.726h11.611C293.721,837.912,278.389,846.7,274.2,848.934Z" transform="translate(-236.906 -789.625)"/>
</svg>
