<svg xmlns="http://www.w3.org/2000/svg" xmlns:xlink="http://www.w3.org/1999/xlink" width="12.031" height="12" viewBox="0 0 12.031 12">
  <metadata><?xpacket begin="﻿" id="W5M0MpCehiHzreSzNTczkc9d"?>
<x:xmpmeta xmlns:x="adobe:ns:meta/" x:xmptk="Adobe XMP Core 5.6-c138 79.159824, 2016/09/14-01:09:01        ">
   <rdf:RDF xmlns:rdf="http://www.w3.org/1999/02/22-rdf-syntax-ns#">
      <rdf:Description rdf:about=""/>
   </rdf:RDF>
</x:xmpmeta>
                                                                                                    
                                                                                                    
                                                                                                    
                                                                                                    
                                                                                                    
                                                                                                    
                                                                                                    
                                                                                                    
                                                                                                    
                                                                                                    
                                                                                                    
                                                                                                    
                                                                                                    
                                                                                                    
                                                                                                    
                                                                                                    
                                                                                                    
                                                                                                    
                                                                                                    
                                                                                                    
                           
<?xpacket end="w"?></metadata>
<defs>
    <style>
      .cls-1 {
        fill: #fff;
        fill-rule: evenodd;
        filter: url(#filter);
      }
    </style>
    <filter id="filter" x="255" y="12052" width="12.031" height="12" filterUnits="userSpaceOnUse">
      <feFlood result="flood" flood-color="#888"/>
      <feComposite result="composite" operator="in" in2="SourceGraphic"/>
      <feBlend result="blend" in2="SourceGraphic"/>
    </filter>
  </defs>
  <path class="cls-1" d="M265.835,12064h-9.618a1.179,1.179,0,0,1-1.2-1.2v-9.6a1.179,1.179,0,0,1,1.2-1.2h9.618a1.178,1.178,0,0,1,1.2,1.2v9.6A1.178,1.178,0,0,1,265.835,12064Zm-8.671-6.8h-0.947v4.8a0.766,0.766,0,0,0,.8.8h8.016a0.766,0.766,0,0,0,.8-0.8v-4.8h-1.061a4.628,4.628,0,0,1,.091.8,3.9,3.9,0,1,1-7.791,0A4.614,4.614,0,0,1,257.164,12057.2Zm3.805-1.2a2.035,2.035,0,0,0-2.063,2,2.064,2.064,0,1,0,4.127,0A2.036,2.036,0,0,0,260.969,12056Zm3.551-2.9a1.408,1.408,0,0,0-1.448,1.4,1.449,1.449,0,1,0,2.9,0A1.408,1.408,0,0,0,264.52,12053.1Z" transform="translate(-255 -12052)"/>
</svg>
