<svg xmlns="http://www.w3.org/2000/svg" width="67.688" height="94.157" viewBox="0 0 67.688 94.157">
  <metadata><?xpacket begin="﻿" id="W5M0MpCehiHzreSzNTczkc9d"?>
<x:xmpmeta xmlns:x="adobe:ns:meta/" x:xmptk="Adobe XMP Core 5.6-c138 79.159824, 2016/09/14-01:09:01        ">
   <rdf:RDF xmlns:rdf="http://www.w3.org/1999/02/22-rdf-syntax-ns#">
      <rdf:Description rdf:about=""/>
   </rdf:RDF>
</x:xmpmeta>
                                                                                                    
                                                                                                    
                                                                                                    
                                                                                                    
                                                                                                    
                                                                                                    
                                                                                                    
                                                                                                    
                                                                                                    
                                                                                                    
                                                                                                    
                                                                                                    
                                                                                                    
                                                                                                    
                                                                                                    
                                                                                                    
                                                                                                    
                                                                                                    
                                                                                                    
                                                                                                    
                           
<?xpacket end="w"?></metadata>
<defs>
    <style>
      .cls-1 {
        fill: #c79453;
        fill-rule: evenodd;
      }
    </style>
  </defs>
  <path class="cls-1" d="M301.96,542.936a2.146,2.146,0,0,1,2.145,2.147v49.2a2.146,2.146,0,0,1-2.145,2.147h-63.4a2.146,2.146,0,0,1-2.146-2.147v-49.2a2.146,2.146,0,0,1,2.146-2.147h10.1v-1.2h-10.1a2.146,2.146,0,0,1-2.146-2.147V504.428a2.146,2.146,0,0,1,2.146-2.147h63.4a2.146,2.146,0,0,1,2.145,2.147v35.163a2.146,2.146,0,0,1-2.145,2.147h-10.1v1.2h10.1Zm-2.146-5.491v-30.87H240.705v30.87h59.109Zm-46.862,4.293v1.2h34.616v-1.2H252.952Zm-12.247,5.491V592.14h59.109V547.229H240.705Zm52.385,29.1H247.43a2.146,2.146,0,0,1-2.146-2.147V555.06a2.146,2.146,0,0,1,2.146-2.147h45.66a2.146,2.146,0,0,1,2.146,2.147v19.124A2.146,2.146,0,0,1,293.09,576.331Zm-16.983-19.124H249.575v14.83h26.532v-14.83Zm14.838,0H280.4v14.831h10.547V557.207Zm-32.7,20.039a8.278,8.278,0,0,1,5.432,1.973h21.433a4.969,4.969,0,0,1,0,9.937H263.672a8.278,8.278,0,0,1-5.432,1.972c-4.3,0-7.79-3.113-7.79-6.94S253.944,577.246,258.24,577.246Zm7.753,7.617h19.112a0.676,0.676,0,0,0,0-1.351H265.993A6.185,6.185,0,0,1,265.993,584.863Zm-7.753,1.972c1.9,0,3.5-1.212,3.5-2.647s-1.6-2.648-3.5-2.648-3.5,1.213-3.5,2.648S256.343,586.835,258.24,586.835Zm-12.684-77.221h25.367a2.147,2.147,0,0,1,0,4.293H247.7v6.671a2.146,2.146,0,1,1-4.291,0v-8.817A2.146,2.146,0,0,1,245.556,509.614Z" transform="translate(-236.406 -502.281)"/>
</svg>
