<svg xmlns="http://www.w3.org/2000/svg" width="43.437" height="39.91" viewBox="0 0 43.437 39.91">
  <metadata><?xpacket begin="﻿" id="W5M0MpCehiHzreSzNTczkc9d"?>
<x:xmpmeta xmlns:x="adobe:ns:meta/" x:xmptk="Adobe XMP Core 5.6-c138 79.159824, 2016/09/14-01:09:01        ">
   <rdf:RDF xmlns:rdf="http://www.w3.org/1999/02/22-rdf-syntax-ns#">
      <rdf:Description rdf:about=""/>
   </rdf:RDF>
</x:xmpmeta>
                                                                                                    
                                                                                                    
                                                                                                    
                                                                                                    
                                                                                                    
                                                                                                    
                                                                                                    
                                                                                                    
                                                                                                    
                                                                                                    
                                                                                                    
                                                                                                    
                                                                                                    
                                                                                                    
                                                                                                    
                                                                                                    
                                                                                                    
                                                                                                    
                                                                                                    
                                                                                                    
                           
<?xpacket end="w"?></metadata>
<defs>
    <style>
      .cls-1 {
        fill: #f0524f;
        fill-rule: evenodd;
      }
    </style>
  </defs>
  <path class="cls-1" d="M642.687,2055.02h-2.8l-5.575-14.8a1.584,1.584,0,0,0-1.482-1.03h-3.222v-3.52a1.583,1.583,0,0,0-1.583-1.58h-10.94a1.582,1.582,0,0,0-1.582,1.58v3.52h-3.223a1.582,1.582,0,0,0-1.481,1.03l-5.576,14.8h-2.8a1.58,1.58,0,1,0,0,3.16h2.8l5.576,14.8a1.582,1.582,0,0,0,1.481,1.03h20.551a1.582,1.582,0,0,0,1.481-1.03l5.576-14.8h2.8A1.58,1.58,0,1,0,642.687,2055.02Zm-24.018-17.76h7.775v1.93h-7.775v-1.93Zm-5.293,5.1h18.361l4.769,12.66h-4.4l-2.6-6.89a1.573,1.573,0,0,0-1.481-1.02h-10.94a1.575,1.575,0,0,0-1.481,1.02l-2.6,6.89h-4.4Zm10.5,7.91v4.75h-2.647v-4.75h2.647Zm-5.179,4.75h-2.308l1.788-4.75h0.52v4.75Zm0,3.16v4.75h-0.52l-1.788-4.75H618.7Zm2.532,0h2.647v4.75h-2.647v-4.75Zm5.179,0h2.308l-1.789,4.75h-0.519v-4.75h0Zm0-3.16v-4.75h0.519l1.789,4.75h-2.308Zm5.325,15.82H613.376l-4.769-12.66h4.4l2.6,6.89a1.574,1.574,0,0,0,1.481,1.02h10.941a1.575,1.575,0,0,0,1.481-1.02l2.594-6.89h4.4Z" transform="translate(-600.844 -2034.09)"/>
</svg>
