<svg xmlns="http://www.w3.org/2000/svg" width="44" height="44" viewBox="0 0 44 44">
  <metadata><?xpacket begin="﻿" id="W5M0MpCehiHzreSzNTczkc9d"?>
<x:xmpmeta xmlns:x="adobe:ns:meta/" x:xmptk="Adobe XMP Core 5.6-c138 79.159824, 2016/09/14-01:09:01        ">
   <rdf:RDF xmlns:rdf="http://www.w3.org/1999/02/22-rdf-syntax-ns#">
      <rdf:Description rdf:about=""/>
   </rdf:RDF>
</x:xmpmeta>
                                                                                                    
                                                                                                    
                                                                                                    
                                                                                                    
                                                                                                    
                                                                                                    
                                                                                                    
                                                                                                    
                                                                                                    
                                                                                                    
                                                                                                    
                                                                                                    
                                                                                                    
                                                                                                    
                                                                                                    
                                                                                                    
                                                                                                    
                                                                                                    
                                                                                                    
                                                                                                    
                           
<?xpacket end="w"?></metadata>
<defs>
    <style>
      .cls-1 {
        fill: #f0524f;
        fill-rule: evenodd;
      }
    </style>
  </defs>
  <path class="cls-1" d="M1061.41,2240.98l-6.47-6.47a1.481,1.481,0,0,0-2.1,2.09l0.55,0.55-6.12,6.13-1.42-1.42a1.473,1.473,0,0,0-2.1,0l-18.93,18.94a4.937,4.937,0,0,0,0,6.97l0.63,0.63-7.17,7.17a1.485,1.485,0,0,0,2.1,2.1l7.17-7.18,0.63,0.63a4.913,4.913,0,0,0,6.95,0l18.94-18.94a1.527,1.527,0,0,0,.43-1.05,1.508,1.508,0,0,0-.43-1.05l-1.42-1.42,6.12-6.13,0.55,0.55a1.463,1.463,0,0,0,1.04.44A1.49,1.49,0,0,0,1061.41,2240.98Zm-28.37,28.05a1.968,1.968,0,0,1-2.77,0l-3.35-3.36a1.95,1.95,0,0,1,0-2.77l1.76-1.77,1.59,1.6a1.061,1.061,0,0,0,.74.3,1.035,1.035,0,0,0,.73-1.77l-1.59-1.59,1.82-1.83,1.59,1.6a1.05,1.05,0,0,0,1.47,0,1.05,1.05,0,0,0,0-1.47l-1.59-1.59,1.82-1.82,1.59,1.59a1.038,1.038,0,0,0,.73.3,1.021,1.021,0,0,0,.73-0.3,1.032,1.032,0,0,0,0-1.47l-1.59-1.59,1.51-1.51,6.12,6.13Zm13.41-13.42-6.13-6.13,4.48-4.48,6.12,6.13Zm4.1-9.05-1.19-1.19,6.12-6.12,1.2,1.19Z" transform="translate(-1017.88 -2234.09)"/>
</svg>
