<svg xmlns="http://www.w3.org/2000/svg" width="37.22" height="37.22" viewBox="0 0 37.22 37.22">
  <metadata><?xpacket begin="﻿" id="W5M0MpCehiHzreSzNTczkc9d"?>
<x:xmpmeta xmlns:x="adobe:ns:meta/" x:xmptk="Adobe XMP Core 5.6-c138 79.159824, 2016/09/14-01:09:01        ">
   <rdf:RDF xmlns:rdf="http://www.w3.org/1999/02/22-rdf-syntax-ns#">
      <rdf:Description rdf:about=""/>
   </rdf:RDF>
</x:xmpmeta>
                                                                                                    
                                                                                                    
                                                                                                    
                                                                                                    
                                                                                                    
                                                                                                    
                                                                                                    
                                                                                                    
                                                                                                    
                                                                                                    
                                                                                                    
                                                                                                    
                                                                                                    
                                                                                                    
                                                                                                    
                                                                                                    
                                                                                                    
                                                                                                    
                                                                                                    
                                                                                                    
                           
<?xpacket end="w"?></metadata>
<defs>
    <style>
      .cls-1 {
        fill: #f0524f;
        fill-rule: evenodd;
      }
    </style>
  </defs>
  <path class="cls-1" d="M1051.84,2073.52h-26.27a5.471,5.471,0,0,1-5.47-5.47v-19.59a5.646,5.646,0,0,1,5.64-5.64h3.03v-1.8a4.7,4.7,0,0,1,4.7-4.7h10.47a4.692,4.692,0,0,1,4.69,4.7v1.8h3.03a5.646,5.646,0,0,1,5.64,5.64v19.59A5.469,5.469,0,0,1,1051.84,2073.52Zm-5.73-32.5a2.17,2.17,0,0,0-2.17-2.18h-10.47a2.179,2.179,0,0,0-2.18,2.18v1.8h14.82v-1.8Zm8.67,7.44a3.124,3.124,0,0,0-3.12-3.12h-25.92a3.124,3.124,0,0,0-3.12,3.12v0.86h32.16v-0.86Zm-25.65,3.38v1.82h1.81v-1.82h-1.81Zm17.34,0v1.82h1.81v-1.82h-1.81Zm8.31,0h-3.98v3.08a1.261,1.261,0,0,1-1.26,1.26h-4.33a1.27,1.27,0,0,1-1.27-1.26v-3.08h-10.48v3.08a1.261,1.261,0,0,1-1.26,1.26h-4.33a1.27,1.27,0,0,1-1.27-1.26v-3.08h-3.98v16.21a2.949,2.949,0,0,0,2.95,2.95h26.27a2.947,2.947,0,0,0,2.94-2.95h0v-16.21Zm-13.12,11.63h-1.7v1.7a1.26,1.26,0,1,1-2.52,0v-1.7h-1.69a1.26,1.26,0,0,1,0-2.52h1.69v-1.7a1.26,1.26,0,1,1,2.52,0v1.7h1.7A1.26,1.26,0,0,1,1041.66,2063.47Z" transform="translate(-1020.09 -2036.31)"/>
</svg>
