<svg xmlns="http://www.w3.org/2000/svg" width="49.062" height="39.84" viewBox="0 0 49.062 39.84">
  <metadata><?xpacket begin="﻿" id="W5M0MpCehiHzreSzNTczkc9d"?>
<x:xmpmeta xmlns:x="adobe:ns:meta/" x:xmptk="Adobe XMP Core 5.6-c138 79.159824, 2016/09/14-01:09:01        ">
   <rdf:RDF xmlns:rdf="http://www.w3.org/1999/02/22-rdf-syntax-ns#">
      <rdf:Description rdf:about=""/>
   </rdf:RDF>
</x:xmpmeta>
                                                                                                    
                                                                                                    
                                                                                                    
                                                                                                    
                                                                                                    
                                                                                                    
                                                                                                    
                                                                                                    
                                                                                                    
                                                                                                    
                                                                                                    
                                                                                                    
                                                                                                    
                                                                                                    
                                                                                                    
                                                                                                    
                                                                                                    
                                                                                                    
                                                                                                    
                                                                                                    
                           
<?xpacket end="w"?></metadata>
<defs>
    <style>
      .cls-1 {
        fill: #f0524f;
        fill-rule: evenodd;
      }
    </style>
  </defs>
  <path class="cls-1" d="M643.839,2259.48a5.93,5.93,0,1,1,5.927-5.93A5.935,5.935,0,0,1,643.839,2259.48Zm0-8.57a2.64,2.64,0,1,0,2.642,2.64A2.641,2.641,0,0,0,643.839,2250.91Zm-11.519-.19a6.405,6.405,0,1,1,6.4-6.4A6.408,6.408,0,0,1,632.32,2250.72Zm0-9.52a3.12,3.12,0,1,0,3.119,3.12A3.123,3.123,0,0,0,632.32,2241.2Zm-1.69,12.34a8.069,8.069,0,0,1,7.653,6.28,10.964,10.964,0,0,1-1.716,8.71c-2.067,3.29-5.616,6.32-10.548,9.01a1.578,1.578,0,0,1-1.573,0c-4.931-2.69-8.479-5.72-10.544-9.01a10.966,10.966,0,0,1-1.715-8.71,8.067,8.067,0,0,1,7.651-6.28,7.4,7.4,0,0,1,5.4,2.38A7.523,7.523,0,0,1,630.63,2253.54Zm-5.4,6.71h0a1.642,1.642,0,0,1-1.4-.79,4.785,4.785,0,0,0-3.99-2.64,4.855,4.855,0,0,0-4.468,3.81c-0.422,1.65-.916,7.43,9.862,13.59,10.783-6.16,10.29-11.94,9.868-13.59a4.857,4.857,0,0,0-4.47-3.81,4.787,4.787,0,0,0-3.993,2.64A1.643,1.643,0,0,1,625.232,2260.25Zm-7.082-9.53a6.405,6.405,0,1,1,6.4-6.4A6.409,6.409,0,0,1,618.15,2250.72Zm0-9.52a3.12,3.12,0,1,0,3.118,3.12A3.123,3.123,0,0,0,618.15,2241.2Zm-11.52,18.28a5.93,5.93,0,1,1,5.926-5.93A5.935,5.935,0,0,1,606.63,2259.48Zm0-8.57a2.64,2.64,0,1,0,2.642,2.64A2.641,2.641,0,0,0,606.63,2250.91Z" transform="translate(-600.719 -2237.91)"/>
</svg>
