<svg xmlns="http://www.w3.org/2000/svg" width="60.719" height="60.875" viewBox="0 0 60.719 60.875">
  <metadata><?xpacket begin="﻿" id="W5M0MpCehiHzreSzNTczkc9d"?>
<x:xmpmeta xmlns:x="adobe:ns:meta/" x:xmptk="Adobe XMP Core 5.6-c138 79.159824, 2016/09/14-01:09:01        ">
   <rdf:RDF xmlns:rdf="http://www.w3.org/1999/02/22-rdf-syntax-ns#">
      <rdf:Description rdf:about=""/>
   </rdf:RDF>
</x:xmpmeta>
                                                                                                    
                                                                                                    
                                                                                                    
                                                                                                    
                                                                                                    
                                                                                                    
                                                                                                    
                                                                                                    
                                                                                                    
                                                                                                    
                                                                                                    
                                                                                                    
                                                                                                    
                                                                                                    
                                                                                                    
                                                                                                    
                                                                                                    
                                                                                                    
                                                                                                    
                                                                                                    
                           
<?xpacket end="w"?></metadata>
<defs>
    <style>
      .cls-1 {
        fill: #f0524f;
        fill-rule: evenodd;
      }
    </style>
  </defs>
  <path class="cls-1" d="M272.956,705.226a30.4,30.4,0,0,1-30.371-30.369V647.136a2.809,2.809,0,0,1,3.861-2.605l10.774,4.347a30.392,30.392,0,0,1,31.472,0l10.772-4.347a2.809,2.809,0,0,1,3.86,2.605v27.721A30.4,30.4,0,0,1,272.956,705.226Zm24.749-31.084h-8.6a2.248,2.248,0,0,1,0-4.5h8.6V651.3l-8.257,3.332a2.808,2.808,0,0,1-2.628-.279,24.754,24.754,0,0,0-27.729,0,2.814,2.814,0,0,1-2.628.279L248.2,651.3v18.349h8.6a2.248,2.248,0,1,1,0,4.5h-8.6v0.714c0,0.7.036,1.387,0.093,2.07h13.318a2.248,2.248,0,1,1,0,4.5H249.094a24.62,24.62,0,0,0,.95,2.786h6.76a2.248,2.248,0,0,1,0,4.5h-4.355a24.733,24.733,0,0,0,41.011,0h-4.354a2.248,2.248,0,1,1,0-4.5h6.76a24.683,24.683,0,0,0,.949-2.786H284.3a2.248,2.248,0,1,1,0-4.5h13.317c0.057-.684.093-1.372,0.093-2.07v-0.715Zm-24.749,8.186a5.562,5.562,0,0,1-5.557-5.555,0.75,0.75,0,0,1,.749-0.749h9.613a0.749,0.749,0,0,1,.749.749A5.56,5.56,0,0,1,272.956,682.328Z" transform="translate(-242.594 -644.344)"/>
</svg>
