<svg xmlns="http://www.w3.org/2000/svg" width="54.343" height="68.281" viewBox="0 0 54.343 68.281">
  <metadata><?xpacket begin="﻿" id="W5M0MpCehiHzreSzNTczkc9d"?>
<x:xmpmeta xmlns:x="adobe:ns:meta/" x:xmptk="Adobe XMP Core 5.6-c138 79.159824, 2016/09/14-01:09:01        ">
   <rdf:RDF xmlns:rdf="http://www.w3.org/1999/02/22-rdf-syntax-ns#">
      <rdf:Description rdf:about=""/>
   </rdf:RDF>
</x:xmpmeta>
                                                                                                    
                                                                                                    
                                                                                                    
                                                                                                    
                                                                                                    
                                                                                                    
                                                                                                    
                                                                                                    
                                                                                                    
                                                                                                    
                                                                                                    
                                                                                                    
                                                                                                    
                                                                                                    
                                                                                                    
                                                                                                    
                                                                                                    
                                                                                                    
                                                                                                    
                                                                                                    
                           
<?xpacket end="w"?></metadata>
<defs>
    <style>
      .cls-1 {
        fill: #f0524f;
        fill-rule: evenodd;
      }
    </style>
  </defs>
  <path class="cls-1" d="M297.088,855.293H248.37a2.832,2.832,0,0,1-2.815-3.144l4.863-43.849a2.831,2.831,0,0,1,2.814-2.52h4.144v-3.429a15.35,15.35,0,1,1,30.7,0v3.429h4.143a2.832,2.832,0,0,1,2.814,2.52l4.839,43.638A2.835,2.835,0,0,1,297.088,855.293Zm-14.675-52.942a9.687,9.687,0,1,0-19.373,0v3.429h19.373v-3.429Zm7.271,9.093H255.767l-4.234,38.185h42.385Zm-28.137,13.583a2.959,2.959,0,1,1-2.959,2.958A2.961,2.961,0,0,1,261.547,825.027Zm6.6-6.7a3.266,3.266,0,1,1-3.267,3.266A3.27,3.27,0,0,1,268.145,818.326Zm4.58,8.971A7.726,7.726,0,1,1,265,835.022,7.734,7.734,0,0,1,272.725,827.3Zm4.581-2.439a3.267,3.267,0,1,1,3.266-3.267A3.271,3.271,0,0,1,277.306,824.858Zm6.6,0.169a2.959,2.959,0,1,1-2.958,2.958A2.962,2.962,0,0,1,283.9,825.027Z" transform="translate(-245.563 -787)"/>
</svg>
