<svg xmlns="http://www.w3.org/2000/svg" width="68.156" height="59.407" viewBox="0 0 68.156 59.407">
  <metadata><?xpacket begin="﻿" id="W5M0MpCehiHzreSzNTczkc9d"?>
<x:xmpmeta xmlns:x="adobe:ns:meta/" x:xmptk="Adobe XMP Core 5.6-c138 79.159824, 2016/09/14-01:09:01        ">
   <rdf:RDF xmlns:rdf="http://www.w3.org/1999/02/22-rdf-syntax-ns#">
      <rdf:Description rdf:about=""/>
   </rdf:RDF>
</x:xmpmeta>
                                                                                                    
                                                                                                    
                                                                                                    
                                                                                                    
                                                                                                    
                                                                                                    
                                                                                                    
                                                                                                    
                                                                                                    
                                                                                                    
                                                                                                    
                                                                                                    
                                                                                                    
                                                                                                    
                                                                                                    
                                                                                                    
                                                                                                    
                                                                                                    
                                                                                                    
                                                                                                    
                           
<?xpacket end="w"?></metadata>
<defs>
    <style>
      .cls-1 {
        fill: #f0524f;
        fill-rule: evenodd;
      }
    </style>
  </defs>
  <path class="cls-1" d="M298.535,537.388a8.7,8.7,0,1,1,8.7-8.7A8.708,8.708,0,0,1,298.535,537.388Zm0-12.576a3.878,3.878,0,1,0,3.879,3.879A3.883,3.883,0,0,0,298.535,524.812Zm-14.977-1.24a9.4,9.4,0,1,1,9.4-9.4A9.407,9.407,0,0,1,283.558,523.572Zm0-13.973a4.577,4.577,0,1,0,4.577,4.577A4.582,4.582,0,0,0,283.558,509.6Zm9.119,35.068a19.519,19.519,0,1,1-19.519-19.519A19.542,19.542,0,0,1,292.677,544.667Zm-19.519-14.7a14.7,14.7,0,1,0,14.7,14.7A14.715,14.715,0,0,0,273.158,529.969Zm6.8,17.768h-3.729v3.729a0.8,0.8,0,0,1-.8.8h-4.532a0.8,0.8,0,0,1-.8-0.8v-3.729H266.36a0.8,0.8,0,0,1-.8-0.8V542.4a0.8,0.8,0,0,1,.8-0.8h3.729v-3.729a0.8,0.8,0,0,1,.8-0.8h4.532a0.8,0.8,0,0,1,.8.8V541.6h3.729a0.8,0.8,0,0,1,.8.8v4.532A0.8,0.8,0,0,1,279.957,547.737Zm-17.2-24.165a9.4,9.4,0,1,1,9.4-9.4A9.407,9.407,0,0,1,262.76,523.572Zm0-13.973a4.577,4.577,0,1,0,4.577,4.577A4.582,4.582,0,0,0,262.76,509.6Zm-6.28,19.092a8.7,8.7,0,1,1-8.7-8.7A8.707,8.707,0,0,1,256.48,528.691Zm-8.7-3.879a3.878,3.878,0,1,0,3.878,3.879A3.883,3.883,0,0,0,247.781,524.812Z" transform="translate(-239.094 -504.781)"/>
</svg>
