<svg xmlns="http://www.w3.org/2000/svg" width="24.16" height="19.13" viewBox="0 0 24.16 19.13">
  <metadata><?xpacket begin="﻿" id="W5M0MpCehiHzreSzNTczkc9d"?>
<x:xmpmeta xmlns:x="adobe:ns:meta/" x:xmptk="Adobe XMP Core 5.6-c138 79.159824, 2016/09/14-01:09:01        ">
   <rdf:RDF xmlns:rdf="http://www.w3.org/1999/02/22-rdf-syntax-ns#">
      <rdf:Description rdf:about=""/>
   </rdf:RDF>
</x:xmpmeta>
                                                                                                    
                                                                                                    
                                                                                                    
                                                                                                    
                                                                                                    
                                                                                                    
                                                                                                    
                                                                                                    
                                                                                                    
                                                                                                    
                                                                                                    
                                                                                                    
                                                                                                    
                                                                                                    
                                                                                                    
                                                                                                    
                                                                                                    
                                                                                                    
                                                                                                    
                                                                                                    
                           
<?xpacket end="w"?></metadata>
<defs>
    <style>
      .cls-1 {
        fill: #2c2c2c;
        fill-rule: evenodd;
      }
    </style>
  </defs>
  <path class="cls-1" d="M1101.94,1174.37h-2.72v2.7h-1.25v-2.7h-2.71v-1.25h2.71v-2.73h1.25v2.73h2.72v1.25Zm-13.37,3.23a2.885,2.885,0,1,1-2.88,2.88,2.814,2.814,0,0,1,.39-1.43l-3.98-2.75a2.955,2.955,0,0,1-1.44.39,2.885,2.885,0,0,1,0-5.77,2.79,2.79,0,0,1,1.44.38l3.98-2.72a2.814,2.814,0,0,1-.39-1.43,2.9,2.9,0,1,1,1.45,2.49l-3.97,2.73a2.851,2.851,0,0,1,.39,1.44,2.814,2.814,0,0,1-.39,1.43l3.97,2.75A2.888,2.888,0,0,1,1088.57,1177.6Zm0.02,4.28a1.375,1.375,0,1,0-1.38-1.38A1.368,1.368,0,0,0,1088.59,1181.88Zm-7.93-9.45a1.381,1.381,0,0,0-1.37,1.38A1.375,1.375,0,1,0,1080.66,1172.43Zm7.93-3.93a1.375,1.375,0,1,0-1.38-1.37A1.366,1.366,0,0,0,1088.59,1168.5Z" transform="translate(-1077.78 -1164.25)"/>
</svg>
