<svg xmlns="http://www.w3.org/2000/svg" width="54.281" height="73.531" viewBox="0 0 54.281 73.531">
  <metadata><?xpacket begin="﻿" id="W5M0MpCehiHzreSzNTczkc9d"?>
<x:xmpmeta xmlns:x="adobe:ns:meta/" x:xmptk="Adobe XMP Core 5.6-c138 79.159824, 2016/09/14-01:09:01        ">
   <rdf:RDF xmlns:rdf="http://www.w3.org/1999/02/22-rdf-syntax-ns#">
      <rdf:Description rdf:about=""/>
   </rdf:RDF>
</x:xmpmeta>
                                                                                                    
                                                                                                    
                                                                                                    
                                                                                                    
                                                                                                    
                                                                                                    
                                                                                                    
                                                                                                    
                                                                                                    
                                                                                                    
                                                                                                    
                                                                                                    
                                                                                                    
                                                                                                    
                                                                                                    
                                                                                                    
                                                                                                    
                                                                                                    
                                                                                                    
                                                                                                    
                           
<?xpacket end="w"?></metadata>
<defs>
    <style>
      .cls-1 {
        fill: #2fd6e4;
        fill-rule: evenodd;
      }
    </style>
  </defs>
  <path class="cls-1" d="M285.175,704.4l12.569,2.512a2.489,2.489,0,0,1,.707,4.625,47.869,47.869,0,0,1-14.252,4.336,66.9,66.9,0,0,1-10.672.836,79.4,79.4,0,0,1-26.138-4.582,2.489,2.489,0,0,1,.252-4.776s9.474-2.264,12.647-2.951c1.506-.326,2.635-2.219,2.78-3.817H248.477a2.49,2.49,0,0,1-2.474-2.2c-2.156-18.515,2.61-27.244,4.157-29.526l-4.467-19.975a2.491,2.491,0,0,1,1.887-2.973,114.669,114.669,0,0,1,49.691,0,2.489,2.489,0,0,1,1.887,2.973l-4.467,19.975c1.547,2.282,6.313,11.011,4.157,29.526a2.489,2.489,0,0,1-2.473,2.2H282.4C282.54,702.177,283.664,704.093,285.175,704.4ZM250.724,695.6H258.8a32.2,32.2,0,0,1-2.175-2.928,38.191,38.191,0,0,1-5.349-12.769A55.809,55.809,0,0,0,250.724,695.6Zm27.924-23.384a2.487,2.487,0,0,1,2.512-.786,2.418,2.418,0,0,1,1.762,1.878c0.1,0.327,1.08,3.28,5.7,5.864a26.628,26.628,0,0,0,.711-5.864,18.4,18.4,0,0,0-.188-2.945,89.063,89.063,0,0,0-33.445,0,18.4,18.4,0,0,0-.188,2.945,26.819,26.819,0,0,0,.777,6.154C271.845,679.46,278.377,672.513,278.648,672.217ZM251.1,650.249l3.415,15.271a94.07,94.07,0,0,1,35.813,0l3.415-15.271A109.79,109.79,0,0,0,251.1,650.249ZM294.127,695.6a55.867,55.867,0,0,0-.552-15.711,38.186,38.186,0,0,1-5.352,12.783,32.2,32.2,0,0,1-2.175,2.928h8.079Zm-10.061-5.672a32.444,32.444,0,0,0,3.056-5.919,19.357,19.357,0,0,1-7.431-6.178c-3.486,2.523-10.508,6.254-21.795,6.584a32.232,32.232,0,0,0,2.889,5.513c3.375,5.109,7.618,8.039,11.64,8.039S280.691,695.038,284.066,689.929Zm-6.6,12.091a14.105,14.105,0,0,1-9.487.2,8.486,8.486,0,0,1-6.667,7.046l-3.179.742a65.23,65.23,0,0,0,29.8.011l-3.727-.745A8.485,8.485,0,0,1,277.461,702.02Zm-0.769-43.482h-1.776v1.775a2.491,2.491,0,0,1-4.981,0v-1.775h-1.776a2.49,2.49,0,1,1,0-4.979h1.776v-1.775a2.491,2.491,0,0,1,4.981,0v1.775h1.776A2.49,2.49,0,1,1,276.692,658.538Z" transform="translate(-245.469 -643.188)"/>
</svg>
