<svg xmlns="http://www.w3.org/2000/svg" width="72.718" height="74.5" viewBox="0 0 72.718 74.5">
  <metadata><?xpacket begin="﻿" id="W5M0MpCehiHzreSzNTczkc9d"?>
<x:xmpmeta xmlns:x="adobe:ns:meta/" x:xmptk="Adobe XMP Core 5.6-c138 79.159824, 2016/09/14-01:09:01        ">
   <rdf:RDF xmlns:rdf="http://www.w3.org/1999/02/22-rdf-syntax-ns#">
      <rdf:Description rdf:about=""/>
   </rdf:RDF>
</x:xmpmeta>
                                                                                                    
                                                                                                    
                                                                                                    
                                                                                                    
                                                                                                    
                                                                                                    
                                                                                                    
                                                                                                    
                                                                                                    
                                                                                                    
                                                                                                    
                                                                                                    
                                                                                                    
                                                                                                    
                                                                                                    
                                                                                                    
                                                                                                    
                                                                                                    
                                                                                                    
                                                                                                    
                           
<?xpacket end="w"?></metadata>
<defs>
    <style>
      .cls-1 {
        fill: #93c63e;
        fill-rule: evenodd;
      }
    </style>
  </defs>
  <path class="cls-1" d="M301.123,544.947a2.5,2.5,0,0,1-1-3.388,30.8,30.8,0,0,0,3.648-12.244H242.291a30.837,30.837,0,0,0,25.613,27.9,2.5,2.5,0,0,1-.41,4.96,2.543,2.543,0,0,1-.415-0.034,35.83,35.83,0,0,1-29.887-35.322,2.5,2.5,0,0,1,2.5-2.5h66.684a2.5,2.5,0,0,1,2.5,2.5,35.842,35.842,0,0,1-4.361,17.135A2.5,2.5,0,0,1,301.123,544.947ZM287.7,519.756a2.5,2.5,0,0,1-3.833-3.206,3.072,3.072,0,0,0,0-3.952,8.063,8.063,0,0,1,0-10.365,2.5,2.5,0,0,1,3.833,3.206,3.072,3.072,0,0,0,0,3.952A8.06,8.06,0,0,1,287.7,519.756Zm-12.754,0a2.5,2.5,0,0,1-3.832-3.206,3.075,3.075,0,0,0,0-3.953,8.059,8.059,0,0,1,0-10.364,2.5,2.5,0,0,1,3.832,3.206,3.074,3.074,0,0,0,0,3.952A8.06,8.06,0,0,1,274.949,519.756Zm-12.754,0a2.5,2.5,0,0,1-3.832-3.206,3.075,3.075,0,0,0,0-3.953,8.059,8.059,0,0,1,0-10.364,2.5,2.5,0,0,1,3.832,3.206,3.074,3.074,0,0,0,0,3.952A8.06,8.06,0,0,1,262.2,519.756Zm17.136,27.455a12.683,12.683,0,0,1,2.155.211,12.465,12.465,0,0,1-.213-2.153,8.9,8.9,0,0,1,17.8,0,12.558,12.558,0,0,1-.212,2.153,12.662,12.662,0,0,1,2.154-.211,8.893,8.893,0,1,1,0,17.786,12.568,12.568,0,0,1-2.154-.212,12.567,12.567,0,0,1,.212,2.153,8.9,8.9,0,0,1-17.8,0,12.475,12.475,0,0,1,.213-2.153,12.589,12.589,0,0,1-2.155.212A8.893,8.893,0,1,1,279.331,547.211Zm19.463,12.457a9.752,9.752,0,0,0,2.222.335,3.9,3.9,0,1,0,0-7.8,9.752,9.752,0,0,0-2.222.335A9.3,9.3,0,0,1,298.794,559.668Zm-8.62-18.3a3.905,3.905,0,0,0-3.9,3.9,9.756,9.756,0,0,0,.336,2.221,9.315,9.315,0,0,1,7.134,0,9.744,9.744,0,0,0,.335-2.221A3.905,3.905,0,0,0,290.174,541.37Zm0,29.467a3.905,3.905,0,0,0,3.9-3.9,9.737,9.737,0,0,0-.335-2.22,9.327,9.327,0,0,1-7.134,0,9.748,9.748,0,0,0-.336,2.22A3.905,3.905,0,0,0,290.174,570.837Zm0-10.4a4.329,4.329,0,1,0-4.333-4.329A4.335,4.335,0,0,0,290.174,560.433ZM279.331,560a9.752,9.752,0,0,0,2.222-.335,9.3,9.3,0,0,1,0-7.128,9.752,9.752,0,0,0-2.222-.335A3.9,3.9,0,1,0,279.331,560Z" transform="translate(-237.188 -501.344)"/>
</svg>
