<svg xmlns="http://www.w3.org/2000/svg" width="68.5" height="66.594" viewBox="0 0 68.5 66.594">
  <metadata><?xpacket begin="﻿" id="W5M0MpCehiHzreSzNTczkc9d"?>
<x:xmpmeta xmlns:x="adobe:ns:meta/" x:xmptk="Adobe XMP Core 5.6-c138 79.159824, 2016/09/14-01:09:01        ">
   <rdf:RDF xmlns:rdf="http://www.w3.org/1999/02/22-rdf-syntax-ns#">
      <rdf:Description rdf:about=""/>
   </rdf:RDF>
</x:xmpmeta>
                                                                                                    
                                                                                                    
                                                                                                    
                                                                                                    
                                                                                                    
                                                                                                    
                                                                                                    
                                                                                                    
                                                                                                    
                                                                                                    
                                                                                                    
                                                                                                    
                                                                                                    
                                                                                                    
                                                                                                    
                                                                                                    
                                                                                                    
                                                                                                    
                                                                                                    
                                                                                                    
                           
<?xpacket end="w"?></metadata>
<defs>
    <style>
      .cls-1 {
        fill: #93c63e;
        fill-rule: evenodd;
      }
    </style>
  </defs>
  <path class="cls-1" d="M293.487,709.618c-6.275,2.459-14.564,3.813-23.339,3.813s-17.065-1.354-23.34-3.813c-7.032-2.756-10.9-6.719-10.9-11.161s3.873-8.4,10.905-11.16c6.275-2.459,14.564-3.813,23.339-3.813s17.065,1.354,23.34,3.813c7.032,2.756,10.906,6.719,10.906,11.16S300.52,706.862,293.487,709.618Zm-1.868-17.558c-5.694-2.231-13.32-3.46-21.472-3.46s-15.777,1.229-21.471,3.46c-4.722,1.85-7.656,4.3-7.656,6.4s2.934,4.547,7.656,6.4c5.694,2.232,13.32,3.46,21.472,3.46s15.777-1.228,21.471-3.46c4.722-1.85,7.655-4.3,7.655-6.4S296.341,693.91,291.619,692.06Zm1.238-7.36a2.559,2.559,0,1,1-2.649-4.378c2.054-1.242,3.232-2.621,3.232-3.785,0-3.291-9.074-8.07-23.293-8.07s-23.292,4.779-23.292,8.07c0,1.164,1.178,2.543,3.232,3.785a2.559,2.559,0,1,1-2.649,4.378c-4.711-2.849-5.7-6.011-5.7-8.163,0-3.944,3.252-7.453,9.157-9.881a57.728,57.728,0,0,1,38.5,0c5.906,2.428,9.158,5.937,9.158,9.881C298.558,678.689,297.569,681.851,292.857,684.7ZM284.9,663.213A2.559,2.559,0,1,1,281.99,659a3.161,3.161,0,0,0,1.647-2.1c0-.682-0.844-1.874-3.225-2.987a27.9,27.9,0,0,0-20.529,0c-2.38,1.113-3.225,2.3-3.225,2.987a3.164,3.164,0,0,0,1.647,2.1,2.559,2.559,0,0,1-2.909,4.21c-3.187-2.2-3.856-4.646-3.856-6.309,0-3.053,2.193-5.759,6.175-7.621a32.906,32.906,0,0,1,24.865,0c3.982,1.861,6.175,4.568,6.175,7.621C288.755,658.567,288.086,661.013,284.9,663.213Z" transform="translate(-235.906 -646.844)"/>
</svg>
