<svg xmlns="http://www.w3.org/2000/svg" width="41.625" height="42.63" viewBox="0 0 41.625 42.63">
  <metadata><?xpacket begin="﻿" id="W5M0MpCehiHzreSzNTczkc9d"?>
<x:xmpmeta xmlns:x="adobe:ns:meta/" x:xmptk="Adobe XMP Core 5.6-c138 79.159824, 2016/09/14-01:09:01        ">
   <rdf:RDF xmlns:rdf="http://www.w3.org/1999/02/22-rdf-syntax-ns#">
      <rdf:Description rdf:about=""/>
   </rdf:RDF>
</x:xmpmeta>
                                                                                                    
                                                                                                    
                                                                                                    
                                                                                                    
                                                                                                    
                                                                                                    
                                                                                                    
                                                                                                    
                                                                                                    
                                                                                                    
                                                                                                    
                                                                                                    
                                                                                                    
                                                                                                    
                                                                                                    
                                                                                                    
                                                                                                    
                                                                                                    
                                                                                                    
                                                                                                    
                           
<?xpacket end="w"?></metadata>
<defs>
    <style>
      .cls-1 {
        fill: #93c63e;
        fill-rule: evenodd;
      }
    </style>
  </defs>
  <path class="cls-1" d="M637.916,2259.98a1.429,1.429,0,0,1-.57-1.94,17.579,17.579,0,0,0,2.088-7H604.243A17.643,17.643,0,0,0,618.9,2267a1.43,1.43,0,0,1-.234,2.84,0.962,0.962,0,0,1-.238-0.02,20.5,20.5,0,0,1-17.107-20.21,1.431,1.431,0,0,1,1.431-1.43h38.168a1.43,1.43,0,0,1,1.43,1.43,20.5,20.5,0,0,1-2.5,9.8A1.423,1.423,0,0,1,637.916,2259.98Zm-7.681-14.42a1.429,1.429,0,0,1-1.1.52,1.4,1.4,0,0,1-.918-0.34,1.425,1.425,0,0,1-.178-2.01,1.756,1.756,0,0,0,0-2.26,4.624,4.624,0,0,1,0-5.94,1.431,1.431,0,0,1,2.193,1.84,1.756,1.756,0,0,0,0,2.26A4.608,4.608,0,0,1,630.235,2245.56Zm-7.3,0a1.427,1.427,0,0,1-1.1.52,1.4,1.4,0,0,1-.918-0.34,1.425,1.425,0,0,1-.178-2.01,1.756,1.756,0,0,0,0-2.26,4.624,4.624,0,0,1,0-5.94,1.431,1.431,0,0,1,2.193,1.84,1.756,1.756,0,0,0,0,2.26A4.608,4.608,0,0,1,622.935,2245.56Zm-7.3,0a1.427,1.427,0,0,1-1.1.52,1.4,1.4,0,0,1-.918-0.34,1.425,1.425,0,0,1-.178-2.01,1.756,1.756,0,0,0,0-2.26,4.624,4.624,0,0,1,0-5.94,1.432,1.432,0,0,1,2.194,1.84,1.755,1.755,0,0,0,0,2.26A4.609,4.609,0,0,1,615.635,2245.56Zm9.809,15.72a7.039,7.039,0,0,1,1.233.12,7.1,7.1,0,0,1-.122-1.23,5.095,5.095,0,0,1,10.189,0,7.1,7.1,0,0,1-.122,1.23,7.041,7.041,0,0,1,1.234-.12,5.09,5.09,0,1,1,0,10.18,7.041,7.041,0,0,1-1.234-.12,7.1,7.1,0,0,1,.122,1.23,5.095,5.095,0,0,1-10.189,0,7.1,7.1,0,0,1,.122-1.23,7.039,7.039,0,0,1-1.233.12A5.09,5.09,0,1,1,625.444,2261.28Zm11.14,7.13a5.55,5.55,0,0,0,1.272.19,2.23,2.23,0,1,0,0-4.46,5.55,5.55,0,0,0-1.272.19A5.328,5.328,0,0,1,636.584,2268.41Zm-4.934-10.47a2.234,2.234,0,0,0-2.234,2.23,5.58,5.58,0,0,0,.192,1.27,5.288,5.288,0,0,1,4.083,0,5.58,5.58,0,0,0,.192-1.27A2.234,2.234,0,0,0,631.65,2257.94Zm0,16.86a2.234,2.234,0,0,0,2.233-2.23,5.5,5.5,0,0,0-.192-1.27,5.288,5.288,0,0,1-4.083,0,5.5,5.5,0,0,0-.192,1.27A2.234,2.234,0,0,0,631.65,2274.8Zm0-5.95a2.48,2.48,0,1,0-2.48-2.48A2.481,2.481,0,0,0,631.65,2268.85Zm-6.206-.25a5.55,5.55,0,0,0,1.271-.19,5.328,5.328,0,0,1,0-4.08,5.55,5.55,0,0,0-1.271-.19A2.23,2.23,0,1,0,625.444,2268.6Z" transform="translate(-601.313 -2235.03)"/>
</svg>
