<svg xmlns="http://www.w3.org/2000/svg" width="42.906" height="46.38" viewBox="0 0 42.906 46.38">
  <metadata><?xpacket begin="﻿" id="W5M0MpCehiHzreSzNTczkc9d"?>
<x:xmpmeta xmlns:x="adobe:ns:meta/" x:xmptk="Adobe XMP Core 5.6-c138 79.159824, 2016/09/14-01:09:01        ">
   <rdf:RDF xmlns:rdf="http://www.w3.org/1999/02/22-rdf-syntax-ns#">
      <rdf:Description rdf:about=""/>
   </rdf:RDF>
</x:xmpmeta>
                                                                                                    
                                                                                                    
                                                                                                    
                                                                                                    
                                                                                                    
                                                                                                    
                                                                                                    
                                                                                                    
                                                                                                    
                                                                                                    
                                                                                                    
                                                                                                    
                                                                                                    
                                                                                                    
                                                                                                    
                                                                                                    
                                                                                                    
                                                                                                    
                                                                                                    
                                                                                                    
                           
<?xpacket end="w"?></metadata>
<defs>
    <style>
      .cls-1 {
        fill: #93c63e;
        fill-rule: evenodd;
      }
    </style>
  </defs>
  <path class="cls-1" d="M636.739,2061.17a20.651,20.651,0,0,1-5.113,3.51,13.036,13.036,0,0,1,2.234,6.86,1.453,1.453,0,0,1-1.409,1.51c-0.147.01-.3,0.01-0.463,0.01a13.011,13.011,0,0,1-5.567-1.25,21.041,21.041,0,0,1-3.5,4.65,1.458,1.458,0,0,1-2.068,0,21.041,21.041,0,0,1-3.5-4.65,13.01,13.01,0,0,1-5.566,1.25c-0.165,0-.316,0-0.463-0.01a1.453,1.453,0,0,1-1.41-1.51,13.045,13.045,0,0,1,2.234-6.86,20.823,20.823,0,0,1-11.713-18,1.469,1.469,0,0,1,1.411-1.52,20.68,20.68,0,0,1,6.533.81,20.688,20.688,0,0,1,1.473-6.42,1.465,1.465,0,0,1,1.9-.81,20.962,20.962,0,0,1,5.387,3.19,20.738,20.738,0,0,1,3.713-5.04,1.458,1.458,0,0,1,2.068,0,20.742,20.742,0,0,1,3.714,5.04,20.906,20.906,0,0,1,5.386-3.19,1.464,1.464,0,0,1,1.9.81,20.659,20.659,0,0,1,1.473,6.42,20.69,20.69,0,0,1,6.534-.81,1.468,1.468,0,0,1,1.41,1.52A20.682,20.682,0,0,1,636.739,2061.17Zm-5.982,8.89a10.089,10.089,0,0,0-1.934-4.26,20.67,20.67,0,0,1-4.432.88A10.1,10.1,0,0,0,630.757,2070.06Zm-8.873,3.2a17.474,17.474,0,0,0,2.048-3,13.079,13.079,0,0,1-2.048-2.02,13.036,13.036,0,0,1-2.048,2.02A17.474,17.474,0,0,0,621.884,2073.26Zm-2.506-6.58a20.67,20.67,0,0,1-4.432-.88,10.09,10.09,0,0,0-1.935,4.26A10.1,10.1,0,0,0,619.378,2066.68ZM603.47,2048.1a17.9,17.9,0,0,0,16.835,15.71A17.9,17.9,0,0,0,603.47,2048.1Zm13.124-2.72a17.814,17.814,0,0,0-4.549-3.29,17.643,17.643,0,0,0-.79,4.95,20.976,20.976,0,0,1,10.579,11.07c0-.02,0-0.04,0-0.07A17.975,17.975,0,0,0,616.594,2045.38Zm5.29-5.29a17.709,17.709,0,0,0-2.529,3.95,20.607,20.607,0,0,1,2.529,3.44,20.607,20.607,0,0,1,2.529-3.44A17.638,17.638,0,0,0,621.884,2040.09Zm9.838,2a17.749,17.749,0,0,0-8.261,8.73,20.562,20.562,0,0,1,.86,2.98,21.127,21.127,0,0,1,2.7-3.06,20.879,20.879,0,0,1,5.49-3.7A17.643,17.643,0,0,0,631.722,2042.09Zm-2.706,10.79a17.752,17.752,0,0,0-5.554,10.93A17.9,17.9,0,0,0,640.3,2048.1,17.681,17.681,0,0,0,629.016,2052.88Zm3.55-16.52a1.476,1.476,0,0,1-1.035-.42,1.491,1.491,0,0,1-.427-1.04,1.467,1.467,0,0,1,.427-1.03,1.458,1.458,0,0,1,2.068,0,1.465,1.465,0,0,1,.429,1.03,1.489,1.489,0,0,1-.429,1.04A1.473,1.473,0,0,1,632.566,2036.36Zm-10.682-2.92a1.485,1.485,0,0,1-1.034-.43,1.465,1.465,0,0,1,0-2.07,1.462,1.462,0,0,1,2.5,1.04,1.468,1.468,0,0,1-.428,1.03A1.485,1.485,0,0,1,621.884,2033.44Zm-10.682,2.92a1.473,1.473,0,0,1-1.034-.42,1.492,1.492,0,0,1-.428-1.04,1.462,1.462,0,0,1,2.924,0,1.492,1.492,0,0,1-.428,1.04A1.473,1.473,0,0,1,611.2,2036.36Z" transform="translate(-600.438 -2030.5)"/>
</svg>
