<svg xmlns="http://www.w3.org/2000/svg" width="49.15" height="36.93" viewBox="0 0 49.15 36.93">
  <metadata><?xpacket begin="﻿" id="W5M0MpCehiHzreSzNTczkc9d"?>
<x:xmpmeta xmlns:x="adobe:ns:meta/" x:xmptk="Adobe XMP Core 5.6-c138 79.159824, 2016/09/14-01:09:01        ">
   <rdf:RDF xmlns:rdf="http://www.w3.org/1999/02/22-rdf-syntax-ns#">
      <rdf:Description rdf:about=""/>
   </rdf:RDF>
</x:xmpmeta>
                                                                                                    
                                                                                                    
                                                                                                    
                                                                                                    
                                                                                                    
                                                                                                    
                                                                                                    
                                                                                                    
                                                                                                    
                                                                                                    
                                                                                                    
                                                                                                    
                                                                                                    
                                                                                                    
                                                                                                    
                                                                                                    
                                                                                                    
                                                                                                    
                                                                                                    
                                                                                                    
                           
<?xpacket end="w"?></metadata>
<defs>
    <style>
      .cls-1 {
        fill: #93c63e;
        fill-rule: evenodd;
      }
    </style>
  </defs>
  <path class="cls-1" d="M1063.87,2071.06h-34.79a20.255,20.255,0,0,1-11.98-3.9,1.675,1.675,0,0,1,1.97-2.71,16.92,16.92,0,0,0,10.01,3.26h34.79A1.675,1.675,0,1,1,1063.87,2071.06Zm-4.78-10.54-29.3,6.39a1.447,1.447,0,0,1-.35.04,1.68,1.68,0,0,1-.36-3.32l29.3-6.39A1.678,1.678,0,0,1,1059.09,2060.52Zm1.32-7.27a1.675,1.675,0,0,1-3.35,0,2.611,2.611,0,0,0-.77-1.89,6.006,6.006,0,0,1,0-7.85,2.692,2.692,0,0,0,0-3.77,5.832,5.832,0,0,1-1.46-3.92,1.675,1.675,0,1,1,3.35,0,2.6,2.6,0,0,0,.77,1.88,6.006,6.006,0,0,1,0,7.85,2.692,2.692,0,0,0,0,3.77A5.84,5.84,0,0,1,1060.41,2053.25Z" transform="translate(-1016.41 -2034.13)"/>
</svg>
