<svg xmlns="http://www.w3.org/2000/svg" width="78.219" height="63.937" viewBox="0 0 78.219 63.937">
  <metadata><?xpacket begin="﻿" id="W5M0MpCehiHzreSzNTczkc9d"?>
<x:xmpmeta xmlns:x="adobe:ns:meta/" x:xmptk="Adobe XMP Core 5.6-c138 79.159824, 2016/09/14-01:09:01        ">
   <rdf:RDF xmlns:rdf="http://www.w3.org/1999/02/22-rdf-syntax-ns#">
      <rdf:Description rdf:about=""/>
   </rdf:RDF>
</x:xmpmeta>
                                                                                                    
                                                                                                    
                                                                                                    
                                                                                                    
                                                                                                    
                                                                                                    
                                                                                                    
                                                                                                    
                                                                                                    
                                                                                                    
                                                                                                    
                                                                                                    
                                                                                                    
                                                                                                    
                                                                                                    
                                                                                                    
                                                                                                    
                                                                                                    
                                                                                                    
                                                                                                    
                           
<?xpacket end="w"?></metadata>
<defs>
    <style>
      .cls-1 {
        fill: #93c63e;
        fill-rule: evenodd;
      }
    </style>
  </defs>
  <path class="cls-1" d="M316.942,828.677l-17.4,13.193c-4.372,6.866-14.7,10.993-28.721,10.993-18.849,0-31.028-7.458-31.028-19,0-6.1,3.361-11.77,9.465-15.958,5.8-3.976,13.454-6.166,21.563-6.166s15.766,2.19,21.562,6.166a25.554,25.554,0,0,1,4.842,4.262l14.023-4.122a2.667,2.667,0,0,1,3.079,1.256l3.33,5.947A2.669,2.669,0,0,1,316.942,828.677Zm-46.121-11.6a35.735,35.735,0,0,0-13.547,2.55,37.124,37.124,0,0,0,27.094,0A35.735,35.735,0,0,0,270.821,817.074Zm19.233,5.723a41.522,41.522,0,0,1-38.466,0c-4.172,3.09-6.46,6.993-6.46,11.065,0,4.088,2.32,7.4,6.9,9.842,4.617,2.465,11.293,3.824,18.8,3.824s14.18-1.359,18.8-3.824c4.575-2.443,6.895-5.754,6.895-9.842C296.513,829.79,294.226,825.887,290.054,822.8Zm20.657,0.966-10.431,3.066a16.668,16.668,0,0,1,1.561,6.6l10.026-7.6ZM270.385,804.1a2.67,2.67,0,1,1-1.886.783A2.693,2.693,0,0,1,270.385,804.1Zm21.514,11.24a2.669,2.669,0,0,1-2.668-2.668,18.411,18.411,0,1,0-36.821,0,2.668,2.668,0,1,1-5.335,0,23.746,23.746,0,1,1,47.492,0A2.669,2.669,0,0,1,291.9,815.342Z" transform="translate(-239.781 -788.938)"/>
</svg>
