<svg xmlns="http://www.w3.org/2000/svg" width="30.87" height="45.66" viewBox="0 0 30.87 45.66">
  <metadata><?xpacket begin="﻿" id="W5M0MpCehiHzreSzNTczkc9d"?>
<x:xmpmeta xmlns:x="adobe:ns:meta/" x:xmptk="Adobe XMP Core 5.6-c138 79.159824, 2016/09/14-01:09:01        ">
   <rdf:RDF xmlns:rdf="http://www.w3.org/1999/02/22-rdf-syntax-ns#">
      <rdf:Description rdf:about=""/>
   </rdf:RDF>
</x:xmpmeta>
                                                                                                    
                                                                                                    
                                                                                                    
                                                                                                    
                                                                                                    
                                                                                                    
                                                                                                    
                                                                                                    
                                                                                                    
                                                                                                    
                                                                                                    
                                                                                                    
                                                                                                    
                                                                                                    
                                                                                                    
                                                                                                    
                                                                                                    
                                                                                                    
                                                                                                    
                                                                                                    
                           
<?xpacket end="w"?></metadata>
<defs>
    <style>
      .cls-1 {
        fill: #93c63e;
        fill-rule: evenodd;
      }
    </style>
  </defs>
  <path class="cls-1" d="M1051.96,2278.42h-0.89v0.9a1.54,1.54,0,0,1-3.08,0v-0.9h-19.84v0.9a1.54,1.54,0,1,1-3.08,0v-0.9h-0.89a1.541,1.541,0,0,1-1.54-1.54V2247a1.541,1.541,0,0,1,1.54-1.54h27.78a1.543,1.543,0,0,1,1.55,1.54v29.88A1.543,1.543,0,0,1,1051.96,2278.42Zm-1.54-29.88h-24.7v26.8h24.7v-26.8Zm-23.38,1.42a1.553,1.553,0,0,1,1.09-.45,1.519,1.519,0,0,1,1.09.45,1.563,1.563,0,0,1,.46,1.09,1.545,1.545,0,0,1-.46,1.09,1.519,1.519,0,0,1-1.09.45,1.553,1.553,0,0,1-1.09-.45,1.579,1.579,0,0,1-.45-1.09A1.6,1.6,0,0,1,1027.04,2249.96Zm11.03,0.33a10.665,10.665,0,0,1,10.65,10.65v11.1a1.549,1.549,0,0,1-1.54,1.55h-18.21a1.551,1.551,0,0,1-1.55-1.55v-11.1A10.665,10.665,0,0,1,1038.07,2250.29Zm-7.56,20.21h15.12v-9.56a7.56,7.56,0,0,0-15.12,0v9.56Zm2.63-6.33h3.49a1.542,1.542,0,0,1,2.88,0H1043a1.545,1.545,0,0,1,1.55,1.55v2.62a1.545,1.545,0,0,1-3.09,0v-1.08h-6.78v1.08a1.54,1.54,0,1,1-3.08,0v-2.62A1.543,1.543,0,0,1,1033.14,2264.17Zm6.75-2.34a2.573,2.573,0,0,1-4.08-3.05l0.91-1.66a1.53,1.53,0,0,1,2.7,0l0.91,1.66A2.593,2.593,0,0,1,1039.89,2261.83Zm7.03-9.69a1.536,1.536,0,0,1-.45-1.09,1.553,1.553,0,0,1,.45-1.09,1.545,1.545,0,0,1,2.18,0,1.553,1.553,0,0,1,.45,1.09A1.541,1.541,0,0,1,1046.92,2252.14Zm-8.85-7.27a8.1,8.1,0,0,1-8.09-8.1,1.541,1.541,0,0,1,1.54-1.54h13.1a1.549,1.549,0,0,1,1.55,1.54A8.111,8.111,0,0,1,1038.07,2244.87Zm-4.77-6.56a5.014,5.014,0,0,0,9.54,0h-9.54Z" transform="translate(-1022.63 -2235.22)"/>
</svg>
