<svg xmlns="http://www.w3.org/2000/svg" width="64.031" height="73" viewBox="0 0 64.031 73">
  <metadata><?xpacket begin="﻿" id="W5M0MpCehiHzreSzNTczkc9d"?>
<x:xmpmeta xmlns:x="adobe:ns:meta/" x:xmptk="Adobe XMP Core 5.6-c138 79.159824, 2016/09/14-01:09:01        ">
   <rdf:RDF xmlns:rdf="http://www.w3.org/1999/02/22-rdf-syntax-ns#">
      <rdf:Description rdf:about=""/>
   </rdf:RDF>
</x:xmpmeta>
                                                                                                    
                                                                                                    
                                                                                                    
                                                                                                    
                                                                                                    
                                                                                                    
                                                                                                    
                                                                                                    
                                                                                                    
                                                                                                    
                                                                                                    
                                                                                                    
                                                                                                    
                                                                                                    
                                                                                                    
                                                                                                    
                                                                                                    
                                                                                                    
                                                                                                    
                                                                                                    
                           
<?xpacket end="w"?></metadata>
<defs>
    <style>
      .cls-1 {
        fill: #2fd6e4;
        fill-rule: evenodd;
      }
    </style>
  </defs>
  <path class="cls-1" d="M306.716,508.725A6.278,6.278,0,0,0,300.939,505H294.3a2.444,2.444,0,0,0-4.848.442v4.006a2.444,2.444,0,0,0,4.848.441h6.635a1.455,1.455,0,0,1,1.095,2.412s-7.114,9.261-10.17,11.621a49.914,49.914,0,0,1-6.682,3.342,14.619,14.619,0,0,1-13.01,0,49.937,49.937,0,0,1-6.682-3.341c-3.055-2.36-10.169-11.621-10.169-11.621a1.455,1.455,0,0,1,1.095-2.413h6.635a2.444,2.444,0,0,0,4.848-.44v-4.007a2.444,2.444,0,0,0-4.848-.442h-6.635a6.343,6.343,0,0,0-4.774,10.52l24.591,28.1v16.712a10.779,10.779,0,0,1-21.558,0v-7.914a8.99,8.99,0,1,0-4.889,0v7.914a15.668,15.668,0,0,0,31.336,0V543.625l24.591-28.1A6.276,6.276,0,0,0,306.716,508.725ZM248.13,543.776a4.1,4.1,0,1,1,4.1,4.1A4.105,4.105,0,0,1,248.13,543.776Zm30.547-10.1a19.565,19.565,0,0,0,5.29-.729L278.677,539l-5.289-6.045A19.558,19.558,0,0,0,278.677,533.679Z" transform="translate(-243.25 -503)"/>
</svg>
