<svg xmlns="http://www.w3.org/2000/svg" width="43.437" height="40.9" viewBox="0 0 43.437 40.9">
  <metadata><?xpacket begin="﻿" id="W5M0MpCehiHzreSzNTczkc9d"?>
<x:xmpmeta xmlns:x="adobe:ns:meta/" x:xmptk="Adobe XMP Core 5.6-c138 79.159824, 2016/09/14-01:09:01        ">
   <rdf:RDF xmlns:rdf="http://www.w3.org/1999/02/22-rdf-syntax-ns#">
      <rdf:Description rdf:about=""/>
   </rdf:RDF>
</x:xmpmeta>
                                                                                                    
                                                                                                    
                                                                                                    
                                                                                                    
                                                                                                    
                                                                                                    
                                                                                                    
                                                                                                    
                                                                                                    
                                                                                                    
                                                                                                    
                                                                                                    
                                                                                                    
                                                                                                    
                                                                                                    
                                                                                                    
                                                                                                    
                                                                                                    
                                                                                                    
                                                                                                    
                           
<?xpacket end="w"?></metadata>
<defs>
    <style>
      .cls-1 {
        fill: #2fd6e4;
        fill-rule: evenodd;
      }
    </style>
  </defs>
  <path class="cls-1" d="M175.608,3225.33H164.516a6.05,6.05,0,0,1-6.046-6.04v-23.75a6.046,6.046,0,0,1,3.837-5.62v-4.02a1.459,1.459,0,0,1,1.463-1.46h12.584a1.459,1.459,0,0,1,1.463,1.46v4.02a6.046,6.046,0,0,1,3.837,5.62v23.75A6.05,6.05,0,0,1,175.608,3225.33Zm-0.717-37.97h-9.659v2.14h9.659v-2.14Zm3.837,8.18a3.123,3.123,0,0,0-3.12-3.12H164.516a3.124,3.124,0,0,0-3.121,3.12v2.82h17.333v-2.82Zm0,5.74H161.4v12.27h17.333v-12.27Zm0,15.19H161.4v2.82a3.116,3.116,0,0,0,3.121,3.11h11.092a3.115,3.115,0,0,0,3.12-3.11v-2.82Zm-11.659-10.52h1.53v-1.53a1.463,1.463,0,0,1,2.925,0v1.53h1.531a1.465,1.465,0,0,1,0,2.93h-1.531v1.53a1.463,1.463,0,0,1-2.925,0v-1.53h-1.53A1.465,1.465,0,0,1,167.069,3205.95Zm-14.554,19.38H142.026a3.817,3.817,0,0,1-3.815-3.81v-25.67a3.819,3.819,0,0,1,3.815-3.82h10.489a3.819,3.819,0,0,1,3.815,3.82v25.67A3.817,3.817,0,0,1,152.515,3225.33Zm0.89-29.48a0.891,0.891,0,0,0-.89-0.89H142.026a0.892,0.892,0,0,0-.89.89v25.67a0.883,0.883,0,0,0,.89.88h10.489a0.883,0.883,0,0,0,.89-0.88v-25.67Zm-3.6,24.42a1.483,1.483,0,0,1-1.034-.43,1.463,1.463,0,0,1,0-2.07,1.462,1.462,0,0,1,2.5,1.04,1.464,1.464,0,0,1-.428,1.03A1.481,1.481,0,0,1,149.8,3220.27Zm0-5.06a1.466,1.466,0,0,1-1.463-1.47,1.465,1.465,0,0,1,.429-1.03,1.458,1.458,0,0,1,2.068,0,1.464,1.464,0,0,1,.428,1.03A1.465,1.465,0,0,1,149.8,3215.21Zm0-5.07a1.441,1.441,0,0,1-1.034-.43,1.451,1.451,0,0,1,0-2.06,1.458,1.458,0,0,1,2.068,0,1.453,1.453,0,0,1,0,2.06A1.443,1.443,0,0,1,149.8,3210.14Zm0-5.06a1.483,1.483,0,0,1-1.034-.43,1.465,1.465,0,0,1-.429-1.03,1.463,1.463,0,0,1,2.925,0,1.464,1.464,0,0,1-.428,1.03A1.485,1.485,0,0,1,149.8,3205.08Zm0-5.06a1.483,1.483,0,0,1-1.034-.43,1.465,1.465,0,0,1-.429-1.03,1.463,1.463,0,1,1,2.925,0,1.464,1.464,0,0,1-.428,1.03A1.485,1.485,0,0,1,149.8,3200.02Zm-5.064,20.25a1.465,1.465,0,1,1,1.034-.43A1.479,1.479,0,0,1,144.739,3220.27Zm0-5.06a1.466,1.466,0,0,1-1.463-1.47,1.461,1.461,0,0,1,.429-1.03A1.463,1.463,0,1,1,144.739,3215.21Zm0-5.07a1.441,1.441,0,0,1-1.034-.43,1.451,1.451,0,0,1,0-2.06,1.458,1.458,0,0,1,2.068,0,1.453,1.453,0,0,1,0,2.06A1.446,1.446,0,0,1,144.739,3210.14Zm0-5.06a1.483,1.483,0,0,1-1.034-.43,1.461,1.461,0,0,1-.429-1.03,1.463,1.463,0,0,1,2.925,0,1.468,1.468,0,0,1-.428,1.03A1.485,1.485,0,0,1,144.739,3205.08Zm0-5.06a1.483,1.483,0,0,1-1.034-.43,1.461,1.461,0,0,1-.429-1.03,1.463,1.463,0,1,1,2.925,0,1.468,1.468,0,0,1-.428,1.03A1.485,1.485,0,0,1,144.739,3200.02Z" transform="translate(-138.219 -3184.44)"/>
</svg>
