<svg xmlns="http://www.w3.org/2000/svg" width="40.656" height="40.62" viewBox="0 0 40.656 40.62">
  <metadata><?xpacket begin="﻿" id="W5M0MpCehiHzreSzNTczkc9d"?>
<x:xmpmeta xmlns:x="adobe:ns:meta/" x:xmptk="Adobe XMP Core 5.6-c138 79.159824, 2016/09/14-01:09:01        ">
   <rdf:RDF xmlns:rdf="http://www.w3.org/1999/02/22-rdf-syntax-ns#">
      <rdf:Description rdf:about=""/>
   </rdf:RDF>
</x:xmpmeta>
                                                                                                    
                                                                                                    
                                                                                                    
                                                                                                    
                                                                                                    
                                                                                                    
                                                                                                    
                                                                                                    
                                                                                                    
                                                                                                    
                                                                                                    
                                                                                                    
                                                                                                    
                                                                                                    
                                                                                                    
                                                                                                    
                                                                                                    
                                                                                                    
                                                                                                    
                                                                                                    
                           
<?xpacket end="w"?></metadata>
<defs>
    <style>
      .cls-1 {
        fill: #2fd6e4;
        fill-rule: evenodd;
      }
    </style>
  </defs>
  <path class="cls-1" d="M175.491,3425.47h-3.658l-5.138,3.86a1.4,1.4,0,0,1-.832.27,1.5,1.5,0,0,1-.62-0.14,1.4,1.4,0,0,1-.766-1.24v-2.75h-2.046a4.162,4.162,0,0,1-4.15-4.16v-11a4.162,4.162,0,0,1,4.15-4.16h13.06a4.163,4.163,0,0,1,4.151,4.16v11A4.163,4.163,0,0,1,175.491,3425.47Zm1.379-15.16a1.381,1.381,0,0,0-1.379-1.38h-13.06a1.381,1.381,0,0,0-1.378,1.38v11a1.381,1.381,0,0,0,1.378,1.38h3.432a1.386,1.386,0,0,1,1.386,1.39v1.36l3.291-2.47a1.384,1.384,0,0,1,.831-0.28h4.12a1.381,1.381,0,0,0,1.379-1.38v-11Zm-4.1,6.74h-2.18v2.18a1.386,1.386,0,1,1-2.772,0v-2.18h-2.18a1.39,1.39,0,0,1,0-2.78h2.18v-2.18a1.386,1.386,0,1,1,2.772,0v2.18h2.18A1.39,1.39,0,0,1,172.771,3417.05Zm-13.958,17.81,3.381-3.4a1.388,1.388,0,0,1,1.96,0l8.159,8.16a1.4,1.4,0,0,1,0,1.97l-3.264,3.26a7.166,7.166,0,0,1-5.259,1.94c-4.694,0-10.865-3.05-16.282-8.47a31.274,31.274,0,0,1-7.654-11.7c-1.408-4.22-1.007-7.73,1.127-9.86l3.263-3.27a1.388,1.388,0,0,1,1.96,0l8.159,8.17a1.386,1.386,0,0,1,0,1.96l-3.4,3.38c-0.358.72,0.259,3.02,2.548,5.31S158.1,3435.22,158.813,3434.86Zm10.56,5.74-6.2-6.2-1.3,1.3,6.2,6.21Zm-17.95-17.96-6.2-6.21-1.3,1.31,6.2,6.2Zm-3.075,3.45-6.176-6.18a8.817,8.817,0,0,0,.312,5.84,31.519,31.519,0,0,0,17.585,17.6,8.786,8.786,0,0,0,5.828.31l-6.174-6.18a4.07,4.07,0,0,1-1.418.24c-2.013,0-4.525-1.22-6.752-3.45C148.764,3431.48,147.562,3428.24,148.348,3426.09Z" transform="translate(-139 -3406.16)"/>
</svg>
