<svg xmlns="http://www.w3.org/2000/svg" xmlns:xlink="http://www.w3.org/1999/xlink" width="15.062" height="11.3" viewBox="0 0 15.062 11.3">
  <metadata><?xpacket begin="﻿" id="W5M0MpCehiHzreSzNTczkc9d"?>
<x:xmpmeta xmlns:x="adobe:ns:meta/" x:xmptk="Adobe XMP Core 5.6-c138 79.159824, 2016/09/14-01:09:01        ">
   <rdf:RDF xmlns:rdf="http://www.w3.org/1999/02/22-rdf-syntax-ns#">
      <rdf:Description rdf:about=""/>
   </rdf:RDF>
</x:xmpmeta>
                                                                                                    
                                                                                                    
                                                                                                    
                                                                                                    
                                                                                                    
                                                                                                    
                                                                                                    
                                                                                                    
                                                                                                    
                                                                                                    
                                                                                                    
                                                                                                    
                                                                                                    
                                                                                                    
                                                                                                    
                                                                                                    
                                                                                                    
                                                                                                    
                                                                                                    
                                                                                                    
                           
<?xpacket end="w"?></metadata>
<defs>
    <style>
      .cls-1 {
        fill: #fff;
        fill-rule: evenodd;
        filter: url(#filter);
      }
    </style>
    <filter id="filter" x="184.938" y="12051" width="15.062" height="11.3" filterUnits="userSpaceOnUse">
      <feFlood result="flood" flood-color="#888"/>
      <feComposite result="composite" operator="in" in2="SourceGraphic"/>
      <feBlend result="blend" in2="SourceGraphic"/>
    </filter>
  </defs>
  <path class="cls-1" d="M198.736,12055.5a4,4,0,0,0,1.154-1.3c0.03-.3-0.185-0.1-0.185-0.1a4.521,4.521,0,0,0-.992.5c-0.523.5-.685,0-0.685,0,0-2.1-2.816-2.3-2.816-2.3-0.2,0-.246-0.3-0.015-0.3a3.112,3.112,0,0,0,.912-0.6c0.2-.5-0.462-0.2-0.462-0.2a0.285,0.285,0,0,1-.338-0.1,0.658,0.658,0,0,0-.62,0,0.8,0.8,0,0,1-.646.1c-1.678.3-2.715,4.7-2.715,4.7-0.031.4-.292,0-0.292,0-1.431-1.7-2.056-1.3-2.056-1.3-0.2.2,0.216,0.4,0.216,0.4,0.138,0.2-.015.2-0.015,0.2-0.493-.2-0.6.1-0.6,0.1a2.291,2.291,0,0,0,.431.5c0.185,0.1-.015.2-0.015,0.2a5.161,5.161,0,0,0-1.077-.1c-0.308,0,.077.3,0.077,0.3,0.246,0.2-.257.6-0.257,0.6-0.446,0-.43.3-0.43,0.3-0.247.6,3.226,1.7,3.226,1.7a0.31,0.31,0,0,1,.092.5,2.693,2.693,0,0,1-2.678,1,12.674,12.674,0,0,1-2.882-.8c-0.354-.1.092,0.4,0.092,0.4a7.44,7.44,0,0,0,5.837,2.4c7.047,0,7.216-5.4,7.216-5.4a0.186,0.186,0,0,1,.185-0.2,7.538,7.538,0,0,0,1.54-.9c0.277-.5-0.323-0.2-0.323-0.2a1.976,1.976,0,0,1-.724.3C198.382,12055.9,198.736,12055.5,198.736,12055.5Z" transform="translate(-184.938 -12051)"/>
</svg>
