<svg xmlns="http://www.w3.org/2000/svg" xmlns:xlink="http://www.w3.org/1999/xlink" width="19" height="16" viewBox="0 0 19 16">
  <metadata><?xpacket begin="﻿" id="W5M0MpCehiHzreSzNTczkc9d"?>
<x:xmpmeta xmlns:x="adobe:ns:meta/" x:xmptk="Adobe XMP Core 5.6-c138 79.159824, 2016/09/14-01:09:01        ">
   <rdf:RDF xmlns:rdf="http://www.w3.org/1999/02/22-rdf-syntax-ns#">
      <rdf:Description rdf:about=""/>
   </rdf:RDF>
</x:xmpmeta>
                                                                                                    
                                                                                                    
                                                                                                    
                                                                                                    
                                                                                                    
                                                                                                    
                                                                                                    
                                                                                                    
                                                                                                    
                                                                                                    
                                                                                                    
                                                                                                    
                                                                                                    
                                                                                                    
                                                                                                    
                                                                                                    
                                                                                                    
                                                                                                    
                                                                                                    
                                                                                                    
                           
<?xpacket end="w"?></metadata>
<defs>
    <style>
      .cls-1 {
        fill: #fff;
        fill-rule: evenodd;
        filter: url(#filter);
      }
    </style>
    <filter id="filter" x="586" y="1165" width="19" height="16" filterUnits="userSpaceOnUse">
      <feOffset result="offset" dy="-1" in="SourceAlpha"/>
      <feGaussianBlur result="blur" stdDeviation="1"/>
      <feFlood result="flood" flood-opacity="0.09"/>
      <feComposite result="composite" operator="in" in2="blur"/>
      <feBlend result="blend" in="SourceGraphic"/>
    </filter>
  </defs>
  <path class="cls-1" d="M601.558,1172.25a3.943,3.943,0,0,0,1.21-1.33c0.032-.34-0.194-0.19-0.194-0.19a5.659,5.659,0,0,0-1.04.55c-0.549.54-.719,0.02-0.719,0.02,0-2.16-2.954-2.42-2.954-2.42-0.209-.03-0.258-0.26-0.016-0.27a3.65,3.65,0,0,0,.958-0.7c0.209-.46-0.485-0.18-0.485-0.18a0.261,0.261,0,0,1-.355-0.1,0.851,0.851,0,0,0-.65.03,0.938,0.938,0,0,1-.678.07c-1.759.31-2.847,4.98-2.847,4.98-0.033.36-.307-0.01-0.307-0.01-1.5-1.83-2.156-1.4-2.156-1.4-0.21.21,0.226,0.47,0.226,0.47,0.145,0.16-.016.19-0.016,0.19-0.517-.22-0.63.05-0.63,0.05a1.1,1.1,0,0,0,.453.54c0.193,0.14-.017.22-0.017,0.22a9.287,9.287,0,0,0-1.13-.13c-0.322.03,0.081,0.38,0.081,0.38,0.258,0.16-.269.62-0.269,0.62-0.468-.08-0.452.28-0.452,0.28-0.258.63,3.384,1.76,3.384,1.76a0.4,0.4,0,0,1,.1.59,2.779,2.779,0,0,1-2.808,1.01,13.05,13.05,0,0,1-3.024-.86c-0.371-.08.1,0.42,0.1,0.42a7.833,7.833,0,0,0,6.122,2.54c7.392,0,7.57-5.69,7.57-5.69a0.253,0.253,0,0,1,.193-0.22,8.106,8.106,0,0,0,1.616-.86c0.291-.55-0.339-0.24-0.339-0.24a3.487,3.487,0,0,1-.76.25C601.186,1172.72,601.558,1172.25,601.558,1172.25Z" transform="translate(-586 -1165)"/>
</svg>
