<svg xmlns="http://www.w3.org/2000/svg" width="32.719" height="32.72" viewBox="0 0 32.719 32.72">
  <metadata><?xpacket begin="﻿" id="W5M0MpCehiHzreSzNTczkc9d"?>
<x:xmpmeta xmlns:x="adobe:ns:meta/" x:xmptk="Adobe XMP Core 5.6-c138 79.159824, 2016/09/14-01:09:01        ">
   <rdf:RDF xmlns:rdf="http://www.w3.org/1999/02/22-rdf-syntax-ns#">
      <rdf:Description rdf:about=""/>
   </rdf:RDF>
</x:xmpmeta>
                                                                                                    
                                                                                                    
                                                                                                    
                                                                                                    
                                                                                                    
                                                                                                    
                                                                                                    
                                                                                                    
                                                                                                    
                                                                                                    
                                                                                                    
                                                                                                    
                                                                                                    
                                                                                                    
                                                                                                    
                                                                                                    
                                                                                                    
                                                                                                    
                                                                                                    
                                                                                                    
                           
<?xpacket end="w"?></metadata>
<defs>
    <style>
      .cls-1 {
        fill: #fff;
        fill-rule: evenodd;
      }
    </style>
  </defs>
  <path class="cls-1" d="M226.609,3490.56H226.5c-0.074,0-.156.01-0.248,0.01-0.257.02-.541,0.06-0.844,0.11a8.906,8.906,0,0,0-2.558.81,6.8,6.8,0,0,0-2.669,2.31,7.786,7.786,0,0,0-1.205,4.39,19.517,19.517,0,0,0,1.168,7.22,9.216,9.216,0,0,0,.855,1.67,3.467,3.467,0,0,0,.314.42,1.466,1.466,0,0,0,.15.17,0.1,0.1,0,0,0,.019.03,1.463,1.463,0,0,1,.091.13,0.836,0.836,0,0,1,.076.74,3.915,3.915,0,0,1-2.07,1.73,20.163,20.163,0,0,1-2.066.9c-0.449.17-1.941,0.72-2.03,0.76a10.612,10.612,0,0,0-3.578,1.9,5.04,5.04,0,0,0-1.654,3.96,5.52,5.52,0,0,0,.864,3.13,4.928,4.928,0,0,0,1.92,1.67,6.342,6.342,0,0,0,1.808.57c0.213,0.04.415,0.06,0.6,0.08a0.988,0.988,0,0,1,.178.01H237.6a0.988,0.988,0,0,1,.178-0.01c0.182-.02.383-0.04,0.6-0.08a6.342,6.342,0,0,0,1.808-.57,4.918,4.918,0,0,0,1.919-1.67,5.52,5.52,0,0,0,.865-3.13,5.04,5.04,0,0,0-1.654-3.96,10.632,10.632,0,0,0-3.578-1.9c-0.089-.04-1.581-0.59-2.03-0.76a20.163,20.163,0,0,1-2.066-.9,3.923,3.923,0,0,1-2.071-1.73,0.839,0.839,0,0,1,.077-0.74,1.463,1.463,0,0,1,.091-0.13,0.1,0.1,0,0,0,.019-0.03,1.567,1.567,0,0,0,.15-0.17,3.467,3.467,0,0,0,.314-0.42,9.155,9.155,0,0,0,.854-1.67,19.494,19.494,0,0,0,1.169-7.22,7.786,7.786,0,0,0-1.205-4.39,6.8,6.8,0,0,0-2.67-2.31,8.89,8.89,0,0,0-2.557-.81c-0.3-.05-0.587-0.09-0.844-0.11-0.092,0-.175-0.01-0.248-0.01h-0.111Zm0,2.18h0.037a1.042,1.042,0,0,1,.167.01,5.676,5.676,0,0,1,.639.08,7,7,0,0,1,1.941.61,4.628,4.628,0,0,1,1.83,1.58,5.573,5.573,0,0,1,.84,3.17,17.415,17.415,0,0,1-1.013,6.41,6.87,6.87,0,0,1-.645,1.27c-0.069.1-.13,0.19-0.182,0.25a0.47,0.47,0,0,1-.034.04c-0.043.04-.093,0.1-0.154,0.17a4.589,4.589,0,0,0-.283.42,2.967,2.967,0,0,0-.231,2.56,5.854,5.854,0,0,0,3.144,2.95c0.692,0.34,1.41.65,2.256,0.98,0.47,0.18,1.978.73,2.051,0.76a9.072,9.072,0,0,1,2.884,1.48,2.881,2.881,0,0,1,.932,2.34,3.365,3.365,0,0,1-.5,1.92,2.739,2.739,0,0,1-1.08.93,4.463,4.463,0,0,1-1.192.37,3.173,3.173,0,0,1-.391.05c-0.038,0-.072.01-0.1,0.01H215.691c-0.026,0-.06-0.01-0.1-0.01a3.187,3.187,0,0,1-.392-0.05,4.468,4.468,0,0,1-1.191-.37,2.732,2.732,0,0,1-1.08-.93,3.365,3.365,0,0,1-.5-1.92,2.884,2.884,0,0,1,.931-2.34,9.068,9.068,0,0,1,2.885-1.48c0.073-.03,1.581-0.58,2.05-0.76,0.847-.33,1.565-0.64,2.257-0.98a5.851,5.851,0,0,0,3.143-2.95,2.967,2.967,0,0,0-.23-2.56,4.8,4.8,0,0,0-.283-0.42c-0.061-.07-0.112-0.13-0.155-0.17a0.012,0.012,0,0,0-.01-0.01,0.21,0.21,0,0,0-.024-0.03c-0.051-.06-0.112-0.15-0.181-0.25a6.87,6.87,0,0,1-.645-1.27,17.415,17.415,0,0,1-1.013-6.41,5.565,5.565,0,0,1,.84-3.17,4.628,4.628,0,0,1,1.83-1.58,6.994,6.994,0,0,1,1.941-.61,5.648,5.648,0,0,1,.639-0.08,1.042,1.042,0,0,1,.167-0.01h0.036Z" transform="translate(-210.25 -3490.56)"/>
</svg>
