<svg xmlns="http://www.w3.org/2000/svg" width="37.032" height="37.22" viewBox="0 0 37.032 37.22">
  <metadata><?xpacket begin="﻿" id="W5M0MpCehiHzreSzNTczkc9d"?>
<x:xmpmeta xmlns:x="adobe:ns:meta/" x:xmptk="Adobe XMP Core 5.6-c138 79.159824, 2016/09/14-01:09:01        ">
   <rdf:RDF xmlns:rdf="http://www.w3.org/1999/02/22-rdf-syntax-ns#">
      <rdf:Description rdf:about=""/>
   </rdf:RDF>
</x:xmpmeta>
                                                                                                    
                                                                                                    
                                                                                                    
                                                                                                    
                                                                                                    
                                                                                                    
                                                                                                    
                                                                                                    
                                                                                                    
                                                                                                    
                                                                                                    
                                                                                                    
                                                                                                    
                                                                                                    
                                                                                                    
                                                                                                    
                                                                                                    
                                                                                                    
                                                                                                    
                                                                                                    
                           
<?xpacket end="w"?></metadata>
<defs>
    <style>
      .cls-1 {
        fill: #fff;
        fill-rule: evenodd;
      }
    </style>
  </defs>
  <path class="cls-1" d="M757.756,3985.11a18.212,18.212,0,0,1-6.873-1.29,11.453,11.453,0,0,1-4.749.98,11.879,11.879,0,0,1-5.85-1.56,1.145,1.145,0,0,1-.39-1.64,1.2,1.2,0,0,1,.72-0.55,9.563,9.563,0,0,0,3.14-2.38,18.486,18.486,0,0,1-4.484-12.12,20.533,20.533,0,0,1,.156-2.26c0.078-.47.156-0.94,0.234-1.48a18.394,18.394,0,0,1,18.1-14.9A18.6,18.6,0,0,1,757.756,3985.11Zm0-34.78a16.2,16.2,0,0,0-15.912,13.02,6.848,6.848,0,0,0-.156,1.25,15.166,15.166,0,0,0-.156,1.95,16.179,16.179,0,0,0,4.295,10.98,1.295,1.295,0,0,1,.621,1.43,1.209,1.209,0,0,1-.314.54l-0.035.03a12.072,12.072,0,0,1-2.54,2.57,9.881,9.881,0,0,0,2.653.36,8.874,8.874,0,0,0,3.984-.9,1.254,1.254,0,0,1,.265-0.13,1.072,1.072,0,0,1,1.173.13,16.043,16.043,0,0,0,6.122,1.21A16.22,16.22,0,1,0,757.756,3950.33Z" transform="translate(-739.281 -3947.91)"/>
</svg>
