<svg xmlns="http://www.w3.org/2000/svg" width="77.968" height="79.219" viewBox="0 0 77.968 79.219">
  <metadata><?xpacket begin="﻿" id="W5M0MpCehiHzreSzNTczkc9d"?>
<x:xmpmeta xmlns:x="adobe:ns:meta/" x:xmptk="Adobe XMP Core 5.6-c138 79.159824, 2016/09/14-01:09:01        ">
   <rdf:RDF xmlns:rdf="http://www.w3.org/1999/02/22-rdf-syntax-ns#">
      <rdf:Description rdf:about=""/>
   </rdf:RDF>
</x:xmpmeta>
                                                                                                    
                                                                                                    
                                                                                                    
                                                                                                    
                                                                                                    
                                                                                                    
                                                                                                    
                                                                                                    
                                                                                                    
                                                                                                    
                                                                                                    
                                                                                                    
                                                                                                    
                                                                                                    
                                                                                                    
                                                                                                    
                                                                                                    
                                                                                                    
                                                                                                    
                                                                                                    
                           
<?xpacket end="w"?></metadata>
<defs>
    <style>
      .cls-1 {
        fill: #c79453;
        fill-rule: evenodd;
      }
    </style>
  </defs>
  <path class="cls-1" d="M310.6,713.663a1.929,1.929,0,0,1-1.772-1.167l-15.952-37.1c-4.188-1.252-9.337-5.62-11.5-12.017l-1.157-3.413a1.927,1.927,0,0,1,1.049-2.381l-3.018-8.81a1.927,1.927,0,1,1,3.647-1.249l3.02,8.815,1.559-.528L283.444,647a1.927,1.927,0,0,1,3.647-1.249l3.026,8.832,1.56-.528-3.028-8.837a1.927,1.927,0,1,1,3.647-1.249l3.032,8.849,1.559-.528-3.033-8.854a1.927,1.927,0,1,1,3.647-1.249l3.038,8.866,0.262-.089a1.929,1.929,0,0,1,2.444,1.207l1.157,3.413c2.065,6.093,1.3,12.822-1.759,16.591l9.82,39.094A1.885,1.885,0,0,1,310.6,713.663ZM298.7,672.3a1.925,1.925,0,0,1,.488-2.051c2.275-2.155,3.482-7.769,1.563-13.432l-0.538-1.587-15.734,5.329,0.538,1.588c1.788,5.275,6.371,9.151,9.591,9.716a1.926,1.926,0,0,1,1.5,1.316l6.755,15.709Zm-13.19,9.475a13.525,13.525,0,0,1,6.534,11.446h6.039a1.927,1.927,0,0,1,1.928,1.926c0,6.884-3.844,8.854-6.141,10.032a4.57,4.57,0,0,0-1.644,1.085c-3.894,9.8-10.253,13.456-10.522,13.607a1.934,1.934,0,0,1-.943.246H258.768a1.934,1.934,0,0,1-.943-0.246,20.973,20.973,0,0,1-5.032-4.4H239.771a5.449,5.449,0,0,1-5.213-5.646V671.888c0-.018,0-0.036,0-0.055,0.209-7.293,4.947-13.087,6.641-14.932v-8.366a5.932,5.932,0,0,1,5.927-5.924h4.483a5.932,5.932,0,0,1,5.927,5.924V656.9c1.694,1.845,6.432,7.639,6.64,14.932,0,0.019,0,.037,0,0.055v12.789c5.869-.664,8.791.695,10.957,1.7a11.747,11.747,0,0,0,1.905.765,1.059,1.059,0,0,0,1.177-.565c0.453-.779.342-2.347-1.462-4.2a1.927,1.927,0,0,1,1.621-3.255A19.186,19.186,0,0,1,285.51,681.775Zm-26.183,34.488H280.2c1.3-.9,5.611-4.283,8.447-11.421,0.655-1.65,2.15-2.417,3.469-3.092,1.82-.933,3.432-1.76,3.9-4.676H248.784C250.831,709.759,257.632,715.109,259.327,716.263Zm-5.645-67.727a2.074,2.074,0,0,0-2.072-2.071h-4.483a2.074,2.074,0,0,0-2.072,2.071v7.212h8.627v-7.212Zm6.641,23.381c-0.178-5.833-4.118-10.727-5.545-12.314H243.959c-1.427,1.587-5.367,6.481-5.545,12.314v37.906a1.644,1.644,0,0,0,1.357,1.793h10.2a38.611,38.611,0,0,1-5.31-16.256,1.928,1.928,0,0,1,1.916-2.14h4.267a15.779,15.779,0,0,1,9.479-7.782V671.917Zm15.747,18.96a14.931,14.931,0,0,1-2.563-1c-2.061-.96-4.4-2.048-9.865-1.244a12.45,12.45,0,0,0-8.231,4.588h32.77a10.112,10.112,0,0,0-6.019-8.918,5.949,5.949,0,0,1-.613,4.218A4.888,4.888,0,0,1,276.07,690.877Z" transform="translate(-234.563 -640.906)"/>
</svg>
