<svg xmlns="http://www.w3.org/2000/svg" width="34.97" height="41.63" viewBox="0 0 34.97 41.63">
  <metadata><?xpacket begin="﻿" id="W5M0MpCehiHzreSzNTczkc9d"?>
<x:xmpmeta xmlns:x="adobe:ns:meta/" x:xmptk="Adobe XMP Core 5.6-c138 79.159824, 2016/09/14-01:09:01        ">
   <rdf:RDF xmlns:rdf="http://www.w3.org/1999/02/22-rdf-syntax-ns#">
      <rdf:Description rdf:about=""/>
   </rdf:RDF>
</x:xmpmeta>
                                                                                                    
                                                                                                    
                                                                                                    
                                                                                                    
                                                                                                    
                                                                                                    
                                                                                                    
                                                                                                    
                                                                                                    
                                                                                                    
                                                                                                    
                                                                                                    
                                                                                                    
                                                                                                    
                                                                                                    
                                                                                                    
                                                                                                    
                                                                                                    
                                                                                                    
                                                                                                    
                           
<?xpacket end="w"?></metadata>
<defs>
    <style>
      .cls-1 {
        fill: #8781bd;
        fill-rule: evenodd;
      }
    </style>
  </defs>
  <path class="cls-1" d="M1046.3,2076.29a17.487,17.487,0,0,1-24.73-24.73l11.39-11.38a1.376,1.376,0,0,1,1.96,0l11.38,11.38A17.5,17.5,0,0,1,1046.3,2076.29Zm-1.96-22.77-10.4-10.4-10.41,10.4A14.715,14.715,0,1,0,1044.34,2053.52Zm-1.3,19.51a12.869,12.869,0,1,1-18.2-18.2l8.12-8.12a1.4,1.4,0,0,1,1.96,0l8.12,8.12A12.892,12.892,0,0,1,1043.04,2073.03Zm-1.96-16.24-7.14-7.14-7.14,7.14A10.09,10.09,0,1,0,1041.08,2056.79Zm-1.31,12.97a8.245,8.245,0,0,1-11.66-11.66l4.85-4.85a1.388,1.388,0,0,1,1.96,0l4.85,4.85A8.257,8.257,0,0,1,1039.77,2069.76Zm-1.96-9.7-3.87-3.87-3.87,3.87A5.47,5.47,0,1,0,1037.81,2060.06Zm-1.31,6.43a3.621,3.621,0,0,1-5.12,0,3.609,3.609,0,0,1,0-5.12l1.58-1.59a1.388,1.388,0,0,1,1.96,0l1.58,1.59A3.621,3.621,0,0,1,1036.5,2066.49Zm-1.96-3.16-0.6-.61-0.6.61a0.833,0.833,0,0,0,0,1.2A0.849,0.849,0,1,0,1034.54,2063.33Z" transform="translate(-1016.47 -2039.78)"/>
</svg>
