<svg xmlns="http://www.w3.org/2000/svg" width="42.562" height="43.62" viewBox="0 0 42.562 43.62">
  <metadata><?xpacket begin="﻿" id="W5M0MpCehiHzreSzNTczkc9d"?>
<x:xmpmeta xmlns:x="adobe:ns:meta/" x:xmptk="Adobe XMP Core 5.6-c138 79.159824, 2016/09/14-01:09:01        ">
   <rdf:RDF xmlns:rdf="http://www.w3.org/1999/02/22-rdf-syntax-ns#">
      <rdf:Description rdf:about=""/>
   </rdf:RDF>
</x:xmpmeta>
                                                                                                    
                                                                                                    
                                                                                                    
                                                                                                    
                                                                                                    
                                                                                                    
                                                                                                    
                                                                                                    
                                                                                                    
                                                                                                    
                                                                                                    
                                                                                                    
                                                                                                    
                                                                                                    
                                                                                                    
                                                                                                    
                                                                                                    
                                                                                                    
                                                                                                    
                                                                                                    
                           
<?xpacket end="w"?></metadata>
<defs>
    <style>
      .cls-1 {
        fill: #8781bd;
        fill-rule: evenodd;
      }
    </style>
  </defs>
  <path class="cls-1" d="M636.482,2064.92a1.469,1.469,0,0,1-.583-1.99,18,18,0,0,0,2.136-7.16H602.044a18.053,18.053,0,0,0,14.993,16.33,1.46,1.46,0,0,1-.24,2.9,2.023,2.023,0,0,1-.243-0.02,20.967,20.967,0,0,1-17.5-20.68,1.465,1.465,0,0,1,1.462-1.46h39.036a1.466,1.466,0,0,1,1.463,1.46,20.942,20.942,0,0,1-2.553,10.03A1.471,1.471,0,0,1,636.482,2064.92Zm-7.855-14.75a1.469,1.469,0,0,1-2.061.18,1.462,1.462,0,0,1-.183-2.06,1.793,1.793,0,0,0,0-2.31,4.724,4.724,0,0,1,0-6.07,1.464,1.464,0,0,1,2.244,1.88,1.793,1.793,0,0,0,0,2.31A4.724,4.724,0,0,1,628.627,2050.17Zm-7.466,0a1.469,1.469,0,0,1-2.061.18,1.463,1.463,0,0,1-.183-2.06,1.794,1.794,0,0,0,0-2.31,4.723,4.723,0,0,1,0-6.07,1.464,1.464,0,0,1,2.244,1.88,1.793,1.793,0,0,0,0,2.31A4.721,4.721,0,0,1,621.161,2050.17Zm-7.466,0a1.469,1.469,0,0,1-2.061.18,1.462,1.462,0,0,1-.182-2.06,1.8,1.8,0,0,0,0-2.31,4.721,4.721,0,0,1,0-6.07,1.463,1.463,0,0,1,2.243,1.88,1.794,1.794,0,0,0,0,2.31A4.721,4.721,0,0,1,613.7,2050.17Zm10.031,16.07a7.427,7.427,0,0,1,1.261.13,7.437,7.437,0,0,1-.124-1.26,5.21,5.21,0,0,1,10.42,0,7.437,7.437,0,0,1-.124,1.26,7.427,7.427,0,0,1,1.261-.13,5.205,5.205,0,1,1,0,10.41,7.351,7.351,0,0,1-1.261-.12,7.342,7.342,0,0,1,.124,1.26,5.21,5.21,0,0,1-10.42,0,7.342,7.342,0,0,1,.124-1.26,7.351,7.351,0,0,1-1.261.12A5.205,5.205,0,1,1,623.726,2066.24Zm11.393,7.29a5.373,5.373,0,0,0,1.3.2,2.28,2.28,0,1,0,0-4.56,5.807,5.807,0,0,0-1.3.19A5.433,5.433,0,0,1,635.119,2073.53Zm-5.046-10.71a2.292,2.292,0,0,0-2.284,2.29,5.749,5.749,0,0,0,.2,1.3,5.4,5.4,0,0,1,4.176,0,5.749,5.749,0,0,0,.2-1.3A2.292,2.292,0,0,0,630.073,2062.82Zm0,17.25a2.283,2.283,0,0,0,2.284-2.28,5.749,5.749,0,0,0-.2-1.3,5.4,5.4,0,0,1-4.176,0,5.749,5.749,0,0,0-.2,1.3A2.283,2.283,0,0,0,630.073,2080.07Zm0-6.09a2.535,2.535,0,1,0-2.536-2.53A2.532,2.532,0,0,0,630.073,2073.98Zm-6.347-.25a5.373,5.373,0,0,0,1.3-.2,5.433,5.433,0,0,1,0-4.17,5.807,5.807,0,0,0-1.3-.19A2.28,2.28,0,1,0,623.726,2073.73Z" transform="translate(-599.063 -2039.38)"/>
</svg>
