<svg xmlns="http://www.w3.org/2000/svg" width="50.781" height="75.093" viewBox="0 0 50.781 75.093">
  <metadata><?xpacket begin="﻿" id="W5M0MpCehiHzreSzNTczkc9d"?>
<x:xmpmeta xmlns:x="adobe:ns:meta/" x:xmptk="Adobe XMP Core 5.6-c138 79.159824, 2016/09/14-01:09:01        ">
   <rdf:RDF xmlns:rdf="http://www.w3.org/1999/02/22-rdf-syntax-ns#">
      <rdf:Description rdf:about=""/>
   </rdf:RDF>
</x:xmpmeta>
                                                                                                    
                                                                                                    
                                                                                                    
                                                                                                    
                                                                                                    
                                                                                                    
                                                                                                    
                                                                                                    
                                                                                                    
                                                                                                    
                                                                                                    
                                                                                                    
                                                                                                    
                                                                                                    
                                                                                                    
                                                                                                    
                                                                                                    
                                                                                                    
                                                                                                    
                                                                                                    
                           
<?xpacket end="w"?></metadata>
<defs>
    <style>
      .cls-1 {
        fill: #8781bd;
        fill-rule: evenodd;
      }
    </style>
  </defs>
  <path class="cls-1" d="M293.629,573.017h-1.466V574.5a2.538,2.538,0,0,1-5.075,0v-1.481H254.445V574.5a2.537,2.537,0,1,1-5.074,0v-1.481H247.9a2.537,2.537,0,0,1-2.537-2.538V521.306a2.537,2.537,0,0,1,2.537-2.538h45.725a2.537,2.537,0,0,1,2.537,2.538v49.173A2.537,2.537,0,0,1,293.629,573.017Zm-2.537-49.174H250.441v44.1h40.651v-44.1Zm-38.473,2.338a2.537,2.537,0,1,1-.743,1.795A2.552,2.552,0,0,1,252.619,526.181Zm18.148,0.545a17.542,17.542,0,0,1,17.52,17.524v18.271a2.538,2.538,0,0,1-2.537,2.538H255.783a2.538,2.538,0,0,1-2.537-2.538V544.25A17.542,17.542,0,0,1,270.767,526.726ZM258.32,559.984h24.893V544.25a12.447,12.447,0,1,0-24.893,0v15.734Zm4.328-10.413h5.75a2.534,2.534,0,0,1,4.737,0h5.75a2.537,2.537,0,0,1,2.537,2.537v4.314a2.537,2.537,0,1,1-5.074,0v-1.776H265.185v1.776a2.537,2.537,0,1,1-5.074,0v-4.314A2.537,2.537,0,0,1,262.648,549.571Zm11.112-3.86a4.233,4.233,0,0,1-5.987,0,4.259,4.259,0,0,1-.723-5.022l1.489-2.731a2.538,2.538,0,0,1,4.455,0l1.489,2.731A4.259,4.259,0,0,1,273.76,545.711Zm11.566-15.942a2.533,2.533,0,1,1,1.795.745A2.554,2.554,0,0,1,285.326,529.769ZM270.767,517.8a13.336,13.336,0,0,1-13.32-13.322,2.537,2.537,0,0,1,2.537-2.537h21.565a2.537,2.537,0,0,1,2.537,2.537A13.336,13.336,0,0,1,270.767,517.8Zm-7.846-10.784a8.245,8.245,0,0,0,15.691,0H262.921Z" transform="translate(-245.375 -501.938)"/>
</svg>
