<svg xmlns="http://www.w3.org/2000/svg" width="49.719" height="80.25" viewBox="0 0 49.719 80.25">
  <metadata><?xpacket begin="﻿" id="W5M0MpCehiHzreSzNTczkc9d"?>
<x:xmpmeta xmlns:x="adobe:ns:meta/" x:xmptk="Adobe XMP Core 5.6-c138 79.159824, 2016/09/14-01:09:01        ">
   <rdf:RDF xmlns:rdf="http://www.w3.org/1999/02/22-rdf-syntax-ns#">
      <rdf:Description rdf:about=""/>
   </rdf:RDF>
</x:xmpmeta>
                                                                                                    
                                                                                                    
                                                                                                    
                                                                                                    
                                                                                                    
                                                                                                    
                                                                                                    
                                                                                                    
                                                                                                    
                                                                                                    
                                                                                                    
                                                                                                    
                                                                                                    
                                                                                                    
                                                                                                    
                                                                                                    
                                                                                                    
                                                                                                    
                                                                                                    
                                                                                                    
                           
<?xpacket end="w"?></metadata>
<defs>
    <style>
      .cls-1 {
        fill: #8781bd;
        fill-rule: evenodd;
      }
    </style>
  </defs>
  <path class="cls-1" d="M293.145,648.8a36.11,36.11,0,0,0-6.29,20.409v9a17.713,17.713,0,1,1-35.425,0v-9a36.11,36.11,0,0,0-6.29-20.409,2.557,2.557,0,0,1,2.111-4,24.274,24.274,0,0,1,11.827,3.062l8.117-9.033a2.554,2.554,0,0,1,1.9-.846h0a2.551,2.551,0,0,1,1.9.848l8.139,9.072a24.275,24.275,0,0,1,11.9-3.1A2.557,2.557,0,0,1,293.145,648.8Zm-24.052-4.433-5.8,6.457a24.646,24.646,0,0,1,5.852,7.56,24.608,24.608,0,0,1,5.791-7.506Zm2.6,24.9a2.555,2.555,0,1,1-5.109,0,19.384,19.384,0,0,0-14.5-18.739,41.184,41.184,0,0,1,4.453,18.68v9a12.6,12.6,0,1,0,25.207,0v-9a41.184,41.184,0,0,1,4.453-18.68A19.384,19.384,0,0,0,271.7,669.271Zm-16.925,26.017a8.912,8.912,0,0,1,8.9,8.9,2.555,2.555,0,1,1-5.11,0,3.793,3.793,0,0,0-3.788-3.791,5.382,5.382,0,0,0-5.374,5.378,7.367,7.367,0,0,0,7.356,7.36,9.848,9.848,0,0,0,9.834-9.84v-3.923a2.555,2.555,0,1,1,5.109,0V703.3a9.848,9.848,0,0,0,9.834,9.84,7.367,7.367,0,0,0,7.356-7.36,5.382,5.382,0,0,0-5.374-5.378,3.793,3.793,0,0,0-3.788,3.791,2.555,2.555,0,1,1-5.11,0,8.912,8.912,0,0,1,8.9-8.9A10.5,10.5,0,0,1,294,705.78a12.484,12.484,0,0,1-12.465,12.474,14.937,14.937,0,0,1-12.388-6.6,14.938,14.938,0,0,1-12.389,6.6,12.484,12.484,0,0,1-12.465-12.474A10.5,10.5,0,0,1,254.772,695.288Z" transform="translate(-244.281 -638)"/>
</svg>
