<svg xmlns="http://www.w3.org/2000/svg" width="46.188" height="40.41" viewBox="0 0 46.188 40.41">
  <metadata><?xpacket begin="﻿" id="W5M0MpCehiHzreSzNTczkc9d"?>
<x:xmpmeta xmlns:x="adobe:ns:meta/" x:xmptk="Adobe XMP Core 5.6-c138 79.159824, 2016/09/14-01:09:01        ">
   <rdf:RDF xmlns:rdf="http://www.w3.org/1999/02/22-rdf-syntax-ns#">
      <rdf:Description rdf:about=""/>
   </rdf:RDF>
</x:xmpmeta>
                                                                                                    
                                                                                                    
                                                                                                    
                                                                                                    
                                                                                                    
                                                                                                    
                                                                                                    
                                                                                                    
                                                                                                    
                                                                                                    
                                                                                                    
                                                                                                    
                                                                                                    
                                                                                                    
                                                                                                    
                                                                                                    
                                                                                                    
                                                                                                    
                                                                                                    
                                                                                                    
                           
<?xpacket end="w"?></metadata>
<defs>
    <style>
      .cls-1 {
        fill: #8781bd;
        fill-rule: evenodd;
      }
    </style>
  </defs>
  <path class="cls-1" d="M645.36,2259.37a2.653,2.653,0,0,0-2.644,2.64,8.314,8.314,0,0,0-3.39,6.99,5.5,5.5,0,0,1-2.577,3.36,2.64,2.64,0,0,0-.967,3.61,1.442,1.442,0,0,1-2.5,1.44h0a2.618,2.618,0,0,0-1.606-1.23,2.646,2.646,0,0,0-2,.26,5.584,5.584,0,0,1-5.963-.28,5.607,5.607,0,0,1-1.776.84,5.5,5.5,0,0,1-4.2-.56,2.651,2.651,0,0,0-2.006-.26,2.614,2.614,0,0,0-1.6,1.23h0a1.442,1.442,0,1,1-2.5-1.44h0a2.654,2.654,0,0,0,.262-2.01,2.61,2.61,0,0,0-1.23-1.6,8.3,8.3,0,0,0-4.349-6.43,5.487,5.487,0,0,1-1.62-3.91,2.653,2.653,0,0,0-2.643-2.65,1.44,1.44,0,1,1,0-2.88,2.651,2.651,0,0,0,2.644-2.64,8.322,8.322,0,0,0,3.391-6.99,5.492,5.492,0,0,1,2.576-3.35,2.655,2.655,0,0,0,.967-3.62,1.442,1.442,0,1,1,2.5-1.44,2.671,2.671,0,0,0,1.607,1.24,2.642,2.642,0,0,0,2-.27,5.587,5.587,0,0,1,5.965.28,5.382,5.382,0,0,1,1.775-.83,5.5,5.5,0,0,1,4.2.55,2.653,2.653,0,0,0,3.613-.97,1.442,1.442,0,1,1,2.5,1.44v0.01h0a2.615,2.615,0,0,0-.263,2,2.656,2.656,0,0,0,1.229,1.61,8.3,8.3,0,0,0,4.35,6.42,5.522,5.522,0,0,1,1.619,3.92,2.649,2.649,0,0,0,2.644,2.64A1.44,1.44,0,1,1,645.36,2259.37Zm-17.124,14.57a5.521,5.521,0,0,1,4.188-.55c0.083,0.02.165,0.05,0.246,0.07,0.019-.08.039-0.16,0.061-0.25a5.5,5.5,0,0,1,2.576-3.35,2.664,2.664,0,0,0,1.232-1.61,2.626,2.626,0,0,0,.089-0.7h-4.752a9.618,9.618,0,0,1-2.874-.44,9.605,9.605,0,0,1-1.057,2.71l-2.373,4.11A2.668,2.668,0,0,0,628.236,2273.94Zm-16.126-4.08a5.5,5.5,0,0,1,2.57,3.35c0.022,0.09.042,0.17,0.061,0.25,0.081-.02.163-0.05,0.245-0.07a5.516,5.516,0,0,1,4.2.55,2.61,2.61,0,0,0,2.006.27,2.511,2.511,0,0,0,.653-0.28l-2.375-4.11a9.605,9.605,0,0,1-1.057-2.71,9.616,9.616,0,0,1-2.873.44h-4.749A2.667,2.667,0,0,0,612.11,2269.86Zm-3.191-18.31a2.664,2.664,0,0,0-1.339,2.3,5.521,5.521,0,0,1-1.62,3.91c-0.06.06-.122,0.11-0.184,0.17,0.062,0.06.124,0.12,0.184,0.18a5.479,5.479,0,0,1,1.62,3.91,2.623,2.623,0,0,0,.774,1.87,2.788,2.788,0,0,0,.564.43l2.375-4.12a2.326,2.326,0,0,0,0-4.54Zm10.256-9.63a5.477,5.477,0,0,1-4.188.55,2.222,2.222,0,0,1-.247-0.07c-0.018.08-.038,0.17-0.06,0.25a5.519,5.519,0,0,1-2.576,3.36,2.633,2.633,0,0,0-1.321,2.3h4.751a9.618,9.618,0,0,1,2.874.44,9.754,9.754,0,0,1,1.057-2.71l2.375-4.11A2.694,2.694,0,0,0,619.175,2241.92Zm6.273,5.57-1.742-3.02-1.743,3.02a6.694,6.694,0,0,0-.9,3.36,1.444,1.444,0,0,1-2.165,1.25,6.706,6.706,0,0,0-3.362-.9h-3.485l1.742,3.02a6.7,6.7,0,0,0,2.46,2.46,1.443,1.443,0,0,1,0,2.5,6.771,6.771,0,0,0-2.46,2.46l-1.742,3.02h3.486a6.7,6.7,0,0,0,3.361-.9,1.465,1.465,0,0,1,1.443,0,1.451,1.451,0,0,1,.721,1.25,6.749,6.749,0,0,0,.9,3.37l1.743,3.02,1.741-3.02a6.749,6.749,0,0,0,.9-3.37,1.443,1.443,0,0,1,2.164-1.25,6.706,6.706,0,0,0,3.362.9h3.487l-1.743-3.02a6.784,6.784,0,0,0-2.459-2.46,1.443,1.443,0,0,1,0-2.5,6.773,6.773,0,0,0,2.458-2.46l1.743-3.02h-3.486a6.7,6.7,0,0,0-3.36.9,1.434,1.434,0,0,1-1.444,0,1.454,1.454,0,0,1-.721-1.25A6.685,6.685,0,0,0,625.448,2247.49ZM635.3,2246a5.5,5.5,0,0,1-2.57-3.35c-0.022-.08-0.042-0.17-0.06-0.25a2.222,2.222,0,0,1-.247.07,5.494,5.494,0,0,1-4.195-.55,2.652,2.652,0,0,0-2-.27,2.9,2.9,0,0,0-.653.28l2.375,4.11a9.757,9.757,0,0,1,1.058,2.71,9.6,9.6,0,0,1,2.872-.44h4.751A2.681,2.681,0,0,0,635.3,2246Zm4.53,7.85a2.647,2.647,0,0,0-.774-1.88,2.421,2.421,0,0,0-.564-0.42l-2.376,4.11a2.327,2.327,0,0,0,0,4.54l2.374,4.12a2.693,2.693,0,0,0,1.339-2.31,5.492,5.492,0,0,1,1.619-3.9c0.061-.06.124-0.12,0.188-0.18A5.511,5.511,0,0,1,639.831,2253.85Zm-11.371,1.34a5.5,5.5,0,0,1-4.746,8.24,5.826,5.826,0,0,1-1.429-.19A5.492,5.492,0,1,1,628.46,2255.19Zm-2.5,1.44a2.6,2.6,0,0,0-4.773.63,2.571,2.571,0,0,0,.26,1.97A2.6,2.6,0,1,0,625.962,2256.63Z" transform="translate(-600.625 -2237.72)"/>
</svg>
