<svg xmlns="http://www.w3.org/2000/svg" width="49.03" height="49.06" viewBox="0 0 49.03 49.06">
  <metadata><?xpacket begin="﻿" id="W5M0MpCehiHzreSzNTczkc9d"?>
<x:xmpmeta xmlns:x="adobe:ns:meta/" x:xmptk="Adobe XMP Core 5.6-c138 79.159824, 2016/09/14-01:09:01        ">
   <rdf:RDF xmlns:rdf="http://www.w3.org/1999/02/22-rdf-syntax-ns#">
      <rdf:Description rdf:about=""/>
   </rdf:RDF>
</x:xmpmeta>
                                                                                                    
                                                                                                    
                                                                                                    
                                                                                                    
                                                                                                    
                                                                                                    
                                                                                                    
                                                                                                    
                                                                                                    
                                                                                                    
                                                                                                    
                                                                                                    
                                                                                                    
                                                                                                    
                                                                                                    
                                                                                                    
                                                                                                    
                                                                                                    
                                                                                                    
                                                                                                    
                           
<?xpacket end="w"?></metadata>
<defs>
    <style>
      .cls-1 {
        fill: #8781bd;
        fill-rule: evenodd;
      }
    </style>
  </defs>
  <path class="cls-1" d="M1061.43,2258.64h-3.79a1.65,1.65,0,0,1,0-3.3h3.79A1.65,1.65,0,1,1,1061.43,2258.64Zm-2.24-11.67-3.29,1.9a1.629,1.629,0,0,1-.82.22,1.642,1.642,0,0,1-.82-3.07l3.28-1.9A1.647,1.647,0,0,1,1059.19,2246.97Zm-9.67-5.69a1.648,1.648,0,0,1-1.43.82,1.629,1.629,0,0,1-.82-0.22,1.65,1.65,0,0,1-.61-2.25l1.9-3.28a1.651,1.651,0,1,1,2.86,1.65Zm-10.97-1.73a1.652,1.652,0,0,1-1.65-1.65v-3.79a1.645,1.645,0,1,1,3.29,0v3.79A1.643,1.643,0,0,1,1038.55,2239.55Zm-8.72,2.33a1.665,1.665,0,0,1-.83.22,1.648,1.648,0,0,1-1.43-.82l-1.89-3.28a1.647,1.647,0,1,1,2.85-1.65l1.9,3.28A1.656,1.656,0,0,1,1029.83,2241.88Zm-7.82,7.21a1.629,1.629,0,0,1-.82-0.22l-3.28-1.9a1.644,1.644,0,1,1,1.64-2.85l3.29,1.9A1.645,1.645,0,0,1,1022.01,2249.09Zm-0.9,7.9a1.652,1.652,0,0,1-1.65,1.65h-3.8a1.65,1.65,0,0,1,0-3.3h3.8A1.652,1.652,0,0,1,1021.11,2256.99Zm-3.2,10.01,3.28-1.89a1.647,1.647,0,0,1,1.65,2.85l-3.29,1.9a1.629,1.629,0,0,1-.82.22A1.65,1.65,0,0,1,1017.91,2267Zm9.66,5.7a1.648,1.648,0,1,1,2.86,1.64l-1.9,3.29a1.647,1.647,0,1,1-2.85-1.65Zm10.98,1.73a1.643,1.643,0,0,1,1.64,1.65v3.79a1.645,1.645,0,1,1-3.29,0v-3.79A1.652,1.652,0,0,1,1038.55,2274.43Zm8.72-2.34a1.652,1.652,0,0,1,2.25.61l1.9,3.28a1.65,1.65,0,0,1-.61,2.25,1.629,1.629,0,0,1-.82.22,1.648,1.648,0,0,1-1.43-.82l-1.9-3.29A1.655,1.655,0,0,1,1047.27,2272.09Zm-8.72,1.47a16.575,16.575,0,1,1,16.57-16.57A16.593,16.593,0,0,1,1038.55,2273.56Zm13.27-16.57a13.273,13.273,0,1,0-17.93,12.43,11.6,11.6,0,0,1-1.57-1.34,10.629,10.629,0,0,1,0-15.03,8.83,8.83,0,0,1,12.49,0,7.412,7.412,0,0,1,0,10.46,6.271,6.271,0,0,1-8.84,0,5.335,5.335,0,0,1,0-7.54,1.658,1.658,0,0,1,2.44.11,1.7,1.7,0,0,1-.14,2.26,2.018,2.018,0,0,0-.56,1.48,2.491,2.491,0,0,0,.89,1.62,2.971,2.971,0,0,0,3.88-.26,4.1,4.1,0,0,0,0-5.8,5.541,5.541,0,0,0-7.83,0,7.339,7.339,0,0,0,0,10.37,9.584,9.584,0,0,0,13.55,0,0.022,0.022,0,0,1,.02-0.02,12.335,12.335,0,0,0,3.59-8.08C1051.82,2257.43,1051.82,2257.21,1051.82,2256.99Zm4.08,8.12,3.29,1.89a1.651,1.651,0,0,1-1.65,2.86l-3.28-1.9A1.644,1.644,0,1,1,1055.9,2265.11Z" transform="translate(-1014.03 -2232.47)"/>
</svg>
